<svg width="100" height="40" viewBox="0 0 100 40" fill="none" xmlns="http://www.w3.org/2000/svg">
<g clip-path="url(#clip0_340_454)">
<path d="M39.4055 0H0V40H39.4055V0Z" fill="white"/>
<path d="M38.9131 0.5H0.492676V39.5H38.9131V0.5Z" fill="black"/>
<path d="M10.6971 26.6424V27.2064C10.6971 27.8984 10.5356 28.3437 10.1914 28.7024C9.76717 29.1477 8.93965 29.4931 7.26098 29.4931C5.34849 29.4931 4.58009 29.0771 4.13612 28.6117C3.75126 28.2117 3.52271 27.6371 3.52271 26.9104C3.52271 26.2331 3.72499 25.6331 4.13612 25.2024C4.58009 24.7371 5.46934 24.3264 7.26098 24.3264C8.69008 24.3264 9.79475 24.5931 10.3674 24.8917V25.8944C9.68573 25.5064 8.56136 25.2091 7.26098 25.2091C5.96059 25.2091 5.26049 25.4557 4.9505 25.7811C4.70093 26.0477 4.57352 26.4024 4.57352 26.9104C4.57352 27.4437 4.71538 27.7997 4.9505 28.0464C5.26049 28.3717 5.83318 28.6397 7.26098 28.6397C8.39323 28.6397 9.10778 28.4277 9.37705 28.1451C9.4597 28.064 9.52463 27.9662 9.56763 27.858C9.61062 27.7498 9.63072 27.6337 9.62662 27.5171H6.729V26.6424H10.6971Z" fill="white"/>
<path d="M16.674 28.3295C16.754 28.2332 16.799 28.1118 16.8014 27.9858C16.8038 27.8598 16.7635 27.7368 16.6871 27.6375C16.5387 27.4828 16.2629 27.4188 14.6 27.3268C12.719 27.2281 12.1476 27.0601 11.8245 26.7268C11.6353 26.5295 11.5618 26.2548 11.5618 25.9015C11.5493 25.7264 11.5715 25.5506 11.627 25.3843C11.6825 25.2181 11.7702 25.0648 11.8849 24.9335C12.2146 24.5868 12.8622 24.3468 14.5119 24.3468C15.8255 24.3468 16.8159 24.5441 17.4424 24.8055V25.7335C16.7278 25.4161 15.5431 25.1828 14.5119 25.1828C13.226 25.1828 12.8556 25.3095 12.6993 25.4721C12.6596 25.5171 12.6291 25.5696 12.6095 25.6265C12.5898 25.6835 12.5815 25.7439 12.585 25.8041C12.5788 25.9145 12.6151 26.023 12.6862 26.1068C12.828 26.2561 13.1446 26.3401 14.6801 26.4175C16.6674 26.5241 17.2204 26.6841 17.5435 27.0175C17.7444 27.2541 17.8479 27.5601 17.8325 27.8721C17.8325 28.2388 17.759 28.5775 17.5028 28.8455C17.1666 29.1988 16.4993 29.4748 14.7339 29.4748C13.4204 29.4748 12.1476 29.2548 11.4199 28.9241V28.0001C12.1213 28.3535 13.6096 28.6428 14.7339 28.6428C16.0606 28.6401 16.4848 28.5335 16.674 28.3295Z" fill="white"/>
<path d="M26.956 29.3815H25.9959V25.2482L23.4792 29.3815H22.1775L19.6608 25.2482V29.3815H18.7072V24.4402H20.2742L22.8474 28.7069L25.4258 24.4402H26.956V29.3815Z" fill="white"/>
<path d="M32.1116 24.4119L35.2929 29.3812H34.1305L33.3988 28.2159H29.4071L28.6741 29.3812H27.5576L30.7363 24.4119H32.1116ZM29.9548 27.3452H32.8445L31.3997 25.0372L29.9548 27.3452Z" fill="white"/>
<path d="M34.1777 24.5893H33.8585V24.4093H34.6768V24.5893H34.3577V25.5226H34.1777V24.5893Z" fill="white"/>
<path d="M34.8621 24.4093H35.0499L35.3559 24.9333L35.6633 24.4093H35.8511V25.5186H35.6738V24.7186L35.3559 25.2413L35.042 24.7213V25.5146H34.8673L34.8621 24.4093Z" fill="white"/>
<path d="M7.06411 17.848H3.67261V21.9094H7.06411V17.848Z" fill="#660000"/>
<path d="M13.4269 15.8185H8.34094V21.9091H13.4269V15.8185Z" fill="#A8001D"/>
<path d="M22.3246 12.7747H14.7023V21.9093H22.3246V12.7747Z" fill="#CE0028"/>
<path d="M35.0368 8.20813H23.755V21.9095H35.0368V8.20813Z" fill="#DE002B"/>
<path d="M46.9004 5.82654H48.1654L51.7696 18.2079H50.5047L49.5853 14.9892H45.428L44.5085 18.2079H43.3132L46.9004 5.82654ZM49.274 13.8812L47.5244 7.65587L45.7406 13.8812H49.274Z" fill="white"/>
<path d="M52.1677 17.1348L52.8245 16.2201C53.518 16.9415 54.2273 17.2868 54.9379 17.2868C55.8219 17.2868 56.4275 16.6895 56.4275 15.8801V15.8441C56.4275 15.1775 56.0334 14.6841 54.7475 13.9455C53.275 13.1015 52.6169 12.4148 52.6169 11.2375V11.2015C52.6169 9.79479 53.6901 8.84546 55.1639 8.84546C56.0527 8.85818 56.9073 9.19515 57.5715 9.79479L56.9476 10.7095C56.4222 10.2175 55.839 9.90013 55.1284 9.90013C54.2969 9.90013 53.7426 10.4335 53.7426 11.1135V11.1495C53.7426 11.8161 54.1761 12.2575 55.4055 12.9775C57.0172 13.9281 57.5545 14.6481 57.5545 15.7921V15.8095C57.5545 17.3575 56.3723 18.3428 54.9209 18.3428C54.0211 18.3481 53.0662 17.9788 52.1677 17.1348Z" fill="white"/>
<path d="M57.9878 17.1348L58.6446 16.2201C59.3381 16.9415 60.0487 17.2868 60.758 17.2868C61.642 17.2868 62.2488 16.6895 62.2488 15.8801V15.8441C62.2488 15.1775 61.8548 14.6841 60.5675 13.9455C59.0951 13.1015 58.437 12.4148 58.437 11.2375V11.2015C58.437 9.79479 59.5115 8.84546 60.9839 8.84546C61.8727 8.85818 62.7274 9.19515 63.3916 9.79479L62.7677 10.7095C62.2488 10.2175 61.6591 9.90013 60.9498 9.90013C60.117 9.90013 59.5627 10.4335 59.5627 11.1135V11.1495C59.5627 11.8161 59.9962 12.2575 61.2269 12.9775C62.8373 13.9281 63.3745 14.6481 63.3745 15.7921V15.8095C63.3745 17.3575 62.1924 18.3428 60.7409 18.3428C59.8412 18.3481 58.8889 17.9788 57.9878 17.1348Z" fill="white"/>
<path d="M64.3113 13.688V13.4947C64.3113 10.716 65.7141 8.81738 67.603 8.81738C69.4918 8.81738 70.8605 10.6987 70.8605 13.4947V13.688C70.8605 16.488 69.4747 18.384 67.5859 18.384C65.697 18.384 64.3113 16.5014 64.3113 13.688ZM69.6823 13.6707V13.5294C69.6823 11.3667 68.7628 9.88938 67.5806 9.88938C66.3985 9.88938 65.479 11.356 65.479 13.5294V13.6707C65.479 15.8334 66.3985 17.3107 67.5925 17.3107C68.7865 17.3107 69.6823 15.8334 69.6823 13.6707Z" fill="white"/>
<path d="M71.9333 13.7414V13.512C71.9333 10.488 73.4583 8.81738 75.3117 8.81738C76.1261 8.81738 76.7671 9.15072 77.3043 9.62538L76.7093 10.5934C76.3809 10.2587 75.9133 9.92672 75.2894 9.92672C74.1453 9.92672 73.1063 11.2454 73.1063 13.5667V13.7067C73.1063 16.116 74.1808 17.2947 75.3065 17.2774C75.8962 17.26 76.3113 16.9787 76.7093 16.5734L77.3161 17.4347C77.0546 17.7323 76.7343 17.9707 76.3761 18.1345C76.0179 18.2983 75.6297 18.3838 75.2368 18.3854C73.3362 18.384 71.9333 16.748 71.9333 13.7414Z" fill="white"/>
<path d="M78.5865 5.72144H79.8501V7.2001H78.5865V5.72144ZM78.6378 8.97477H79.7989V18.2081H78.6378V8.97477Z" fill="white"/>
<path d="M81.2543 15.5346V15.4119C81.2543 13.5826 82.3274 12.4573 84.0258 12.4573C84.6595 12.4602 85.2874 12.5795 85.8792 12.8093V12.0173C85.8792 10.6839 85.1686 9.95994 83.9733 9.95994C83.3145 9.97541 82.6729 10.1762 82.1199 10.5399L81.739 9.53727C82.4615 9.11398 83.2784 8.88454 84.1125 8.87061C84.9952 8.87061 85.7229 9.13727 86.243 9.66261C86.7277 10.1373 87.0233 10.9453 87.0233 11.9479V18.2146H85.8621V16.9306C85.4286 17.8106 84.718 18.3906 83.662 18.3906C82.3445 18.3839 81.2543 17.2586 81.2543 15.5346ZM85.8792 15.2359V13.7586C85.3544 13.5273 84.7884 13.4075 84.2163 13.4066C83.0551 13.4066 82.4141 14.1986 82.4141 15.3759V15.4666C82.4141 16.6106 83.021 17.3839 83.9562 17.3839C85.0648 17.3986 85.8792 16.4146 85.8792 15.2359Z" fill="white"/>
<path d="M89.0841 16.3786V10.0119H88.1647V8.97461H89.0841V6.37195H90.2663V8.97461H92.0671V10.0119H90.2624V16.1453C90.2624 16.9719 90.6564 17.2346 91.3014 17.2346C91.5684 17.2306 91.8322 17.1735 92.0776 17.0666V18.0866C91.747 18.2367 91.389 18.3144 91.0268 18.3146C89.9156 18.3133 89.0841 17.8039 89.0841 16.3786Z" fill="white"/>
<path d="M93.0847 13.7414V13.5654C93.0847 10.576 94.4718 8.81738 96.1859 8.81738C98.0249 8.81738 99.1663 10.6107 99.1663 13.484V14.0987H94.2459C94.3326 16.192 95.3899 17.3174 96.6536 17.3174C97.3642 17.3174 97.9185 16.984 98.4386 16.508L98.9929 17.4054C98.2823 18.0387 97.5205 18.3907 96.5498 18.3907C94.6268 18.384 93.0847 16.7307 93.0847 13.7414ZM98.0222 13.1427C97.9881 11.276 97.3129 9.87205 96.1833 9.87205C95.1443 9.87205 94.3299 11.072 94.2262 13.1427H98.0222Z" fill="white"/>
<path d="M44.0028 22.2333H45.2848L48.1745 28.6866L51.0643 22.2333H52.3633V34.5426H51.168V24.6759L48.2061 31.2373H48.1535L45.185 24.6946V34.5426H44.0028V22.2333Z" fill="white"/>
<path d="M54.1774 30.076V29.9C54.1774 26.9106 55.5631 25.152 57.2786 25.152C59.1175 25.152 60.2577 26.9453 60.2577 29.8186V30.4346H55.3372C55.4239 32.528 56.4813 33.6533 57.7462 33.6533C58.4555 33.6533 59.0111 33.3186 59.53 32.844L60.0843 33.7413C59.375 34.3733 58.6118 34.7253 57.6424 34.7253C55.7194 34.7186 54.1774 33.0666 54.1774 30.076ZM59.1149 29.4786C59.0794 27.612 58.4043 26.2066 57.276 26.2066C56.2357 26.2066 55.4213 27.4066 55.3175 29.4786H59.1149Z" fill="white"/>
<path d="M61.9034 25.3106H63.0646V26.7C63.4586 25.8373 64.1154 25.152 65.1951 25.152C66.1146 25.152 66.8751 25.6626 67.256 26.664C67.7066 25.8906 68.383 25.152 69.5783 25.152C70.9812 25.152 71.9689 26.172 71.9689 28.1413V34.5413H70.8078V28.5106C70.8078 26.9453 70.2364 26.2066 69.2486 26.2066C68.2609 26.2066 67.5148 27.0666 67.5148 28.5466V34.5466H66.3549V28.5106C66.3549 26.9453 65.7822 26.2066 64.7945 26.2066C63.8067 26.2066 63.0633 27.14 63.0633 28.5466V34.5466H61.9021L61.9034 25.3106Z" fill="white"/>
<path d="M75.1332 32.8907V34.5427H73.9773V21.9867H75.1332V26.9987C75.5837 26.0134 76.3154 25.152 77.5067 25.152C78.9792 25.152 80.3308 26.6294 80.3308 29.76V30.0934C80.3308 33.1894 78.9792 34.7014 77.5067 34.7014C76.2996 34.7014 75.589 33.8574 75.1332 32.8907ZM79.1525 30.0587V29.812C79.1525 27.4734 78.304 26.2254 77.2296 26.2254C76.0868 26.2254 75.082 27.5587 75.082 29.7774V30.0934C75.082 32.3094 76.0868 33.6294 77.2296 33.6294C78.3093 33.6294 79.1578 32.4 79.1578 30.0587H79.1525Z" fill="white"/>
<path d="M81.6522 30.076V29.9C81.6522 26.9106 83.038 25.152 84.7534 25.152C86.5924 25.152 87.7338 26.9453 87.7338 29.8186V30.4346H82.8134C82.9001 32.528 83.9561 33.6533 85.2211 33.6533C85.9317 33.6533 86.486 33.3186 87.0061 32.844L87.5604 33.7413C86.8498 34.3733 86.088 34.7253 85.1173 34.7253C83.1943 34.7186 81.6522 33.0666 81.6522 30.076ZM86.5897 29.4786C86.5556 27.612 85.8791 26.2066 84.7508 26.2066C83.7105 26.2066 82.8974 27.4066 82.7924 29.4786H86.5897Z" fill="white"/>
<path d="M89.3782 25.3107H90.5393V26.9454C90.9544 25.9081 91.7858 25.1347 93.0166 25.2054V26.5067H92.9641C91.5954 26.5067 90.5393 27.4401 90.5393 29.3374V34.5374H89.3782V25.3107Z" fill="white"/>
</g>
<defs>
<clipPath id="clip0_340_454">
<rect width="99.1667" height="40" fill="white"/>
</clipPath>
</defs>
</svg>
