<svg width="120" height="120" viewBox="0 0 120 120" fill="none" xmlns="http://www.w3.org/2000/svg">
<g clip-path="url(#clip0_7768_1594)">
<path d="M23.5714 0H6.42857C2.87817 0 0 2.87817 0 6.42857V23.5714C0 27.1218 2.87817 30 6.42857 30H23.5714C27.1218 30 30 27.1218 30 23.5714V6.42857C30 2.87817 27.1218 0 23.5714 0Z" fill="url(#paint0_linear_7768_1594)"/>
<path d="M19.9928 10.7893L19.5964 12.8571L19.4999 13.3286H14.9999L14.6464 15.2786L14.2071 17.6786C13.9392 19.0179 13.8749 19.8214 15.2785 19.8214H18.2142L17.9571 20.9679L17.6142 22.5H14.0249C13.2522 22.485 12.5138 22.1786 11.9574 21.6421C11.4011 21.1056 11.068 20.3788 11.0249 19.6071C10.8975 18.9201 10.8975 18.2156 11.0249 17.5286C11.0249 17.3893 11.0892 17.2179 11.1214 17.0357C11.3999 15.6857 11.9142 13.2964 11.9142 13.2964H10.0071L10.0928 12.8571L10.4035 11.175C11.1077 10.9048 11.7739 10.5447 12.3857 10.1036C13.3231 9.39261 14.116 8.50887 14.7214 7.5H16.1678L15.7499 9.69643L15.5357 10.7679L19.9928 10.7893Z" fill="white"/>
<path d="M68.5714 0H51.4286C47.8782 0 45 2.87817 45 6.42857V23.5714C45 27.1218 47.8782 30 51.4286 30H68.5714C72.1218 30 75 27.1218 75 23.5714V6.42857C75 2.87817 72.1218 0 68.5714 0Z" fill="url(#paint1_linear_7768_1594)"/>
<path d="M64.9928 10.7893L64.5964 12.8571L64.4999 13.3286H59.9999L59.6464 15.2786L59.2071 17.6786C58.9392 19.0179 58.8749 19.8214 60.2785 19.8214H63.2142L62.9571 20.9679L62.6142 22.5H59.0249C58.2522 22.485 57.5138 22.1786 56.9574 21.6421C56.4011 21.1056 56.068 20.3788 56.0249 19.6071C55.8975 18.9201 55.8975 18.2156 56.0249 17.5286C56.0249 17.3893 56.0892 17.2179 56.1214 17.0357C56.3999 15.6857 56.9142 13.2964 56.9142 13.2964H55.0071L55.0928 12.8571L55.4035 11.175C56.1077 10.9048 56.7739 10.5447 57.3857 10.1036C58.3231 9.39261 59.116 8.50887 59.7214 7.5H61.1678L60.7499 9.69643L60.5357 10.7679L64.9928 10.7893Z" fill="white"/>
<path d="M113.571 0H96.4286C92.8782 0 90 2.87817 90 6.42857V23.5714C90 27.1218 92.8782 30 96.4286 30H113.571C117.122 30 120 27.1218 120 23.5714V6.42857C120 2.87817 117.122 0 113.571 0Z" fill="url(#paint2_linear_7768_1594)"/>
<path d="M109.993 10.7893L109.596 12.8571L109.5 13.3286H105L104.646 15.2786L104.207 17.6786C103.939 19.0179 103.875 19.8214 105.279 19.8214H108.214L107.957 20.9679L107.614 22.5H104.025C103.252 22.485 102.514 22.1786 101.957 21.6421C101.401 21.1056 101.068 20.3788 101.025 19.6071C100.898 18.9201 100.898 18.2156 101.025 17.5286C101.025 17.3893 101.089 17.2179 101.121 17.0357C101.4 15.6857 101.914 13.2964 101.914 13.2964H100.007L100.093 12.8571L100.404 11.175C101.108 10.9048 101.774 10.5447 102.386 10.1036C103.323 9.39261 104.116 8.50887 104.721 7.5H106.168L105.75 9.69643L105.536 10.7679L109.993 10.7893Z" fill="white"/>
<path d="M23.5714 45H6.42857C2.87817 45 0 47.8782 0 51.4286V68.5714C0 72.1218 2.87817 75 6.42857 75H23.5714C27.1218 75 30 72.1218 30 68.5714V51.4286C30 47.8782 27.1218 45 23.5714 45Z" fill="url(#paint3_linear_7768_1594)"/>
<path d="M19.9928 55.7893L19.5964 57.8571L19.4999 58.3286H14.9999L14.6464 60.2786L14.2071 62.6786C13.9392 64.0179 13.8749 64.8214 15.2785 64.8214H18.2142L17.9571 65.9679L17.6142 67.5H14.0249C13.2522 67.485 12.5138 67.1786 11.9574 66.6421C11.4011 66.1056 11.068 65.3788 11.0249 64.6071C10.8975 63.9201 10.8975 63.2156 11.0249 62.5286C11.0249 62.3893 11.0892 62.2179 11.1214 62.0357C11.3999 60.6857 11.9142 58.2964 11.9142 58.2964H10.0071L10.0928 57.8571L10.4035 56.175C11.1077 55.9048 11.7739 55.5447 12.3857 55.1036C13.3231 54.3926 14.116 53.5089 14.7214 52.5H16.1678L15.7499 54.6964L15.5357 55.7679L19.9928 55.7893Z" fill="white"/>
<path d="M68.5714 45H51.4286C47.8782 45 45 47.8782 45 51.4286V68.5714C45 72.1218 47.8782 75 51.4286 75H68.5714C72.1218 75 75 72.1218 75 68.5714V51.4286C75 47.8782 72.1218 45 68.5714 45Z" fill="url(#paint4_linear_7768_1594)"/>
<path d="M64.9928 55.7893L64.5964 57.8571L64.4999 58.3286H59.9999L59.6464 60.2786L59.2071 62.6786C58.9392 64.0179 58.8749 64.8214 60.2785 64.8214H63.2142L62.9571 65.9679L62.6142 67.5H59.0249C58.2522 67.485 57.5138 67.1786 56.9574 66.6421C56.4011 66.1056 56.068 65.3788 56.0249 64.6071C55.8975 63.9201 55.8975 63.2156 56.0249 62.5286C56.0249 62.3893 56.0892 62.2179 56.1214 62.0357C56.3999 60.6857 56.9142 58.2964 56.9142 58.2964H55.0071L55.0928 57.8571L55.4035 56.175C56.1077 55.9048 56.7739 55.5447 57.3857 55.1036C58.3231 54.3926 59.116 53.5089 59.7214 52.5H61.1678L60.7499 54.6964L60.5357 55.7679L64.9928 55.7893Z" fill="white"/>
<path d="M113.571 45H96.4286C92.8782 45 90 47.8782 90 51.4286V68.5714C90 72.1218 92.8782 75 96.4286 75H113.571C117.122 75 120 72.1218 120 68.5714V51.4286C120 47.8782 117.122 45 113.571 45Z" fill="url(#paint5_linear_7768_1594)"/>
<path d="M109.993 55.7893L109.596 57.8571L109.5 58.3286H105L104.646 60.2786L104.207 62.6786C103.939 64.0179 103.875 64.8214 105.279 64.8214H108.214L107.957 65.9679L107.614 67.5H104.025C103.252 67.485 102.514 67.1786 101.957 66.6421C101.401 66.1056 101.068 65.3788 101.025 64.6071C100.898 63.9201 100.898 63.2156 101.025 62.5286C101.025 62.3893 101.089 62.2179 101.121 62.0357C101.4 60.6857 101.914 58.2964 101.914 58.2964H100.007L100.093 57.8571L100.404 56.175C101.108 55.9048 101.774 55.5447 102.386 55.1036C103.323 54.3926 104.116 53.5089 104.721 52.5H106.168L105.75 54.6964L105.536 55.7679L109.993 55.7893Z" fill="white"/>
<path d="M23.5714 90H6.42857C2.87817 90 0 92.8782 0 96.4286V113.571C0 117.122 2.87817 120 6.42857 120H23.5714C27.1218 120 30 117.122 30 113.571V96.4286C30 92.8782 27.1218 90 23.5714 90Z" fill="url(#paint6_linear_7768_1594)"/>
<path d="M19.9928 100.789L19.5964 102.857L19.4999 103.329H14.9999L14.6464 105.279L14.2071 107.679C13.9392 109.018 13.8749 109.821 15.2785 109.821H18.2142L17.9571 110.968L17.6142 112.5H14.0249C13.2522 112.485 12.5138 112.179 11.9574 111.642C11.4011 111.106 11.068 110.379 11.0249 109.607C10.8975 108.92 10.8975 108.216 11.0249 107.529C11.0249 107.389 11.0892 107.218 11.1214 107.036C11.3999 105.686 11.9142 103.296 11.9142 103.296H10.0071L10.0928 102.857L10.4035 101.175C11.1077 100.905 11.7739 100.545 12.3857 100.104C13.3231 99.3926 14.116 98.5089 14.7214 97.5H16.1678L15.7499 99.6964L15.5357 100.768L19.9928 100.789Z" fill="white"/>
<path d="M68.5714 90H51.4286C47.8782 90 45 92.8782 45 96.4286V113.571C45 117.122 47.8782 120 51.4286 120H68.5714C72.1218 120 75 117.122 75 113.571V96.4286C75 92.8782 72.1218 90 68.5714 90Z" fill="url(#paint7_linear_7768_1594)"/>
<path d="M64.9928 100.789L64.5964 102.857L64.4999 103.329H59.9999L59.6464 105.279L59.2071 107.679C58.9392 109.018 58.8749 109.821 60.2785 109.821H63.2142L62.9571 110.968L62.6142 112.5H59.0249C58.2522 112.485 57.5138 112.179 56.9574 111.642C56.4011 111.106 56.068 110.379 56.0249 109.607C55.8975 108.92 55.8975 108.216 56.0249 107.529C56.0249 107.389 56.0892 107.218 56.1214 107.036C56.3999 105.686 56.9142 103.296 56.9142 103.296H55.0071L55.0928 102.857L55.4035 101.175C56.1077 100.905 56.7739 100.545 57.3857 100.104C58.3231 99.3926 59.116 98.5089 59.7214 97.5H61.1678L60.7499 99.6964L60.5357 100.768L64.9928 100.789Z" fill="white"/>
<path d="M113.571 90H96.4286C92.8782 90 90 92.8782 90 96.4286V113.571C90 117.122 92.8782 120 96.4286 120H113.571C117.122 120 120 117.122 120 113.571V96.4286C120 92.8782 117.122 90 113.571 90Z" fill="url(#paint8_linear_7768_1594)"/>
<path d="M109.993 100.789L109.596 102.857L109.5 103.329H105L104.646 105.279L104.207 107.679C103.939 109.018 103.875 109.821 105.279 109.821H108.214L107.957 110.968L107.614 112.5H104.025C103.252 112.485 102.514 112.179 101.957 111.642C101.401 111.106 101.068 110.379 101.025 109.607C100.898 108.92 100.898 108.216 101.025 107.529C101.025 107.389 101.089 107.218 101.121 107.036C101.4 105.686 101.914 103.296 101.914 103.296H100.007L100.093 102.857L100.404 101.175C101.108 100.905 101.774 100.545 102.386 100.104C103.323 99.3926 104.116 98.5089 104.721 97.5H106.168L105.75 99.6964L105.536 100.768L109.993 100.789Z" fill="white"/>
</g>
<defs>
<linearGradient id="paint0_linear_7768_1594" x1="30" y1="-1.78814e-06" x2="-5.29412" y2="8.82353" gradientUnits="userSpaceOnUse">
<stop stop-color="#37AEFF"/>
<stop offset="1" stop-color="#5533FF"/>
</linearGradient>
<linearGradient id="paint1_linear_7768_1594" x1="75" y1="-1.78814e-06" x2="39.7059" y2="8.82353" gradientUnits="userSpaceOnUse">
<stop stop-color="#37AEFF"/>
<stop offset="1" stop-color="#5533FF"/>
</linearGradient>
<linearGradient id="paint2_linear_7768_1594" x1="120" y1="-1.78814e-06" x2="84.7059" y2="8.82353" gradientUnits="userSpaceOnUse">
<stop stop-color="#37AEFF"/>
<stop offset="1" stop-color="#5533FF"/>
</linearGradient>
<linearGradient id="paint3_linear_7768_1594" x1="30" y1="45" x2="-5.29412" y2="53.8235" gradientUnits="userSpaceOnUse">
<stop stop-color="#37AEFF"/>
<stop offset="1" stop-color="#5533FF"/>
</linearGradient>
<linearGradient id="paint4_linear_7768_1594" x1="75" y1="45" x2="39.7059" y2="53.8235" gradientUnits="userSpaceOnUse">
<stop stop-color="#37AEFF"/>
<stop offset="1" stop-color="#5533FF"/>
</linearGradient>
<linearGradient id="paint5_linear_7768_1594" x1="120" y1="45" x2="84.7059" y2="53.8235" gradientUnits="userSpaceOnUse">
<stop stop-color="#37AEFF"/>
<stop offset="1" stop-color="#5533FF"/>
</linearGradient>
<linearGradient id="paint6_linear_7768_1594" x1="30" y1="90" x2="-5.29412" y2="98.8235" gradientUnits="userSpaceOnUse">
<stop stop-color="#37AEFF"/>
<stop offset="1" stop-color="#5533FF"/>
</linearGradient>
<linearGradient id="paint7_linear_7768_1594" x1="75" y1="90" x2="39.7059" y2="98.8235" gradientUnits="userSpaceOnUse">
<stop stop-color="#37AEFF"/>
<stop offset="1" stop-color="#5533FF"/>
</linearGradient>
<linearGradient id="paint8_linear_7768_1594" x1="120" y1="90" x2="84.7059" y2="98.8235" gradientUnits="userSpaceOnUse">
<stop stop-color="#37AEFF"/>
<stop offset="1" stop-color="#5533FF"/>
</linearGradient>
<clipPath id="clip0_7768_1594">
<rect width="120" height="120" fill="white"/>
</clipPath>
</defs>
</svg>
