<svg width="100" height="40" viewBox="0 0 159 64" fill="none" xmlns="http://www.w3.org/2000/svg">
<path d="M63.0489 0H0V64H63.0489V0Z" fill="white"/>
<path d="M62.2617 0.800049H0.789062V63.2001H62.2617V0.800049Z" fill="black"/>
<path d="M17.1139 42.628V43.5304C17.1139 44.6376 16.8554 45.3501 16.3047 45.924C15.6259 46.6365 14.3019 47.189 11.616 47.189C8.55603 47.189 7.32658 46.5234 6.61623 45.7789C6.00045 45.1389 5.63477 44.2194 5.63477 43.0568C5.63477 41.973 5.95842 41.013 6.61623 40.324C7.32658 39.5794 8.74938 38.9224 11.616 38.9224C13.9026 38.9224 15.67 39.349 16.5864 39.8269V41.4312C15.4956 40.8104 13.6966 40.3346 11.616 40.3346C9.53539 40.3346 8.41522 40.7293 7.91924 41.2498C7.51993 41.6765 7.31607 42.244 7.31607 43.0568C7.31607 43.9101 7.54304 44.4797 7.91924 44.8744C8.41522 45.3949 9.33153 45.8237 11.616 45.8237C13.4276 45.8237 14.5709 45.4845 15.0017 45.0322C15.134 44.9025 15.2378 44.746 15.3066 44.5729C15.3754 44.3998 15.4076 44.214 15.401 44.0274H10.7648V42.628H17.1139Z" fill="white"/>
<path d="M26.6751 45.3269C26.8032 45.1727 26.8751 44.9786 26.879 44.777C26.8828 44.5755 26.8182 44.3787 26.6961 44.2197C26.4586 43.9722 26.0173 43.8698 23.3566 43.7226C20.3471 43.5647 19.4329 43.2959 18.9159 42.7626C18.6132 42.4469 18.4955 42.0074 18.4955 41.4421C18.4756 41.1619 18.5111 40.8806 18.5999 40.6146C18.6886 40.3486 18.829 40.1034 19.0125 39.8933C19.54 39.3386 20.5761 38.9546 23.2158 38.9546C25.3174 38.9546 26.902 39.2703 27.9045 39.6885V41.1733C26.7612 40.6655 24.8656 40.2922 23.2158 40.2922C21.1583 40.2922 20.5656 40.4949 20.3155 40.7551C20.252 40.827 20.2032 40.911 20.1718 41.0022C20.1404 41.0933 20.1271 41.1899 20.1327 41.2863C20.1228 41.4629 20.1808 41.6365 20.2945 41.7706C20.5215 42.0095 21.028 42.1439 23.4848 42.2677C26.6646 42.4383 27.5494 42.6943 28.0664 43.2277C28.3878 43.6063 28.5533 44.0959 28.5287 44.5951C28.5287 45.1818 28.411 45.7237 28.0012 46.1525C27.4632 46.7178 26.3956 47.1594 23.571 47.1594C21.4693 47.1594 19.4329 46.8074 18.2686 46.2783V44.7999C19.3908 45.3653 21.772 45.8282 23.571 45.8282C25.6936 45.8239 26.3724 45.6533 26.6751 45.3269Z" fill="white"/>
<path d="M43.1299 47.0101H41.5936V40.3968L37.5669 47.0101H35.4841L31.4574 40.3968V47.0101H29.9316V39.104H32.4389L36.556 45.9307L40.6815 39.104H43.1299V47.0101Z" fill="white"/>
<path d="M51.3772 39.0591L56.4673 47.01H54.6074L53.4368 45.1455H47.0499L45.8772 47.01H44.0908L49.1768 39.0591H51.3772ZM47.9263 43.7524H52.5499L50.2381 40.0596L47.9263 43.7524Z" fill="white"/>
<path d="M54.6845 39.3432H54.1738V39.0552H55.4832V39.3432H54.9725V40.8365H54.6845V39.3432Z" fill="white"/>
<path d="M55.7783 39.0552H56.0789L56.5685 39.8936L57.0603 39.0552H57.3608V40.8301H57.0771V39.5501L56.5685 40.3864L56.0662 39.5544V40.8237H55.7867L55.7783 39.0552Z" fill="white"/>
<path d="M11.3034 28.5571H5.87695V35.0553H11.3034V28.5571Z" fill="#660000"/>
<path d="M21.4842 25.3098H13.3467V35.0549H21.4842V25.3098Z" fill="#A8001D"/>
<path d="M35.7172 20.4395H23.5215V35.0549H35.7172V20.4395Z" fill="#CE0028"/>
<path d="M56.0587 13.1333H38.0078V35.0554H56.0587V13.1333Z" fill="#DE002B"/>
<path d="M75.0423 9.32227H77.0661L82.833 29.1324H80.8091L79.338 23.9825H72.6864L71.2152 29.1324H69.3027L75.0423 9.32227ZM78.8399 22.2097L76.0405 12.2492L73.1865 22.2097H78.8399Z" fill="white"/>
<path d="M83.4668 27.4158L84.5176 25.9523C85.6273 27.1064 86.7622 27.659 87.8991 27.659C89.3135 27.659 90.2824 26.7032 90.2824 25.4083V25.3507C90.2824 24.284 89.6519 23.4947 87.5944 22.3128C85.2385 20.9624 84.1856 19.8638 84.1856 17.98V17.9224C84.1856 15.6718 85.9026 14.1528 88.2606 14.1528C89.6827 14.1732 91.0501 14.7123 92.1129 15.6718L91.1146 17.1352C90.274 16.348 89.3409 15.8403 88.2039 15.8403C86.8735 15.8403 85.9866 16.6936 85.9866 17.7816V17.8392C85.9866 18.9059 86.6802 19.612 88.6473 20.764C91.226 22.2851 92.0856 23.4371 92.0856 25.2675V25.2952C92.0856 27.772 90.1941 29.3486 87.8718 29.3486C86.4322 29.3571 84.9043 28.7662 83.4668 27.4158Z" fill="white"/>
<path d="M92.7832 27.4158L93.834 25.9523C94.9437 27.1064 96.0807 27.659 97.2155 27.659C98.6299 27.659 99.6009 26.7032 99.6009 25.4083V25.3507C99.6009 24.284 98.9704 23.4947 96.9108 22.3128C94.5549 20.9624 93.502 19.8638 93.502 17.98V17.9224C93.502 15.6718 95.2211 14.1528 97.577 14.1528C98.9991 14.1732 100.367 14.7123 101.429 15.6718L100.431 17.1352C99.6009 16.348 98.6572 15.8403 97.5224 15.8403C96.1899 15.8403 95.3031 16.6936 95.3031 17.7816V17.8392C95.3031 18.9059 95.9966 19.612 97.9658 20.764C100.542 22.2851 101.402 23.4371 101.402 25.2675V25.2952C101.402 27.772 99.5105 29.3486 97.1882 29.3486C95.7486 29.3571 94.2249 28.7662 92.7832 27.4158Z" fill="white"/>
<path d="M102.896 21.901V21.5916C102.896 17.1458 105.141 14.1079 108.163 14.1079C111.185 14.1079 113.375 17.118 113.375 21.5916V21.901C113.375 26.381 111.158 29.4146 108.136 29.4146C105.114 29.4146 102.896 26.4023 102.896 21.901ZM111.49 21.8732V21.6471C111.49 18.1868 110.019 15.8231 108.127 15.8231C106.236 15.8231 104.765 18.1698 104.765 21.6471V21.8732C104.765 25.3335 106.236 27.6972 108.146 27.6972C110.057 27.6972 111.49 25.3335 111.49 21.8732Z" fill="white"/>
<path d="M115.092 21.9863V21.6194C115.092 16.781 117.532 14.1079 120.497 14.1079C121.8 14.1079 122.826 14.6412 123.685 15.4007L122.733 16.9495C122.208 16.414 121.46 15.8828 120.461 15.8828C118.631 15.8828 116.969 17.9927 116.969 21.7068V21.9308C116.969 25.7858 118.688 27.6716 120.489 27.6439C121.432 27.6162 122.097 27.166 122.733 26.5175L123.704 27.8956C123.286 28.3718 122.773 28.7533 122.2 29.0153C121.627 29.2774 121.006 29.4141 120.377 29.4167C117.336 29.4146 115.092 26.797 115.092 21.9863Z" fill="white"/>
<path d="M125.74 9.1543H127.762V11.5202H125.74V9.1543ZM125.822 14.3596H127.68V29.133H125.822V14.3596Z" fill="white"/>
<path d="M130.006 24.8553V24.659C130.006 21.7321 131.723 19.9315 134.44 19.9315C135.454 19.9362 136.459 20.127 137.406 20.4947V19.2275C137.406 17.0942 136.269 15.9358 134.356 15.9358C133.302 15.9606 132.276 16.2818 131.391 16.8638L130.781 15.2595C131.937 14.5823 133.244 14.2152 134.579 14.1929C135.991 14.1929 137.156 14.6195 137.988 15.4601C138.763 16.2195 139.236 17.5123 139.236 19.1166V29.1433H137.378V27.0889C136.685 28.4969 135.548 29.4249 133.858 29.4249C131.75 29.4142 130.006 27.6137 130.006 24.8553ZM137.406 24.3774V22.0137C136.566 21.6435 135.661 21.4518 134.745 21.4505C132.887 21.4505 131.862 22.7177 131.862 24.6014V24.7465C131.862 26.5769 132.833 27.8142 134.329 27.8142C136.103 27.8377 137.406 26.2633 137.406 24.3774Z" fill="white"/>
<path d="M142.536 26.2055V16.0188H141.064V14.3591H142.536V10.1948H144.427V14.3591H147.308V16.0188H144.421V25.8322C144.421 27.1548 145.051 27.5751 146.083 27.5751C146.51 27.5686 146.932 27.4773 147.325 27.3063V28.9383C146.796 29.1785 146.223 29.3028 145.644 29.3031C143.866 29.301 142.536 28.486 142.536 26.2055Z" fill="white"/>
<path d="M148.936 21.9863V21.7047C148.936 16.9218 151.155 14.1079 153.898 14.1079C156.84 14.1079 158.666 16.9772 158.666 21.5746V22.558H150.793C150.932 25.9074 152.624 27.7079 154.646 27.7079C155.783 27.7079 156.67 27.1746 157.502 26.413L158.389 27.8487C157.252 28.862 156.033 29.4252 154.48 29.4252C151.403 29.4146 148.936 26.7692 148.936 21.9863ZM156.836 21.0284C156.781 18.0418 155.701 15.7954 153.893 15.7954C152.231 15.7954 150.928 17.7154 150.762 21.0284H156.836Z" fill="white"/>
<path d="M70.4033 35.5735H72.4545L77.0781 45.8988L81.7017 35.5735H83.7802V55.2684H81.8677V39.4818L77.1285 49.9799H77.0445L72.2948 39.5116V55.2684H70.4033V35.5735Z" fill="white"/>
<path d="M86.6846 48.1213V47.8397C86.6846 43.0568 88.9018 40.2429 91.6465 40.2429C94.5888 40.2429 96.413 43.1123 96.413 47.7096V48.6952H88.5403C88.679 52.0445 90.3708 53.8451 92.3947 53.8451C93.5296 53.8451 94.4186 53.3096 95.2487 52.5501L96.1356 53.9859C95.0007 54.9971 93.7797 55.5603 92.2287 55.5603C89.1519 55.5496 86.6846 52.9064 86.6846 48.1213ZM94.5846 47.1656C94.5279 44.1789 93.4476 41.9304 91.6423 41.9304C89.9778 41.9304 88.6748 43.8504 88.5088 47.1656H94.5846Z" fill="white"/>
<path d="M99.047 40.4968H100.905V42.7197C101.535 41.3395 102.586 40.2429 104.314 40.2429C105.785 40.2429 107.002 41.06 107.611 42.6621C108.332 41.4248 109.414 40.2429 111.327 40.2429C113.571 40.2429 115.152 41.8749 115.152 45.0259V55.2659H113.294V45.6168C113.294 43.1123 112.38 41.9304 110.799 41.9304C109.219 41.9304 108.025 43.3064 108.025 45.6744V55.2744H106.169V45.6168C106.169 43.1123 105.253 41.9304 103.673 41.9304C102.092 41.9304 100.903 43.4237 100.903 45.6744V55.2744H99.0449L99.047 40.4968Z" fill="white"/>
<path d="M120.215 52.6253V55.2686H118.365V35.179H120.215V43.1982C120.936 41.6216 122.106 40.2435 124.012 40.2435C126.368 40.2435 128.531 42.6072 128.531 47.6163V48.1496C128.531 53.1032 126.368 55.5224 124.012 55.5224C122.081 55.5224 120.944 54.172 120.215 52.6253ZM126.646 48.0942V47.6995C126.646 43.9576 125.288 41.9608 123.569 41.9608C121.74 41.9608 120.133 44.0942 120.133 47.644V48.1496C120.133 51.6952 121.74 53.8072 123.569 53.8072C125.296 53.8072 126.654 51.8403 126.654 48.0942H126.646Z" fill="white"/>
<path d="M130.643 48.1213V47.8397C130.643 43.0568 132.86 40.2429 135.605 40.2429C138.547 40.2429 140.373 43.1123 140.373 47.7096V48.6952H132.5C132.639 52.0445 134.329 53.8451 136.353 53.8451C137.49 53.8451 138.377 53.3096 139.209 52.5501L140.096 53.9859C138.959 54.9971 137.74 55.5603 136.187 55.5603C133.11 55.5496 130.643 52.9064 130.643 48.1213ZM138.543 47.1656C138.488 44.1789 137.406 41.9304 135.6 41.9304C133.936 41.9304 132.635 43.8504 132.467 47.1656H138.543Z" fill="white"/>
<path d="M143.003 40.4967H144.861V43.1122C145.525 41.4525 146.855 40.2151 148.824 40.3282V42.4103H148.74C146.55 42.4103 144.861 43.9037 144.861 46.9394V55.2594H143.003V40.4967Z" fill="white"/>
</svg>
