<svg width="120" height="120" viewBox="0 0 120 120" fill="none" xmlns="http://www.w3.org/2000/svg">
<g clip-path="url(#clip0_7118_3757)">
<path fill-rule="evenodd" clip-rule="evenodd" d="M16.875 30.3981C16.875 41.7989 21.4028 52.733 29.4627 60.7963L33.0682 57.1908C29.5496 53.6724 26.7585 49.4954 24.8542 44.8983C22.9499 40.3012 21.9698 35.374 21.9698 30.3981C21.9698 25.4222 22.9499 20.4951 24.8542 15.898C26.7585 11.3009 29.5496 7.12386 33.0682 3.60548L29.4627 0C21.4028 8.06322 16.875 18.9973 16.875 30.3981ZM37.1707 53.1012C31.1553 47.0768 27.7766 38.9115 27.7766 30.3981C27.7766 21.8848 31.1553 13.7194 37.1707 7.69506L40.7762 11.3005C38.2661 13.8099 36.2749 16.7891 34.9164 20.0681C33.5579 23.3471 32.8587 26.8616 32.8587 30.4109C32.8587 33.9601 33.5579 37.4746 34.9164 40.7536C36.2749 44.0326 38.2661 47.0118 40.7762 49.5212L37.1707 53.1012ZM48.4712 19.0084C45.455 22.0341 43.7613 26.1322 43.7613 30.4045C43.7613 34.6768 45.455 38.7749 48.4712 41.8006L44.9295 45.4061C40.9672 41.4239 38.7428 36.0349 38.7428 30.4173C38.7428 24.7997 40.9672 19.4106 44.9295 15.4284L48.4712 19.0084ZM71.4164 41.8006C72.9145 40.3049 74.103 38.5285 74.9139 36.5731C75.7248 34.6176 76.1422 32.5215 76.1422 30.4045C76.1422 28.2876 75.7248 26.1914 74.9139 24.236C74.103 22.2805 72.9145 20.5041 71.4164 19.0084L75.0219 15.4284C78.9943 19.4078 81.2253 24.8009 81.2253 30.4236C81.2253 36.0464 78.9943 41.4394 75.0219 45.4189L71.4164 41.8006ZM79.1115 49.4957L82.717 53.1012C88.7402 47.0758 92.1238 38.905 92.1238 30.3854C92.1238 21.8658 88.7402 13.695 82.717 7.6696L79.1115 11.2751C81.6216 13.7844 83.6128 16.7637 84.9713 20.0426C86.3297 23.3216 87.029 26.8361 87.029 30.3854C87.029 33.9347 86.3297 37.4492 84.9713 40.7281C83.6128 44.0071 81.6216 46.9864 79.1115 49.4957ZM90.412 60.809L86.8192 57.2035C93.9106 50.0874 97.8924 40.4507 97.8924 30.4045C97.8924 20.3583 93.9106 10.7216 86.8192 3.60548L90.412 0C98.4633 8.07035 102.985 19.0047 102.985 30.4045C102.985 41.8043 98.4633 52.7387 90.412 60.809ZM86.297 90.43C86.3405 90.5168 86.3788 90.6061 86.4116 90.6975L97.674 116.56L94.285 119.898L60.0394 104.61L25.5771 120L22.201 116.662L56.0007 39.2271C53.981 38.3025 52.3382 36.7149 51.3452 34.7279C50.3523 32.7408 50.0688 30.4739 50.542 28.3036C51.0151 26.1332 52.2164 24.19 53.9463 22.7965C55.6763 21.4031 57.8308 20.6433 60.0521 20.6433C62.2735 20.6433 64.428 21.4031 66.1579 22.7965C67.8878 24.19 69.0891 26.1332 69.5623 28.3036C70.0354 30.4739 69.752 32.7408 68.759 34.7279C67.766 36.7149 66.1233 38.3025 64.1035 39.2271L86.297 90.43ZM64.3073 74.5812L78.0795 84.3274L71.5947 69.3322L64.3073 74.5812ZM56.1909 27.817C55.6823 28.5815 55.4122 29.4799 55.4147 30.3982C55.418 31.6237 55.9064 32.798 56.7729 33.6646C57.6395 34.5312 58.8139 35.0195 60.0394 35.0229C60.9577 35.0254 61.856 34.7552 62.6206 34.2466C63.3852 33.738 63.9815 33.0139 64.3341 32.166C64.6867 31.3181 64.7796 30.3846 64.6011 29.4838C64.4225 28.5831 63.9806 27.7556 63.3313 27.1063C62.6819 26.4569 61.8545 26.015 60.9537 25.8365C60.0529 25.658 59.1195 25.7509 58.2716 26.1034C57.4237 26.456 56.6995 27.0524 56.1909 27.817ZM69.5181 64.5546L60.0394 42.6925L50.4078 64.7712L59.912 71.4853L69.5181 64.5546ZM55.5293 74.6321L48.3184 69.5361L41.7827 84.5185L55.5293 74.6321ZM37.2854 94.7234L29.5011 112.674L53.682 101.883L37.2854 94.7234ZM59.9375 77.728L41.5151 91.0161L60.0521 99.0806L78.8312 91.0543L59.9375 77.728ZM82.7042 94.9655L66.3967 101.947L90.3483 112.687L82.7042 94.9655Z" fill="url(#paint0_linear_7118_3757)"/>
</g>
<defs>
<linearGradient id="paint0_linear_7118_3757" x1="102.985" y1="-7.15256e-06" x2="-1.29642" y2="18.7076" gradientUnits="userSpaceOnUse">
<stop stop-color="#37AEFF"/>
<stop offset="1" stop-color="#5533FF"/>
</linearGradient>
<clipPath id="clip0_7118_3757">
<rect width="86.111" height="120" fill="white" transform="translate(16.875)"/>
</clipPath>
</defs>
</svg>
