<svg width="120" height="120" viewBox="0 0 120 120" fill="none" xmlns="http://www.w3.org/2000/svg">
<g clip-path="url(#clip0_8342_21632)">
<path fill-rule="evenodd" clip-rule="evenodd" d="M74.136 19.2976C74.7264 19.7121 75.4172 19.8502 76.1205 19.8126C77.1003 19.4558 78.0941 19.1212 79.0891 18.7862L79.0894 18.7861L79.0895 18.786C80.5818 18.2836 82.0768 17.7802 83.531 17.2C84.3977 16.8484 85.0257 16.2831 85.3146 15.3537L86.6837 7.51613C86.6837 6.74996 86.3822 5.95867 85.817 5.4437C84.8417 4.72438 83.9018 3.88967 82.963 3.05589L82.9629 3.05583C81.9674 2.17169 80.9731 1.2886 79.9388 0.545231C79.3359 0.105624 78.6075 -0.057658 77.8664 0.0177031C77.678 0.0428234 77.5022 0.105624 77.3263 0.168425C76.1238 0.548181 74.934 1.00129 73.7457 1.45383C72.5758 1.89934 71.4075 2.34429 70.2298 2.71814C69.4636 3.06983 68.911 3.74808 68.71 4.55193C68.3952 5.83074 68.1969 7.18145 67.9987 8.53077L67.9987 8.531C67.8173 9.76589 67.6362 10.9996 67.3661 12.176C67.3159 13.0426 67.6675 13.8465 68.2955 14.4242C69.2289 15.2993 70.2659 16.1174 71.3031 16.9357C72.2758 17.703 73.2486 18.4705 74.136 19.285V19.2976ZM73.3699 10.1287L73.4327 10.0659H74.1737V9.62624H73.4327L73.3699 9.56344V8.62143H74.337C74.9148 6.44852 77.2133 5.16738 79.3736 5.92099V7.57893C78.2181 7.03885 76.6355 7.37797 76.1205 8.62143H78.4567V9.62624H75.8819V10.0659H78.4567V11.0581L78.3939 11.1209H76.1582C76.6229 12.3644 78.2809 12.6532 79.3736 12.1257V13.7711C77.2635 14.5122 74.9148 13.2813 74.337 11.1209H73.4327L73.3699 11.0581V10.1287ZM39.6207 19.5423C40.2362 20.0447 41.3666 20.2457 42.1202 19.9819L49.38 17.3568C50.1336 17.0805 50.8621 16.2264 51.0002 15.4351L52.3316 7.87391C52.4698 7.08261 52.0804 6.02756 51.465 5.50003L45.5366 0.563877C44.9211 0.0489095 43.8032 -0.152053 43.0371 0.124271L35.7899 2.73679C35.0237 3.01311 34.2952 3.87977 34.157 4.67106L32.8257 12.2323C32.6875 13.011 33.0769 14.0786 33.6923 14.5936L39.6207 19.5423ZM40.0854 9.56953C39.6709 9.1676 39.4574 8.6024 39.4574 7.88647C39.4574 7.20822 39.6835 6.64301 40.1608 6.21596C40.6381 5.78891 41.2661 5.52515 42.0574 5.44979V4.73386H43.3511V5.47491C44.1926 5.58795 44.9588 5.8894 45.6622 6.3918L44.8332 7.84878C44.3057 7.48454 43.7907 7.2459 43.2883 7.10773V8.99176C44.2429 9.24297 44.9337 9.58209 45.3481 10.0091C45.7752 10.4236 45.9887 10.9763 45.9887 11.6796C45.9887 12.383 45.7501 12.9105 45.2728 13.3376C44.7955 13.7772 44.1549 14.041 43.3511 14.1289V15.3598H42.0574V14.1038C40.9646 13.9656 39.985 13.5637 39.1309 12.9231L40.098 11.5038C40.8139 12.0439 41.4922 12.383 42.1202 12.5086V10.5367C41.2033 10.2855 40.5125 9.97146 40.0854 9.56953ZM115.17 60.0377L116.439 55.3653L61.1614 22.7214H58.5991L4 55.3779L5.2937 60.0377H15.279V102.717H5.2937V120H115.17V102.717H104.934V60.0377H115.17ZM110.146 107.741V114.976H10.3178V107.741H110.146ZM20.3031 102.592V60.0377H27.8015V102.592H20.3031ZM40.9897 102.592V60.0377H48.4882V102.592H40.9897ZM71.4859 102.592V60.0377H78.9843V102.592H71.4859ZM92.0971 102.592V60.0377H99.5956V102.592H92.0971ZM14.3873 55.0136L59.8928 27.7957L105.976 55.0136H14.3873ZM41.2661 8.16415C41.2661 7.71198 41.5424 7.44822 42.1202 7.37286V7.38542V9.05592C41.7936 8.93032 41.5675 8.81728 41.4419 8.67912C41.3289 8.52839 41.2661 8.36511 41.2661 8.16415ZM60.7594 38.2332L60.9855 37.1279L61.4 34.9299H59.943C59.3276 35.9221 58.5363 36.7762 57.5943 37.4796C56.9914 37.9192 56.3257 38.296 55.6098 38.5849L55.2958 40.2805L55.2078 40.7578H57.1798C57.1798 40.7578 56.6523 43.1568 56.3634 44.5133C56.3457 44.6371 56.3218 44.7609 56.3004 44.8715L56.3002 44.8724L56.2892 44.9299L56.2814 44.9711L56.2755 45.0032C56.1373 45.7819 56.1247 46.4727 56.2252 47.1007C56.489 48.8591 57.6696 50.0021 59.2522 50.0021H62.857L63.2338 48.3693L63.485 47.2137H60.4831C59.1266 47.2137 59.202 46.4601 59.4657 45.1162L59.9053 42.6921L60.257 40.7327H64.7536L64.8415 40.268L65.2434 38.2332H60.7594ZM5.43183 28.8256C5.40671 28.7754 5.36903 28.6874 5.36903 28.6874V28.6749C5.34391 28.6246 5.31879 28.5618 5.30623 28.499C5.18063 28.1097 5.13039 27.6952 5.19319 27.3309L5.21831 27.1677L5.92168 23.161L6.16032 21.8296L6.52457 19.7697C6.53713 19.7446 6.53713 19.7195 6.53713 19.6944C6.58737 19.4683 6.68785 19.2422 6.82601 19.0161C6.83857 18.9659 6.86369 18.9282 6.90137 18.8779C6.91601 18.8706 6.92638 18.8548 6.93746 18.8379C6.94539 18.8257 6.95369 18.8131 6.96417 18.8026C6.97299 18.7761 6.98798 18.7559 7.00482 18.7332C7.01198 18.7235 7.01948 18.7133 7.02698 18.7021C7.03954 18.677 7.06466 18.6519 7.07722 18.6393L7.14002 18.5765L7.3661 18.3504C7.39122 18.3253 7.4289 18.2876 7.46658 18.2625C7.48542 18.2437 7.5074 18.228 7.52938 18.2123C7.55136 18.1966 7.57334 18.1809 7.59218 18.162C7.61098 18.1495 7.6329 18.1338 7.65483 18.1182L7.65486 18.1181L7.65499 18.118L7.655 18.118C7.67698 18.1023 7.69895 18.0866 7.71779 18.0741C7.85594 17.9862 7.99409 17.9234 8.13224 17.8606L8.13227 17.8606L9.7651 17.2702L11.4984 16.6548L12.8298 16.1775L14.4626 15.5872L15.3795 15.248C15.4549 15.2104 15.5428 15.1852 15.6307 15.1727C15.6558 15.1601 15.6809 15.1601 15.7186 15.1601C15.7689 15.1476 15.8065 15.1476 15.8442 15.1476H15.8442H15.9447H16.0201C16.1708 15.135 16.3341 15.1476 16.4848 15.1601L16.4848 15.1601C16.535 15.1727 16.5853 15.1852 16.6355 15.1852H16.7109L16.7408 15.193C16.7768 15.2025 16.8067 15.2104 16.8365 15.2104C17.2384 15.2983 17.6152 15.4741 17.8915 15.7002L18.1804 15.9389L19.8509 17.333L20.3784 17.7726L21.3958 18.6267L22.9407 19.9204L23.8074 20.6489C23.8199 20.6615 23.8356 20.674 23.8513 20.6866L23.8513 20.6866C23.867 20.6992 23.8827 20.7117 23.8953 20.7243L23.9958 20.8248C24.0204 20.8412 24.0397 20.863 24.0606 20.8866L24.0606 20.8866C24.0717 20.8991 24.0832 20.9122 24.0963 20.9253C24.1146 20.9436 24.1263 20.962 24.1411 20.9853C24.1465 20.9939 24.1523 21.0031 24.1591 21.0132C24.1967 21.0634 24.2219 21.1011 24.2595 21.1639C24.2847 21.2141 24.3098 21.2644 24.3475 21.3272C24.3726 21.3774 24.3977 21.4308 24.4228 21.4842C24.448 21.5376 24.4731 21.5909 24.4982 21.6412C24.5107 21.6537 24.5233 21.6789 24.5233 21.704C24.5296 21.7291 24.539 21.7511 24.5484 21.7731C24.5578 21.795 24.5673 21.817 24.5735 21.8421C24.6866 22.2315 24.7368 22.646 24.674 22.9977L24.6364 23.1735L24.3223 24.9696L24.2595 25.3088L23.9204 27.1802L23.6943 28.5116L23.3301 30.5464C23.3175 30.5715 23.3175 30.5966 23.3175 30.6217C23.305 30.6468 23.305 30.672 23.305 30.6971C23.2987 30.7159 23.2924 30.7316 23.2861 30.7473C23.2798 30.763 23.2736 30.7787 23.2673 30.7976C23.2045 31.0111 23.0914 31.2372 22.9533 31.4381C22.9392 31.4579 22.9251 31.4782 22.9109 31.4988L22.9108 31.4989L22.9108 31.4989C22.8616 31.57 22.8107 31.6435 22.7523 31.7019C22.7146 31.7521 22.677 31.7898 22.6393 31.8275C22.589 31.8903 22.5262 31.9531 22.4634 32.0033C22.4446 32.0159 22.4289 32.0285 22.4132 32.041C22.3975 32.0536 22.3818 32.0661 22.363 32.0787C22.3441 32.0913 22.3284 32.1038 22.3127 32.1164C22.297 32.1289 22.2813 32.1415 22.2625 32.1541C22.2374 32.1666 22.2154 32.1823 22.1934 32.198L22.1933 32.1981C22.1714 32.2137 22.1494 32.2294 22.1243 32.242C22.0866 32.2671 21.9987 32.3299 21.9987 32.3299C21.9108 32.3801 21.8229 32.4178 21.7224 32.4555L19.9388 33.1086L18.1804 33.7366L16.849 34.2265L15.2539 34.7917L14.4752 35.0806C14.4626 35.0848 14.45 35.0903 14.4375 35.0959C14.4124 35.1071 14.3872 35.1183 14.3621 35.1183C14.337 35.1308 14.3244 35.1308 14.2993 35.1308C14.2616 35.1559 14.2114 35.1685 14.1737 35.1685C14.1235 35.1811 14.0732 35.1811 14.023 35.1811H13.9853H13.8346H13.709H13.4955H13.4829H13.3573C13.2819 35.1685 13.2191 35.1559 13.1563 35.1434C13.0559 35.1308 12.9428 35.1057 12.8423 35.068C12.5158 34.9675 12.2143 34.8294 11.9882 34.6284L11.511 34.2265L9.92838 32.9202L9.40085 32.4806L8.37092 31.6391L6.82601 30.3454L6.05984 29.7048C6.0096 29.6671 5.97192 29.6295 5.93424 29.5918C5.92629 29.5838 5.91707 29.5759 5.9074 29.5675C5.88652 29.5495 5.86349 29.5296 5.84632 29.5039C5.79609 29.4285 5.74585 29.3657 5.69562 29.3029L5.6956 29.3029C5.67048 29.2527 5.64536 29.215 5.62025 29.1773L5.62024 29.1773C5.60768 29.1522 5.59199 29.1271 5.57629 29.102L5.57628 29.1019C5.56058 29.0768 5.54488 29.0517 5.53231 29.0266C5.51975 29.0014 5.50719 28.9795 5.49463 28.9575C5.48207 28.9355 5.46951 28.9135 5.45695 28.8884C5.44439 28.8633 5.43183 28.8382 5.43183 28.8256ZM17.4645 16.1901C17.3138 16.0519 17.0877 15.9514 16.849 15.8761L16.8365 15.8635V23.1484H23.9707L24.0209 22.8595C24.0837 22.5455 24.0083 22.1687 23.8702 21.817H21.019L22.476 20.36L20.9311 19.0663L18.1804 21.817V19.9456L19.9012 18.2123L19.3736 17.7852L18.1804 18.9784V16.7804L17.4645 16.1901ZM23.2673 27.1677H16.849V33.498L18.1804 33.0207V31.3376L19.4113 32.5811L21.4963 31.8275L18.1804 28.499H20.0519L22.4886 30.9357C22.589 30.7473 22.6518 30.5715 22.6895 30.4082L22.7272 30.2072L21.019 28.499H23.0286L23.2673 27.1677ZM8.6598 21.817H6.83857V21.8296L6.59993 23.161H12.8172V16.8683L11.4858 17.3456V18.9784L10.2801 17.7726L8.35836 18.4635L8.20763 18.5388L11.4984 21.817H9.61437L7.3033 19.506C7.2405 19.6441 7.20282 19.7697 7.1777 19.8828L7.1149 20.2721L8.6598 21.817ZM12.8423 27.1677H5.89656V27.1802L5.84632 27.4565C5.79608 27.758 5.87144 28.1599 6.02216 28.5116H8.6598L7.3033 29.8681L8.8482 31.1618L11.4984 28.5116V30.3956L9.87814 32.0159L10.4057 32.4555L11.511 31.3502V33.3724L12.4153 34.126C12.5283 34.2139 12.6665 34.3018 12.8423 34.3647V27.1677ZM100.563 33.0835L102.422 34.641C102.849 34.9927 103.527 35.2062 104.155 35.2062C104.431 35.2062 104.695 35.1685 104.921 35.0806L109.945 33.2719L112.181 32.4681C112.934 32.1918 113.675 31.3251 113.814 30.5464L115.145 22.9852C115.283 22.1939 114.894 21.1262 114.278 20.6113L109.958 17.0065L108.363 15.6751C107.935 15.3109 107.257 15.1099 106.629 15.1099C106.353 15.1099 106.089 15.1476 105.863 15.2355L100.575 17.1321L98.6033 17.848C97.8496 18.1244 97.1086 18.991 96.9704 19.7697L95.6391 27.331C95.5009 28.1223 95.8903 29.1773 96.5057 29.6923L100.575 33.0835H100.563ZM100.563 17.848L106.077 15.8635C106.227 15.8133 106.416 15.7756 106.617 15.7756C107.106 15.7756 107.621 15.9389 107.91 16.1775L109.945 17.8732V32.556L104.695 34.4526C104.544 34.5028 104.356 34.5405 104.155 34.5405C103.665 34.5405 103.15 34.3772 102.849 34.1386L100.563 32.2295V17.8606V17.848ZM104.783 27.5068H102.899L103.401 26.5396L101.517 25.6227L102.447 25.158V24.2286L104.331 25.158L103.364 23.274H104.331L105.248 21.8924L106.165 23.3117H107.132L106.165 25.158L108.061 24.2286V25.158L108.978 25.6227L107.132 26.5396L107.596 27.5068H105.712V28.8884H104.783V27.5068ZM43.9665 11.6182C44.1047 11.7438 44.1675 11.9196 44.1675 12.1331C44.1675 12.5853 43.8786 12.8616 43.2882 12.9495V11.2162C43.6148 11.3418 43.8409 11.48 43.9665 11.6182Z" fill="url(#paint0_linear_8342_21632)"/>
</g>
<defs>
<linearGradient id="paint0_linear_8342_21632" x1="116.439" y1="-7.15256e-06" x2="-16.7987" y2="31.2105" gradientUnits="userSpaceOnUse">
<stop stop-color="#37AEFF"/>
<stop offset="1" stop-color="#5533FF"/>
</linearGradient>
<clipPath id="clip0_8342_21632">
<rect width="120" height="120" fill="white"/>
</clipPath>
</defs>
</svg>
