<svg width="483" height="65" viewBox="0 0 483 65" fill="none" xmlns="http://www.w3.org/2000/svg">
<g clip-path="url(#clip0_5631_12268)">
<path d="M62.2603 25.8029L58.016 49.8719C57.5744 52.3804 55.2372 55.1364 52.8276 56.0081L29.6912 64.3407C27.2817 65.2162 23.6997 64.5805 21.7355 62.9437L2.86627 47.2035C0.890654 45.559 -0.35029 42.1712 0.0874663 39.6627L4.33561 15.5822C4.77717 13.0737 7.11441 10.3177 9.52397 9.44603L32.6451 1.11724C35.0547 0.25695 38.6367 0.892648 40.6047 2.52567L59.4777 18.2468C61.4457 19.9027 62.6943 23.2982 62.2603 25.8029Z" fill="#14C8FF"/>
<path d="M29.4095 37.5008C28.8994 40.1387 28.7586 41.6233 31.427 41.6233H37.4109L36.1624 47.0287H28.9832C24.7427 47.0287 21.9905 42.9899 23.0906 37.3067C23.5246 35.0722 24.8683 29.0159 24.8683 29.0159H20.9703L21.7888 24.802C25.3356 23.3928 28.3475 20.9005 30.3954 17.6799H33.2694L32.0018 24.1207H40.8902L39.9233 28.9702H31.0349L29.4095 37.5008Z" fill="white"/>
<path d="M260.187 25.2361C258.444 23.4926 255.87 22.6095 252.544 22.6095C249.923 22.5839 247.327 23.1199 244.93 24.1816C244.584 24.3297 244.289 24.5758 244.082 24.8897C243.874 25.2036 243.763 25.5715 243.762 25.9479C243.779 26.4414 243.986 26.909 244.342 27.2521C244.697 27.5951 245.171 27.7868 245.665 27.7865C245.927 27.7786 246.185 27.7218 246.426 27.619C248.235 26.7962 250.199 26.3717 252.186 26.3742C257.492 26.3742 258.607 29.5527 258.607 32.2173V32.5142C256.443 31.9237 254.208 31.6367 251.965 31.6616C245.711 31.6616 241.828 34.6307 241.828 39.4156V39.5031C241.828 44.4212 246.305 46.9945 250.732 46.9945C254.584 46.9945 257.077 45.3614 258.607 43.7208V44.7562C258.604 45.0197 258.653 45.2813 258.754 45.525C258.854 45.7687 259.003 45.9895 259.191 46.1739C259.38 46.3583 259.604 46.5025 259.849 46.5977C260.095 46.693 260.358 46.7373 260.621 46.728C260.89 46.7312 261.157 46.6799 261.406 46.5769C261.655 46.474 261.88 46.3217 262.069 46.1292C262.257 45.9367 262.404 45.708 262.501 45.4569C262.599 45.2059 262.644 44.9377 262.635 44.6686V32.1754C262.654 29.1987 261.813 26.8653 260.187 25.2361ZM251.398 43.5381C248.813 43.5381 246.038 42.2362 246.038 39.3509V39.2633C246.038 36.5454 248.387 34.92 252.323 34.92C254.463 34.9199 256.594 35.2158 258.653 35.7993V37.7026C258.653 41.0448 255.535 43.5381 251.398 43.5381Z" fill="white"/>
<path d="M285.558 39.6363V39.7239C285.558 44.0443 282.132 46.9564 277.05 46.9564C273.821 46.9015 270.683 45.8762 268.044 44.0139C267.825 43.8553 267.644 43.6515 267.511 43.4162C267.349 43.1264 267.264 42.8002 267.264 42.4684C267.271 41.975 267.473 41.5045 267.826 41.16C268.179 40.8154 268.654 40.6247 269.148 40.6298C269.536 40.6225 269.915 40.7458 270.225 40.98C272.509 42.5293 274.873 43.3249 277.229 43.3249C279.825 43.3249 281.572 42.023 281.572 40.0855V39.9979C281.572 38.0147 279.224 37.2039 276.152 36.3436C272.848 35.4072 268.326 34.1206 268.326 29.5336V29.4423C268.326 25.3731 271.675 22.5295 276.475 22.5295C279.088 22.5837 281.65 23.2652 283.944 24.5166C284.252 24.6896 284.509 24.9394 284.691 25.2417C284.873 25.5439 284.974 25.8882 284.983 26.241C284.976 26.7343 284.774 27.2048 284.421 27.5494C284.068 27.894 283.592 28.0846 283.099 28.0795C282.779 28.0773 282.465 28.0031 282.178 27.8626C280.427 26.8026 278.433 26.2089 276.388 26.1382C273.975 26.1382 272.353 27.3144 272.353 29.0692V29.1568C272.353 31.0182 275.018 31.8214 277.869 32.6931L277.956 32.7197C280.982 33.6447 285.558 35.0151 285.558 39.6363Z" fill="white"/>
<path d="M307.103 39.6363V39.7239C307.103 44.0443 303.677 46.9564 298.599 46.9564C295.369 46.9015 292.229 45.8763 289.589 44.0139C289.372 43.8551 289.191 43.6512 289.06 43.4162C288.896 43.1273 288.811 42.8005 288.813 42.4684C288.82 41.9757 289.021 41.5058 289.374 41.1613C289.726 40.8168 290.2 40.6257 290.693 40.6298C291.081 40.6213 291.461 40.7448 291.77 40.98C294.054 42.5293 296.422 43.3249 298.774 43.3249C301.374 43.3249 303.118 42.023 303.118 40.0855V39.9979C303.118 38.0147 300.773 37.2039 297.701 36.3436C294.397 35.4072 289.871 34.1206 289.871 29.5336V29.4423C289.871 25.3731 293.224 22.5295 298.025 22.5295C300.636 22.5833 303.197 23.2648 305.489 24.5166C305.797 24.689 306.055 24.9387 306.237 25.2411C306.42 25.5434 306.52 25.888 306.528 26.241C306.522 26.734 306.321 27.2045 305.969 27.5492C305.616 27.8939 305.141 28.0846 304.648 28.0795C304.328 28.0783 304.013 28.0041 303.727 27.8626C301.976 26.8026 299.983 26.2089 297.937 26.1382C295.524 26.1382 293.902 27.3144 293.902 29.0692V29.1568C293.902 31.0182 296.567 31.8214 299.418 32.6931L299.505 32.7197C302.532 33.6447 307.103 35.0151 307.103 39.6363Z" fill="white"/>
<path d="M323.559 22.4345C321.939 22.4182 320.332 22.7253 318.832 23.3378C317.332 23.9503 315.969 24.856 314.823 26.0016C313.678 27.1473 312.772 28.5101 312.16 30.0101C311.547 31.5101 311.24 33.1172 311.256 34.7374V34.8287C311.268 38.0856 312.574 41.2043 314.885 43.4986C317.197 45.793 320.325 47.0752 323.582 47.0631C326.839 47.0509 329.957 45.7456 332.252 43.434C334.546 41.1225 335.828 37.9942 335.816 34.7374V34.6498C335.831 33.0382 335.523 31.4399 334.912 29.9486C334.3 28.4574 333.397 27.1032 332.256 25.9655C331.114 24.8278 329.757 23.9295 328.263 23.3231C326.77 22.7168 325.171 22.4147 323.559 22.4345ZM323.559 43.2337C319.041 43.2337 315.504 39.5032 315.504 34.7374V34.6498C315.504 29.8345 318.93 26.1992 323.468 26.1992C328.005 26.1992 331.553 29.9449 331.553 34.7336V34.8249C331.553 39.6174 328.127 43.2298 323.559 43.2298V43.2337Z" fill="white"/>
<path d="M361.282 41.9318C361.279 42.4298 361.081 42.9068 360.73 43.2603C358.153 45.8374 355.332 47.0364 351.849 47.0364C348.631 47.0103 345.553 45.7112 343.289 43.4231C341.025 41.1349 339.759 38.0438 339.767 34.8249V34.7336C339.767 27.9503 345.188 22.4307 351.849 22.4307C355.067 22.3887 358.171 23.6217 360.483 25.8605C360.69 26.0458 360.855 26.2729 360.967 26.5269C361.079 26.7809 361.136 27.0559 361.134 27.3336C361.133 27.8674 360.92 28.379 360.543 28.7564C360.165 29.1338 359.654 29.3463 359.12 29.3473C358.628 29.3449 358.152 29.1728 357.772 28.86C356.269 27.4783 354.514 26.1954 351.792 26.1954C347.422 26.1954 344.004 29.9068 344.004 34.646V34.7336C344.004 39.4994 347.521 43.2299 351.998 43.2299C354.198 43.2299 356.185 42.3544 358.088 40.5653C358.246 40.3944 358.436 40.2576 358.648 40.1634C358.86 40.0691 359.09 40.0193 359.322 40.0171C359.833 40.0208 360.322 40.2223 360.688 40.5793C361.053 40.9364 361.266 41.4211 361.282 41.9318Z" fill="white"/>
<path d="M371.176 16.146V16.7246C371.176 17.9731 370.136 18.9133 368.762 18.9133C367.388 18.9133 366.395 17.9731 366.395 16.7246V16.146C366.395 14.8746 367.392 13.9534 368.762 13.9534C370.133 13.9534 371.176 14.8746 371.176 16.146Z" fill="white"/>
<path d="M370.863 24.7984V44.6269C370.873 44.9015 370.826 45.1751 370.727 45.4312C370.627 45.6873 370.477 45.9206 370.285 46.117C370.093 46.3134 369.863 46.4688 369.609 46.5738C369.355 46.6789 369.083 46.7313 368.808 46.7281C368.531 46.7312 368.256 46.6789 368 46.5744C367.743 46.47 367.51 46.3154 367.314 46.1197C367.118 45.924 366.963 45.6912 366.858 45.4349C366.753 45.1785 366.7 44.9038 366.703 44.6269V24.7984C366.691 24.5177 366.736 24.2375 366.835 23.9747C366.934 23.7118 367.085 23.4717 367.28 23.2689C367.474 23.066 367.707 22.9046 367.966 22.7943C368.224 22.684 368.502 22.6272 368.783 22.6272C369.064 22.6272 369.342 22.684 369.6 22.7943C369.859 22.9046 370.092 23.066 370.287 23.2689C370.481 23.4717 370.632 23.7118 370.731 23.9747C370.831 24.2375 370.875 24.5177 370.863 24.7984Z" fill="white"/>
<path d="M394.639 25.236C392.896 23.4926 390.326 22.6095 386.999 22.6095C384.379 22.5843 381.783 23.1204 379.386 24.1816C379.041 24.3306 378.747 24.5771 378.54 24.8909C378.333 25.2047 378.223 25.572 378.221 25.9479C378.238 26.4374 378.443 26.9017 378.793 27.2442C379.143 27.5866 379.612 27.7808 380.102 27.7864C380.364 27.7786 380.622 27.7218 380.863 27.6189C382.673 26.7958 384.638 26.3713 386.626 26.3742C391.933 26.3742 393.044 29.5527 393.044 32.2173V32.5142C390.882 31.9233 388.647 31.6363 386.406 31.6615C380.151 31.6615 376.265 34.6307 376.265 39.4155V39.5031C376.265 44.4212 380.745 46.9944 385.168 46.9944C389.021 46.9944 391.514 45.3614 393.044 43.7208V44.7562C393.041 45.0196 393.091 45.2809 393.192 45.5243C393.292 45.7678 393.441 45.9883 393.63 46.1726C393.818 46.3569 394.041 46.5011 394.287 46.5966C394.532 46.692 394.795 46.7367 395.058 46.728C395.327 46.7312 395.595 46.6798 395.844 46.5769C396.093 46.474 396.318 46.3218 396.507 46.1293C396.695 45.9369 396.843 45.7082 396.941 45.4572C397.038 45.2061 397.084 44.9379 397.075 44.6686V32.1754C397.094 29.1987 396.265 26.8652 394.639 25.236ZM385.85 43.5381C383.269 43.5381 380.49 42.2362 380.49 39.3508V39.2633C380.49 36.5454 382.839 34.92 386.779 34.92C388.919 34.9204 391.049 35.2163 393.109 35.7993V37.7026C393.109 41.0447 389.988 43.5381 385.85 43.5381Z" fill="white"/>
<path d="M416.082 44.5811C416.077 44.9525 415.958 45.3133 415.739 45.6139C415.521 45.9145 415.215 46.1402 414.864 46.2598C413.755 46.7054 412.568 46.9241 411.373 46.9031C406.969 46.9031 404.544 44.4821 404.544 40.0779V26.6825H403.071C402.575 26.67 402.104 26.4673 401.754 26.1165C401.404 25.7657 401.202 25.2937 401.19 24.7983C401.196 24.3014 401.396 23.8265 401.748 23.4751C402.099 23.1238 402.574 22.9237 403.071 22.9178H404.544V17.9122C404.538 17.638 404.588 17.3656 404.689 17.1106C404.79 16.8557 404.94 16.6235 405.132 16.4275C405.324 16.2315 405.553 16.0757 405.805 15.9692C406.058 15.8627 406.329 15.8076 406.603 15.8071C407.159 15.815 407.689 16.0395 408.082 16.4326C408.474 16.8258 408.698 17.3567 408.705 17.9122V22.9178H414.243C414.746 22.9186 415.229 23.1156 415.588 23.4668C415.948 23.818 416.156 24.2957 416.169 24.7983C416.167 25.0485 416.115 25.2959 416.017 25.5261C415.919 25.7563 415.776 25.9649 415.597 26.1399C415.418 26.3149 415.206 26.4529 414.974 26.5461C414.742 26.6392 414.493 26.6855 414.243 26.6825H408.705V39.6249C408.705 41.9545 409.805 43.0508 412.169 43.0508C412.712 43.0516 413.252 42.9773 413.775 42.83C413.927 42.7823 414.084 42.7529 414.243 42.7425C414.731 42.7435 415.198 42.9375 415.542 43.2821C415.887 43.6267 416.081 44.0937 416.082 44.5811Z" fill="white"/>
<path d="M425.956 16.146V16.7246C425.956 17.9731 424.921 18.9133 423.543 18.9133C422.165 18.9133 421.175 17.9731 421.175 16.7246V16.146C421.175 14.8746 422.172 13.9534 423.543 13.9534C424.913 13.9534 425.956 14.8746 425.956 16.146Z" fill="white"/>
<path d="M425.663 24.7984V44.6269C425.672 44.9016 425.625 45.1753 425.525 45.4315C425.425 45.6876 425.274 45.9209 425.082 46.1172C424.89 46.3135 424.659 46.4689 424.405 46.5739C424.151 46.6789 423.878 46.7313 423.604 46.7281C423.327 46.7312 423.052 46.6789 422.796 46.5744C422.54 46.4699 422.307 46.3152 422.111 46.1195C421.915 45.9237 421.761 45.6909 421.656 45.4346C421.552 45.1783 421.499 44.9037 421.502 44.6269V24.7984C421.49 24.5177 421.535 24.2375 421.634 23.9747C421.734 23.7118 421.885 23.4717 422.079 23.2689C422.274 23.066 422.507 22.9046 422.765 22.7943C423.024 22.684 423.302 22.6272 423.583 22.6272C423.864 22.6272 424.142 22.684 424.4 22.7943C424.658 22.9046 424.892 23.066 425.086 23.2689C425.281 23.4717 425.432 23.7118 425.531 23.9747C425.63 24.2375 425.675 24.5177 425.663 24.7984Z" fill="white"/>
<path d="M443.695 22.4343C442.074 22.418 440.467 22.7251 438.967 23.3376C437.467 23.9502 436.105 24.8558 434.959 26.0014C433.813 27.1471 432.908 28.5099 432.295 30.0099C431.683 31.5099 431.375 33.117 431.392 34.7372V34.8285C431.404 38.0854 432.709 41.2041 435.021 43.4984C437.332 45.7928 440.461 47.075 443.717 47.0629C446.974 47.0508 450.093 45.7454 452.387 43.4338C454.682 41.1223 455.964 37.994 455.952 34.7372V34.6496C455.967 33.0378 455.659 31.4393 455.048 29.9478C454.437 28.4563 453.534 27.102 452.392 25.9642C451.25 24.8264 449.893 23.928 448.399 23.3219C446.906 22.7157 445.306 22.414 443.695 22.4343ZM443.695 43.2335C439.18 43.2335 435.64 39.503 435.64 34.7372V34.6496C435.64 29.8343 439.066 26.199 443.607 26.199C448.148 26.199 451.704 29.9485 451.704 34.7372V34.8285C451.704 39.6172 448.259 43.2296 443.695 43.2296V43.2335Z" fill="white"/>
<path d="M482.05 31.9509V44.6268C482.062 44.9075 482.017 45.1877 481.918 45.4506C481.819 45.7134 481.667 45.9535 481.473 46.1564C481.279 46.3592 481.045 46.5206 480.787 46.6309C480.528 46.7412 480.25 46.798 479.969 46.798C479.689 46.798 479.41 46.7412 479.152 46.6309C478.894 46.5206 478.66 46.3592 478.466 46.1564C478.272 45.9535 478.12 45.7134 478.021 45.4506C477.922 45.1877 477.877 44.9075 477.889 44.6268V32.7922C477.889 28.7153 475.67 26.2829 471.955 26.2829C468.148 26.2829 465.484 29.0693 465.484 33.0586V44.6268C465.492 44.9016 465.445 45.1753 465.345 45.4314C465.246 45.6875 465.095 45.9208 464.902 46.1171C464.71 46.3135 464.48 46.4688 464.226 46.5738C463.972 46.6788 463.699 46.7313 463.424 46.7281C463.147 46.7311 462.873 46.6789 462.616 46.5743C462.36 46.4698 462.127 46.3152 461.932 46.1194C461.736 45.9237 461.581 45.6908 461.477 45.4345C461.372 45.1782 461.32 44.9036 461.323 44.6268V24.7984C461.311 24.5177 461.356 24.2375 461.455 23.9746C461.554 23.7118 461.705 23.4717 461.9 23.2688C462.094 23.066 462.327 22.9046 462.586 22.7943C462.844 22.684 463.122 22.6271 463.403 22.6271C463.684 22.6271 463.962 22.684 464.221 22.7943C464.479 22.9046 464.712 23.066 464.907 23.2688C465.101 23.4717 465.252 23.7118 465.352 23.9746C465.451 24.2375 465.496 24.5177 465.484 24.7984V26.0393C467.311 23.645 469.808 22.4307 472.918 22.4307C478.487 22.4345 482.05 26.1687 482.05 31.9509Z" fill="white"/>
<path d="M110.611 22.4116C104.258 22.4116 99.2793 27.7979 99.2793 34.6726V34.7602C99.2793 41.749 104.342 47.0173 111.053 47.0173C114.631 47.0173 117.368 45.9249 119.911 43.481C120.204 43.2388 120.414 42.9111 120.512 42.5437C120.609 42.1762 120.59 41.7875 120.455 41.4318C120.321 41.0761 120.079 40.7712 119.763 40.5599C119.447 40.3485 119.073 40.2413 118.693 40.2531C118.236 40.264 117.799 40.4413 117.463 40.7517C115.78 42.4025 113.51 43.3183 111.152 43.2983C107.136 43.2983 104.125 40.5195 103.539 36.3323H119.625C120.148 36.3323 120.649 36.1251 121.018 35.7561C121.388 35.3871 121.596 34.8866 121.597 34.3643C121.59 28.426 117.817 22.4116 110.611 22.4116ZM103.539 33.0548C104.11 28.9056 106.938 26.0469 110.532 26.0469C114.978 26.0469 116.976 29.5908 117.383 33.0548H103.539Z" fill="white"/>
<path d="M129.199 13.2681C128.647 13.2751 128.121 13.5007 127.736 13.8954C127.35 14.29 127.137 14.8215 127.143 15.3731V44.6038C127.14 44.8806 127.193 45.1552 127.297 45.4115C127.402 45.6678 127.556 45.9007 127.752 46.0964C127.948 46.2922 128.181 46.4468 128.437 46.5513C128.693 46.6558 128.968 46.7081 129.245 46.705C129.52 46.7083 129.792 46.6558 130.046 46.5508C130.3 46.4458 130.531 46.2905 130.723 46.0941C130.915 45.8978 131.066 45.6645 131.166 45.4084C131.266 45.1523 131.313 44.8786 131.304 44.6038V15.3731C131.303 14.8151 131.081 14.2803 130.686 13.8857C130.292 13.4912 129.757 13.2691 129.199 13.2681Z" fill="white"/>
<path d="M156.622 39.9828C156.389 39.9843 156.16 40.0338 155.948 40.1281C155.736 40.2224 155.545 40.3596 155.388 40.5309C153.485 42.3314 151.49 43.1955 149.298 43.1955C144.806 43.1955 141.304 39.4651 141.304 34.6992V34.6155C141.304 29.8763 144.73 26.1649 149.092 26.1649C151.818 26.1649 153.569 27.4325 155.076 28.8295C155.456 29.1423 155.932 29.3144 156.424 29.3167C156.957 29.3157 157.469 29.1033 157.846 28.7258C158.224 28.3484 158.436 27.8368 158.437 27.3031C158.439 27.0251 158.382 26.7499 158.269 26.4959C158.156 26.2419 157.99 26.0149 157.783 25.8299C155.469 23.5872 152.36 22.355 149.138 22.404C142.476 22.404 137.056 27.9197 137.056 34.7031V34.7944C137.048 38.0132 138.314 41.1044 140.578 43.3926C142.842 45.6807 145.919 46.9798 149.138 47.0059C152.617 47.0059 155.442 45.8068 158.015 43.2298C158.367 42.8768 158.566 42.3998 158.571 41.9013C158.555 41.3922 158.344 40.9087 157.981 40.5513C157.618 40.194 157.131 39.9904 156.622 39.9828Z" fill="white"/>
<path d="M173.884 22.4116C172.265 22.3953 170.658 22.7023 169.158 23.3146C167.658 23.9269 166.296 24.8321 165.15 25.9774C164.004 27.1227 163.099 28.485 162.486 29.9845C161.873 31.4841 161.566 33.0908 161.582 34.7107V34.802C161.672 38.0062 163.012 41.048 165.315 43.2781C167.618 45.5081 170.701 46.7497 173.906 46.7377C177.112 46.7258 180.186 45.4613 182.472 43.2142C184.758 40.9672 186.075 37.9155 186.142 34.7107V34.6155C186.155 33.0047 185.847 31.4074 185.235 29.9172C184.623 28.4271 183.72 27.0741 182.578 25.9375C181.436 24.8009 180.079 23.9036 178.587 23.2981C177.094 22.6927 175.495 22.3913 173.884 22.4116ZM181.878 34.802C181.878 39.5945 178.452 43.2069 173.884 43.2069C169.317 43.2069 165.834 39.4765 165.834 34.7107V34.6155C165.834 29.8002 169.259 26.1649 173.797 26.1649C178.334 26.1649 181.894 29.9182 181.894 34.7031L181.878 34.802Z" fill="white"/>
<path d="M193.888 13.9304C192.518 13.9304 191.52 14.8554 191.52 16.123V16.6978C191.52 17.9464 192.537 18.8866 193.888 18.8866C195.239 18.8866 196.301 17.9464 196.301 16.6978V16.123C196.301 14.8554 195.277 13.9304 193.888 13.9304Z" fill="white"/>
<path d="M193.888 22.6742C193.336 22.6812 192.809 22.9067 192.423 23.3013C192.037 23.6958 191.824 24.2273 191.829 24.7792V44.6039C191.826 44.881 191.878 45.1559 191.983 45.4125C192.087 45.6691 192.242 45.9021 192.439 46.0979C192.635 46.2937 192.868 46.4482 193.125 46.5525C193.382 46.6568 193.657 46.7087 193.934 46.7051C194.208 46.7084 194.481 46.6559 194.735 46.5509C194.989 46.4458 195.219 46.2904 195.411 46.094C195.603 45.8976 195.753 45.6643 195.853 45.4082C195.952 45.1521 195.998 44.8785 195.989 44.6039V24.7792C195.993 24.5021 195.941 24.2271 195.837 23.9704C195.732 23.7136 195.578 23.4803 195.382 23.2841C195.186 23.088 194.953 22.933 194.697 22.8283C194.44 22.7235 194.165 22.6711 193.888 22.6742Z" fill="white"/>
<path d="M214.729 22.4116C211.619 22.4116 209.122 23.6221 207.295 26.0165V24.7793C207.307 24.4986 207.262 24.2184 207.163 23.9556C207.064 23.6927 206.912 23.4526 206.718 23.2498C206.524 23.0469 206.29 22.8855 206.032 22.7752C205.773 22.665 205.495 22.6081 205.215 22.6081C204.934 22.6081 204.656 22.665 204.397 22.7752C204.139 22.8855 203.905 23.0469 203.711 23.2498C203.517 23.4526 203.365 23.6927 203.266 23.9556C203.167 24.2184 203.122 24.4986 203.134 24.7793V44.604C203.131 44.8808 203.183 45.1554 203.288 45.4117C203.392 45.668 203.547 45.9009 203.743 46.0966C203.939 46.2923 204.171 46.447 204.428 46.5515C204.684 46.656 204.959 46.7083 205.235 46.7052C205.51 46.7084 205.783 46.656 206.037 46.551C206.291 46.446 206.521 46.2906 206.714 46.0943C206.906 45.898 207.057 45.6647 207.157 45.4086C207.257 45.1524 207.304 44.8787 207.295 44.604V33.0358C207.295 29.0465 209.959 26.2639 213.766 26.2639C217.481 26.2639 219.7 28.6963 219.7 32.7693V44.604C219.688 44.8846 219.733 45.1649 219.832 45.4277C219.932 45.6906 220.083 45.9307 220.277 46.1335C220.472 46.3364 220.705 46.4978 220.963 46.6081C221.222 46.7183 221.5 46.7752 221.781 46.7752C222.062 46.7752 222.34 46.7183 222.598 46.6081C222.856 46.4978 223.09 46.3364 223.284 46.1335C223.479 45.9307 223.63 45.6906 223.729 45.4277C223.828 45.1649 223.873 44.8846 223.861 44.604V31.9509C223.853 26.1459 220.271 22.4116 214.729 22.4116Z" fill="white"/>
<path d="M81.4912 26.6673H84.7078V40.0588C84.7078 44.463 87.1325 46.8878 91.5368 46.8878C92.7314 46.9069 93.918 46.6883 95.0274 46.2445C95.3786 46.1236 95.6839 45.897 95.9013 45.5957C96.1187 45.2945 96.2376 44.9334 96.2417 44.562C96.2422 44.3204 96.195 44.0811 96.1028 43.8578C96.0105 43.6345 95.8751 43.4316 95.7043 43.2608C95.5335 43.09 95.3306 42.9546 95.1073 42.8623C94.884 42.7701 94.6447 42.7229 94.4031 42.7234C94.2441 42.7335 94.0868 42.7629 93.9349 42.811C93.4115 42.9618 92.8694 43.0375 92.3247 43.0355C89.9646 43.0355 88.8645 41.9469 88.8645 39.6096V26.6673H94.4031C94.6531 26.6703 94.9012 26.624 95.1332 26.5312C95.3653 26.4383 95.5768 26.3006 95.7557 26.126C95.9345 25.9514 96.0772 25.7432 96.1756 25.5134C96.2741 25.2837 96.3263 25.0368 96.3292 24.7868C96.3203 24.2809 96.1138 23.7985 95.7538 23.4428C95.3939 23.0872 94.9091 22.8864 94.4031 22.8835H88.8683V19.3891C88.8683 19.1185 88.7609 18.859 88.5695 18.6677C88.3782 18.4764 88.1187 18.3689 87.8482 18.3689C87.6256 18.3675 87.4088 18.4398 87.2315 18.5745L87.0526 18.7572L84.7154 21.064L82.8121 22.933L81.4113 24.3376" fill="white"/>
</g>
<defs>
<clipPath id="clip0_5631_12268">
<rect width="482.05" height="64" fill="white" transform="translate(0 0.736816)"/>
</clipPath>
</defs>
</svg>
