<svg width="120" height="120" viewBox="0 0 120 120" fill="none" xmlns="http://www.w3.org/2000/svg">
<g clip-path="url(#clip0_7768_1138)">
<path fill-rule="evenodd" clip-rule="evenodd" d="M74.8552 23.9346C77.1284 24.8712 79.6281 25.1127 82.0386 24.6287C84.449 24.1447 86.6618 22.9569 88.3972 21.2155C90.1326 19.474 91.3127 17.2571 91.7883 14.8451C92.2639 12.433 92.0137 9.93405 91.0692 7.66418C90.1247 5.39431 88.5285 3.45544 86.4822 2.09268C84.4359 0.729927 82.0316 0.00448462 79.573 0.00806987C77.1145 0.0116551 74.7123 0.744107 72.67 2.11282C70.6277 3.48154 69.0371 5.42506 68.0993 7.69768C67.4762 9.20736 67.1568 10.825 67.1592 12.4582C67.1616 14.0913 67.4857 15.708 68.1131 17.2159C68.7405 18.7237 69.6589 20.0932 70.8157 21.246C71.9725 22.3989 73.3452 23.3124 74.8552 23.9346ZM72.7455 9.60642C73.3027 8.247 74.2528 7.08469 75.4742 6.26819C76.6956 5.45168 78.1328 5.0181 79.602 5.02292C80.5705 5.02377 81.5299 5.21138 82.4274 5.57545C83.9904 6.24666 85.2754 7.4344 86.0672 8.93986C86.8591 10.4453 87.1098 12.1771 86.7773 13.8453C86.4449 15.5135 85.5494 17.0169 84.2409 18.1037C82.9324 19.1906 81.2903 19.795 79.5894 19.8157C78.1274 19.8099 76.6996 19.3732 75.4846 18.5602C74.2695 17.7472 73.3212 16.594 72.7581 15.2448C72.3855 14.3519 72.1925 13.3943 72.1904 12.4268C72.1882 11.4594 72.3769 10.5009 72.7455 9.60642ZM112.264 51.7119C110.753 52.3445 109.131 52.669 107.492 52.6663C104.646 52.6275 101.899 51.614 99.7092 49.7948C97.5197 47.9756 96.02 45.4608 95.4603 42.6696C94.9006 39.8785 95.3147 36.9799 96.6336 34.4571C97.9526 31.9344 100.097 29.9402 102.708 28.8069C104.219 28.1743 105.841 27.8499 107.48 27.8526C110.326 27.8913 113.073 28.9048 115.263 30.724C117.452 32.5432 118.952 35.0581 119.512 37.8492C120.072 40.6403 119.657 43.539 118.338 46.0617C117.02 48.5844 114.876 50.5787 112.264 51.7119ZM103.985 33.7084C102.476 34.5135 101.292 35.8167 100.636 37.3963C100.261 38.2954 100.068 39.26 100.068 40.2343C100.068 41.2086 100.261 42.1732 100.636 43.0723C101.292 44.6519 102.476 45.9551 103.985 46.7602C105.494 47.5653 107.236 47.8224 108.913 47.4878C110.591 47.1532 112.1 46.2475 113.185 44.925C114.27 43.6024 114.863 41.9448 114.863 40.2343C114.863 38.5238 114.27 36.8662 113.185 35.5436C112.1 34.2211 110.591 33.3154 108.913 32.9808C107.236 32.6462 105.494 32.9033 103.985 33.7084ZM105.11 67.3808C107.526 66.9036 110.029 67.1537 112.302 68.0995C113.81 68.7252 115.18 69.6418 116.334 70.7971C117.488 71.9524 118.403 73.3237 119.027 74.8326C119.651 76.3416 119.971 77.9586 119.97 79.5915C119.969 81.2243 119.646 82.8409 119.02 84.349C118.078 86.624 116.483 88.5686 114.436 89.9366C112.389 91.3045 109.981 92.0344 107.519 92.0339C105.057 92.0334 102.65 91.3025 100.604 89.9337C98.5569 88.5648 96.9622 86.6196 96.0215 84.3442C95.0807 82.0687 94.8361 79.5654 95.3185 77.1509C95.801 74.7364 96.9889 72.5192 98.7319 70.7801C100.475 69.0409 102.695 67.8579 105.11 67.3808ZM111.979 85.5564C113.059 84.7532 113.899 83.6718 114.412 82.4277C114.875 81.3018 115.055 80.0792 114.934 78.8676C114.814 77.6561 114.397 76.4927 113.721 75.4803C113.044 74.4678 112.129 73.6372 111.056 73.0618C109.983 72.4864 108.785 72.1838 107.568 72.1807C106.222 72.1773 104.901 72.5397 103.746 73.2291C102.591 73.9186 101.644 74.9091 101.009 76.0948C100.373 77.2805 100.071 78.6167 100.136 79.9606C100.201 81.3044 100.63 82.6053 101.377 83.7242C102.125 84.843 103.162 85.7376 104.378 86.3124C105.595 86.8872 106.945 87.1204 108.284 86.9873C109.622 86.8541 110.9 86.3595 111.979 85.5564ZM45.0059 23.9848C43.4954 24.6214 41.8731 24.9501 40.234 24.9518C37.1553 24.9592 34.1837 23.8217 31.8969 21.7604C29.6101 19.699 28.1714 16.8611 27.8605 13.7981C27.5495 10.7351 28.3885 7.66586 30.2144 5.18698C32.0402 2.70809 34.7225 0.996614 37.74 0.38519C40.7574 -0.226234 43.8943 0.306073 46.5412 1.87865C49.188 3.45123 51.1556 5.95174 52.0615 8.89418C52.9674 11.8366 52.747 15.0108 51.443 17.7997C50.139 20.5887 47.8447 22.7932 45.0059 23.9848ZM40.2466 5.0857C39.2671 5.08326 38.2973 5.27978 37.396 5.66335C35.6942 6.37649 34.3185 7.69699 33.5363 9.36812C32.754 11.0392 32.6212 12.9415 33.1636 14.7052C33.706 16.4688 34.8849 17.9676 36.4711 18.9103C38.0572 19.853 39.9373 20.1722 41.7457 19.8057C43.5541 19.4393 45.1615 18.4134 46.2556 16.9276C47.3496 15.4418 47.852 13.6022 47.665 11.7665C47.4781 9.9309 46.6152 8.23037 45.2441 6.9956C43.873 5.76084 42.0917 5.08008 40.2466 5.0857ZM48.5095 42.1682C49.4543 44.4369 51.0498 46.375 53.0946 47.7382C55.1394 49.1015 57.5421 49.8287 59.9997 49.8283C61.6379 49.831 63.2603 49.5065 64.7715 48.8739C67.3829 47.7407 69.5269 45.7464 70.8458 43.2237C72.1647 40.701 72.5789 37.8023 72.0192 35.0112C71.4595 32.2201 69.9598 29.7052 67.7702 27.886C65.5806 26.0668 62.8335 25.0533 59.9871 25.0146C58.3488 25.0119 56.7265 25.3364 55.2152 25.9689C52.1861 27.2379 49.7815 29.6528 48.5254 32.6872C47.2693 35.7216 47.2636 39.1296 48.5095 42.1682ZM57.1491 30.5399C58.5041 29.9738 59.9966 29.8225 61.4377 30.1051C62.8787 30.3876 64.2036 31.0913 65.2445 32.1271C66.2855 33.1629 66.9957 34.4842 67.2854 35.9239C67.5751 37.3635 67.4312 38.8567 66.8719 40.2145C66.3126 41.5724 65.363 42.7337 64.1434 43.5517C62.9238 44.3696 61.4889 44.8073 60.0205 44.8094C58.552 44.8115 57.1158 44.378 55.8939 43.5635C54.6719 42.7491 53.719 41.5905 53.1558 40.2343C52.7774 39.3361 52.5805 38.3718 52.5766 37.3971C52.5727 36.4224 52.7619 35.4565 53.1331 34.5553C53.5043 33.6541 54.0504 32.8352 54.7396 32.1461C55.4289 31.4569 56.2478 30.911 57.1491 30.5399ZM66.8832 72.6161C68.9356 73.9884 70.5345 75.939 71.4772 78.2209C72.1055 79.7289 72.4305 81.3459 72.4335 82.9796C72.4365 84.6132 72.1175 86.2314 71.4947 87.7417C70.8719 89.252 69.9576 90.6247 68.804 91.7814C67.6504 92.9381 66.2801 93.8561 64.7715 94.4829C62.4944 95.4371 59.9853 95.6938 57.5621 95.2206C55.139 94.7473 52.9108 93.5654 51.1601 91.8246C49.4093 90.0837 48.2147 87.8624 47.7277 85.442C47.2407 83.0215 47.4831 80.511 48.4243 78.2285C49.3655 75.946 50.9631 73.9943 53.0146 72.6207C55.0662 71.247 57.4793 70.5133 59.9482 70.5125C62.4172 70.5117 64.8308 71.2438 66.8832 72.6161ZM64.714 88.7203C65.6545 87.9477 66.3902 86.9553 66.856 85.8308H66.8686C67.3329 84.703 67.5122 83.4781 67.3904 82.2645C67.2687 81.0509 66.8497 79.886 66.1705 78.8729C65.4914 77.8598 64.5731 77.0297 63.4967 76.456C62.4204 75.8823 61.2193 75.5828 59.9996 75.5838C59.0199 75.5796 58.0498 75.7762 57.149 76.1615C56.0264 76.6317 55.0368 77.3712 54.2679 78.3147C53.4989 79.2583 52.9743 80.3767 52.7403 81.5712C52.5064 82.7657 52.5703 83.9994 52.9265 85.1633C53.2826 86.3272 53.9201 87.3854 54.7824 88.2444C55.6447 89.1034 56.7054 89.7367 57.8707 90.0883C59.036 90.44 60.2699 90.4991 61.4635 90.2605C62.6571 90.0219 63.7734 89.4929 64.714 88.7203ZM37.1951 72.6328C38.8334 72.6355 40.4558 72.311 41.967 71.6784C44.5784 70.5452 46.7224 68.5509 48.0413 66.0282C49.3602 63.5055 49.7743 60.6068 49.2146 57.8157C48.6549 55.0246 47.1552 52.5097 44.9657 50.6905C42.7761 48.8714 40.029 47.8579 37.1826 47.8191C35.5367 47.7875 33.9013 48.0864 32.373 48.6981C29.7236 49.8083 27.5399 51.8008 26.1923 54.3377C24.8447 56.8746 24.4162 59.7995 24.9796 62.6163C25.5429 65.4331 27.0634 67.9683 29.2831 69.7917C31.5027 71.6151 34.2849 72.6145 37.1575 72.6203L37.1951 72.6328ZM34.3446 53.3444C35.6976 52.7854 37.1859 52.6398 38.6216 52.9259C40.0573 53.212 41.3761 53.917 42.4115 54.952C43.4469 55.9869 44.1524 57.3054 44.4391 58.741C44.7258 60.1767 44.5808 61.665 44.0223 63.0183C43.4639 64.3715 42.517 65.529 41.3013 66.3446C40.0856 67.1602 38.6555 67.5974 37.1916 67.6009C35.7276 67.6044 34.2954 67.1742 33.0758 66.3645C31.8561 65.5548 30.9037 64.4019 30.3387 63.0514C29.9587 62.1517 29.7609 61.1855 29.7569 60.2089C29.7529 59.2322 29.9426 58.2644 30.3152 57.3616C30.6878 56.4588 31.2357 55.6389 31.9274 54.9493C32.619 54.2598 33.4406 53.7142 34.3446 53.3444ZM75.3766 50.2082C77.5211 48.6164 80.1208 47.7567 82.7916 47.7563C85.2506 47.7492 87.6562 48.4738 89.7023 49.8379C91.7484 51.2019 93.3425 53.1438 94.2817 55.4164C95.3085 57.8819 95.5149 60.6122 94.8704 63.204C94.2259 65.7958 92.7646 68.1115 90.7027 69.8089C88.6407 71.5062 86.0873 72.4952 83.42 72.6296C80.7527 72.764 78.1128 72.0368 75.8907 70.5553C73.6685 69.0739 71.9819 66.9168 71.08 64.403C70.1782 61.8891 70.1091 59.1518 70.8828 56.5956C71.6565 54.0394 73.232 51.7999 75.3766 50.2082ZM81.3661 67.4795C82.8072 67.7621 84.2997 67.6107 85.6547 67.0447C87.464 66.2817 88.8988 64.835 89.6466 63.0194C90.3945 61.2038 90.395 59.1662 89.648 57.3503C89.0848 55.9941 88.1319 54.8354 86.9099 54.021C85.6879 53.2066 84.2518 52.773 82.7833 52.7752C81.3148 52.7773 79.88 53.215 78.6603 54.0329C77.4407 54.8509 76.4912 56.0122 75.9319 57.37C75.3726 58.7278 75.2287 60.2211 75.5183 61.6607C75.808 63.1003 76.5183 64.4217 77.5592 65.4575C78.6002 66.4933 79.9251 67.197 81.3661 67.4795ZM79.7652 95.0481C78.131 95.0481 76.5127 95.3699 75.0029 95.9953C73.493 96.6207 72.1212 97.5374 70.9656 98.693C69.81 99.8485 68.8933 101.22 68.268 102.73C67.6426 104.24 67.3207 105.858 67.3207 107.493C67.3207 109.127 67.6426 110.745 68.268 112.255C68.8933 113.765 69.81 115.137 70.9656 116.292C72.1212 117.448 73.493 118.364 75.0029 118.99C76.5127 119.615 78.131 119.937 79.7652 119.937C81.4044 119.945 83.0293 119.633 84.5496 119.02C87.2069 117.915 89.3989 115.923 90.7525 113.383C92.106 110.843 92.5375 107.913 91.9734 105.091C91.4092 102.269 89.8844 99.7294 87.6585 97.9052C85.4326 96.0809 82.6432 95.0846 79.7652 95.0857V95.0481ZM86.6216 110.318C86.2541 111.222 85.7092 112.044 85.019 112.734C84.3288 113.424 83.5074 113.969 82.6032 114.336C81.7019 114.72 80.7321 114.917 79.7526 114.914C78.1609 114.915 76.6109 114.405 75.3314 113.458C74.0519 112.511 73.1108 111.178 72.647 109.655C72.1832 108.133 72.2212 106.501 72.7555 105.002C73.2897 103.502 74.2919 102.214 75.6141 101.328C76.9363 100.442 78.5084 100.004 80.0984 100.079C81.6884 100.155 83.2119 100.74 84.4442 101.747C85.6765 102.755 86.5522 104.132 86.942 105.675C87.3318 107.218 87.2151 108.846 86.6091 110.318H86.6216ZM37.9481 95.3711C40.3585 94.8871 42.8583 95.1286 45.1315 96.0652C46.6457 96.6819 48.0229 97.5925 49.1834 98.7442C50.3439 99.896 51.2648 101.266 51.8929 102.776C52.521 104.285 52.8439 105.904 52.843 107.54C52.842 109.175 52.5173 110.793 51.8874 112.302C50.9496 114.575 49.359 116.518 47.3167 117.887C45.2744 119.256 42.8721 119.988 40.4136 119.992C37.9551 119.995 35.5507 119.27 33.5045 117.907C31.4582 116.544 29.8619 114.605 28.9175 112.336C27.973 110.066 27.7228 107.567 28.1984 105.155C28.674 102.743 29.8541 100.526 31.5895 98.7843C33.3249 97.0429 35.5377 95.855 37.9481 95.3711ZM44.5125 113.732C45.7339 112.915 46.6839 111.753 47.2411 110.393C47.6169 109.494 47.8104 108.53 47.8104 107.555C47.8104 106.581 47.6169 105.616 47.2411 104.717C46.7731 103.59 46.0341 102.595 45.0898 101.821C44.1454 101.048 43.0247 100.519 41.8271 100.282C40.6295 100.045 39.3919 100.107 38.2241 100.463C37.0562 100.819 35.9942 101.457 35.132 102.322C34.2699 103.186 33.6343 104.25 33.2816 105.418C32.9289 106.587 32.87 107.825 33.11 109.022C33.3501 110.219 33.8817 111.338 34.6578 112.28C35.4339 113.223 36.4305 113.959 37.5592 114.424C38.4568 114.788 39.4161 114.976 40.3847 114.977C41.8539 114.982 43.2911 114.548 44.5125 113.732ZM12.4944 67.3335C10.8561 67.3308 9.2338 67.6553 7.72256 68.2879C5.07317 69.3981 2.88943 71.3906 1.54182 73.9275C0.194218 76.4643 -0.234251 79.3893 0.329109 82.2061C0.892469 85.0229 2.41296 87.5581 4.63262 89.3815C6.85229 91.2049 9.63441 92.2043 12.507 92.21C14.1453 92.2127 15.7676 91.8883 17.2789 91.2557C19.8903 90.1224 22.0342 88.1282 23.3531 85.6054C24.6721 83.0827 25.0862 80.1841 24.5265 77.3929C23.9668 74.6018 22.4671 72.0869 20.2775 70.2678C18.088 68.4486 15.3409 67.4351 12.4944 67.3963V67.3335ZM15.345 86.6219C13.992 87.1809 12.5037 87.3266 11.0679 87.0405C9.63223 86.7543 8.31344 86.0493 7.27806 85.0144C6.24268 83.9794 5.53712 82.6609 5.25043 81.2253C4.96374 79.7897 5.10878 78.3013 5.66723 76.9481C6.22569 75.5948 7.17253 74.4373 8.38824 73.6217C9.60395 72.8061 11.034 72.369 12.498 72.3654C13.9619 72.3619 15.3941 72.7921 16.6138 73.6018C17.8334 74.4115 18.7859 75.5644 19.3509 76.9149C20.1045 78.7336 20.106 80.7769 19.355 82.5967C18.604 84.4165 17.1619 85.8641 15.345 86.6219ZM14.8892 52.619C12.4736 53.0962 9.97077 52.846 7.69741 51.9003C6.18171 51.2842 4.80361 50.3729 3.64324 49.2194C2.48287 48.0659 1.56339 46.6933 0.938255 45.1813C0.313121 43.6692 -0.00519284 42.048 0.00182246 40.4119C0.00883777 38.7758 0.341042 37.1574 0.97912 35.6508C1.92084 33.3758 3.51628 31.4312 5.56354 30.0632C7.6108 28.6953 10.0179 27.9653 12.4801 27.9659C14.9423 27.9664 17.3491 28.6973 19.3958 30.0661C21.4425 31.435 23.0371 33.3802 23.9779 35.6556C24.9186 37.931 25.1633 40.4344 24.6808 42.8489C24.1983 45.2634 23.0104 47.4805 21.2674 49.2197C19.5244 50.9588 17.3047 52.1418 14.8892 52.619ZM8.30927 34.2273C7.08588 35.0459 6.13404 36.2103 5.57518 37.5721C5.11125 38.6989 4.93192 39.9227 5.05306 41.1353C5.17419 42.3478 5.59205 43.5119 6.26973 44.5247C6.94741 45.5375 7.86406 46.3679 8.93872 46.9424C10.0134 47.517 11.213 47.818 12.4316 47.8191C13.9015 47.8195 15.3382 47.3827 16.5592 46.5643C17.7801 45.7459 18.73 44.5828 19.288 43.223C19.7516 42.0971 19.931 40.8745 19.8105 39.663C19.69 38.4514 19.2732 37.2881 18.597 36.2756C17.9208 35.2631 17.0058 34.4325 15.9328 33.8571C14.8598 33.2817 13.6617 32.9791 12.4442 32.976C10.9722 32.9731 9.53267 33.4087 8.30927 34.2273Z" fill="url(#paint0_linear_7768_1138)"/>
</g>
<defs>
<linearGradient id="paint0_linear_7768_1138" x1="119.97" y1="0.00804949" x2="-21.1713" y2="35.289" gradientUnits="userSpaceOnUse">
<stop stop-color="#37AEFF"/>
<stop offset="1" stop-color="#5533FF"/>
</linearGradient>
<clipPath id="clip0_7768_1138">
<rect width="120" height="120" fill="white" transform="translate(-0.000244141)"/>
</clipPath>
</defs>
</svg>
