<svg width="32" height="32" viewBox="0 0 32 32" fill="none" xmlns="http://www.w3.org/2000/svg">
<mask id="mask0_5591_21235" style="mask-type:alpha" maskUnits="userSpaceOnUse" x="1" y="1" width="30" height="30">
<path d="M30.6842 12.75L28.6963 24.0328C28.4875 25.2088 27.3937 26.5007 26.2642 26.9093L15.4257 30.8154C14.2961 31.2258 12.617 30.9278 11.6944 30.1605L2.84202 22.782C1.91769 22.0111 1.33597 20.423 1.54118 19.2471L3.53078 7.96068C3.73777 6.78476 4.83342 5.49282 5.96295 5.08419L16.8032 1.18348C17.9328 0.774847 19.6101 1.07285 20.5326 1.83836L29.3798 9.21332C30.313 9.98418 30.8876 11.5759 30.6842 12.75Z" fill="#03CEA4"/>
</mask>
<g mask="url(#mask0_5591_21235)">
<path d="M30.6842 12.75L28.6963 24.0328C28.4875 25.2088 27.3937 26.5007 26.2642 26.9093L15.4257 30.8154C14.2961 31.2258 12.617 30.9278 11.6944 30.1605L2.84202 22.782C1.91769 22.0111 1.33597 20.423 1.54118 19.2471L3.53078 7.96068C3.73777 6.78476 4.83342 5.49282 5.96295 5.08419L16.8032 1.18348C17.9328 0.774847 19.6101 1.07285 20.5326 1.83836L29.3798 9.21332C30.313 9.98418 30.8876 11.5759 30.6842 12.75Z" fill="#496E2D"/>
<path d="M14.531 4.50291L14.7398 4.46885L14.5633 4.73492C14.9101 5.10244 14.4687 5.20745 14.2844 5.49693C14.503 5.53808 14.6564 5.70907 14.861 5.78215C15.1399 5.88148 15.5245 5.8453 15.7816 6.01771C15.8832 6.08582 15.8832 6.29158 16.045 6.35686C16.1606 6.40368 16.34 6.39233 16.4906 6.43774C16.6959 6.49947 16.8914 6.71587 17.0889 6.6513C17.3552 6.56403 17.2263 6.28661 17.2697 6.08937C17.3348 5.79421 17.8106 5.79421 18.0348 5.86729C18.1363 5.89993 18.1959 6.03403 18.287 6.07305C18.4019 6.12272 18.5196 6.08653 18.638 6.10853C18.7564 6.13052 18.7928 6.22631 18.8517 6.24759C18.982 6.29442 19.1074 6.26107 19.2328 6.28661C19.4262 6.32564 19.6581 6.43206 19.8409 6.45122C20.2227 6.49024 20.4182 6.19651 20.8449 6.2859C20.9514 6.3079 21.0396 6.41645 21.1686 6.42213C21.2856 6.4271 21.4201 6.32209 21.5006 6.36466C21.694 6.60093 21.7823 6.91027 21.7431 7.21536C21.736 7.27212 21.6569 7.57863 21.5714 7.51974L21.1146 6.84642C21.0446 6.84216 21.0845 6.95355 21.0992 6.98619C21.1623 7.1288 21.3367 7.32321 21.4236 7.47362C21.6359 7.83973 21.8201 8.22357 22.0457 8.58188C22.08 8.63651 22.1634 8.68192 22.183 8.72662C22.2272 8.82737 22.1732 8.9416 22.2398 9.05938C22.2951 9.15729 22.4899 9.23746 22.5705 9.32757C22.8584 9.64827 22.7365 10.1144 22.9215 10.4266C22.9985 10.5572 23.2388 10.6629 23.3229 10.775C23.4714 10.9729 23.573 11.515 23.7167 11.6619C23.8035 11.7505 24.0803 11.8328 24.1952 11.9045C24.3997 12.0315 24.5623 12.2557 24.7409 12.4161C24.8124 12.4799 24.956 12.5367 25.0058 12.6098C25.1158 12.7729 24.839 12.8985 24.8797 12.9489C25.1207 12.9652 25.3182 13.408 25.5396 13.4009C25.6608 13.3966 25.7309 13.2632 25.8332 13.2398C25.9586 13.2114 26.0462 13.2732 26.1337 13.2611C26.1947 13.2526 26.2921 13.1724 26.3762 13.1511C26.6445 13.083 26.917 13.0596 27.1903 12.9823C27.3262 12.9439 27.4334 12.8354 27.5903 12.8829C27.6092 12.895 27.6723 13.2746 27.6667 13.32C27.6569 13.3938 27.5826 13.4179 27.5672 13.4704C27.5441 13.5499 27.563 13.6549 27.5364 13.7585C27.4964 13.9153 27.3332 14.1068 27.2631 14.2622C27.0095 14.8227 26.9254 15.159 26.51 15.6635C26.0742 16.1935 25.445 16.5071 24.9834 16.991C24.8509 17.13 24.7557 17.3159 24.6351 17.4543C24.5146 17.5926 24.3199 17.7168 24.2134 17.8431C24.1538 17.9133 23.854 18.5299 23.7944 18.6605C23.7636 18.7279 23.6648 19.0102 23.6704 19.067C23.6809 19.1685 23.8231 19.2032 23.8456 19.3168C23.882 19.5055 23.7734 19.7247 23.8189 19.9468C23.8274 19.9872 23.9394 20.2966 23.9591 20.337C24.0123 20.4456 24.1952 20.5336 24.1945 20.6641C24.1945 20.7287 24.0775 20.8834 24.0607 21.0224C24.0137 21.4112 24.1671 21.9072 23.9941 22.2321C23.7286 22.7302 23.517 22.7047 23.0763 22.8991C22.7722 23.0332 22.4654 23.4404 22.2083 23.6625C22.1529 23.71 21.9953 23.764 21.9701 23.8037C21.9154 23.8903 22.1886 24.3947 22.2013 24.5671C22.2104 24.6977 22.1291 25.1014 22.0772 25.2227C21.9441 25.5342 21.4523 25.5023 21.2344 25.7194L21.2183 25.7719C21.2197 25.818 21.2722 25.852 21.2821 25.8889C21.3024 25.9656 21.0712 26.6176 21.0095 26.6957C20.9395 26.7843 20.8372 26.8 20.7615 26.8702C20.6445 26.9795 20.5429 27.2136 20.4308 27.3512C20.3075 27.5017 19.4626 28.3069 19.3372 28.3367C19.2048 28.368 18.7143 28.5042 18.6394 28.5113C18.5329 28.5219 18.3402 28.4354 18.1539 28.451C17.903 28.4723 17.3965 28.6929 17.1751 28.6638C17.1415 28.6596 16.9775 28.5631 16.9474 28.5368C16.9173 28.5106 16.6055 28.1047 16.595 28.0778C16.5579 27.9877 16.7127 28.0508 16.7547 27.9919C16.7828 27.9522 16.7723 27.8848 16.7625 27.838C16.7309 27.6826 16.2524 26.8099 16.1382 26.6595C15.9967 26.4736 15.8706 26.4346 15.7718 26.1791C15.5525 25.6122 15.624 24.9169 15.3269 24.3592C15.1406 24.0109 14.5682 23.2659 14.5324 22.9296C14.5058 22.6791 14.6971 21.7121 14.8148 21.485C14.9584 21.2076 15.2211 21.121 15.1924 20.7024C15.1777 20.4924 14.9269 20.2462 14.9486 20.027C14.9542 19.9674 15.0067 19.9248 15.0018 19.8609C14.9857 19.6445 14.4967 18.5448 14.3517 18.3575C14.1282 18.068 13.5922 17.6948 13.5187 17.3195C13.4948 17.1989 13.6917 16.9009 13.7155 16.7157C13.7288 16.6135 13.6868 16.5475 13.6938 16.4518C13.7057 16.2879 13.8556 16.0041 13.8549 15.8664C13.8542 15.7288 13.4514 15.4095 13.3547 15.2896C13.2069 15.5287 13.0492 15.3627 12.9343 15.3733C12.8993 15.3761 12.8405 15.4506 12.7571 15.4648C12.212 15.5556 12.4972 14.9504 12.0607 14.7901C11.8848 14.7255 11.2508 14.7901 11.0504 14.8362C10.6728 14.9228 10.1109 15.3329 9.7487 15.286C9.20363 15.2158 9.02568 15.1072 8.43997 15.2789C8.31526 15.3158 8.18705 15.4173 8.06024 15.4294C7.62797 15.4705 7.18238 14.9029 6.87272 14.6517C6.70807 14.5176 6.21975 14.2459 6.17071 14.0855C6.14269 13.9933 6.1637 13.894 6.14058 13.7968C6.11046 13.6698 5.84913 13.3356 5.75035 13.2341C5.6943 13.1767 5.60462 13.1696 5.56329 13.1043C5.51705 13.0312 5.53947 12.917 5.50934 12.8751C5.47151 12.8212 5.24241 12.868 5.14432 12.6772C5.02102 12.4366 5.3524 12.072 5 11.83V11.7775C5.06446 11.7775 5.13452 11.7477 5.18356 11.7073C5.29706 11.6129 5.5815 10.7487 5.59271 10.5841C5.60182 10.4536 5.53316 10.3464 5.54367 10.2471C5.55488 10.1357 5.67188 10.0293 5.66487 9.91788C5.65296 9.71922 5.37622 9.74263 5.54087 9.39852C5.59972 9.27578 5.71392 9.21689 5.78538 9.11472C6.14199 8.606 6.45095 8.17817 6.89163 7.75175C6.99813 7.64816 7.14105 7.42254 7.24404 7.36365C7.48505 7.226 7.73656 7.21891 8.0091 7.00322C8.39303 6.69955 8.25221 6.62008 8.38953 6.25327C8.41545 6.18515 8.73703 5.76867 8.80008 5.7112C8.99135 5.53879 9.23936 5.54021 9.43063 5.39192C9.59036 5.26776 9.79774 4.79948 9.92315 4.78742C10.0486 4.77536 10.0507 4.89243 10.1158 4.94706C10.2622 5.0691 10.4703 4.96693 10.6174 4.97757C10.7176 4.98466 10.7898 5.05207 10.9369 5.03859C11.138 5.02085 11.7013 4.64552 11.9913 4.57953C12.6324 4.43338 13.34 4.51355 13.9839 4.4724C14.1632 4.46105 14.475 4.14531 14.5289 4.50433L14.531 4.50291Z" fill="#6DA544"/>
<path d="M26.567 20.145H24.6728L23.9417 18.129H20.8513L20.1424 20.145H18.2593L21.3497 11.8816H23.4322L26.567 20.145ZM21.3497 16.6447H23.4322L22.391 13.7647L21.3497 16.6447Z" fill="white"/>
<path d="M13.1304 20.145V11.8816H18.1925V13.5321H14.9359V15.6034H17.9931V17.1542H14.9359V20.145H13.1304Z" fill="white"/>
<path d="M11.747 19.7574C11.1488 20.0786 10.4288 20.3334 9.47619 20.3334C7.18327 20.3334 5.22266 18.6164 5.22266 16.0134C5.22266 13.4103 7.18327 11.6934 9.47619 11.6934C10.4288 11.6934 11.1599 11.9481 11.747 12.2583V14.0527C11.0823 13.6097 10.4842 13.366 9.6645 13.366C8.25773 13.366 7.05035 14.4072 7.05035 16.0134C7.05035 17.6084 8.25773 18.6718 9.6645 18.6718C10.4842 18.6718 11.0823 18.3949 11.747 17.9407V19.7574Z" fill="white"/>
</g>
</svg>
