<svg width="120" height="120" viewBox="0 0 120 120" fill="none" xmlns="http://www.w3.org/2000/svg">
<path d="M119.45 33.725L106.95 25.85L103.862 27.775C102.018 25.2264 99.9519 22.8462 97.6875 20.6625C96.0244 19.0621 94.2626 17.5675 92.4125 16.1875V7.8625L79.9125 0L69.55 6.525C63.2839 5.49018 56.8833 5.58331 50.65 6.8L39.8625 0L27.3625 7.8625V17.775C25.7263 19.0988 24.1733 20.5224 22.7125 22.0375C20.6756 24.145 18.8191 26.4196 17.1625 28.8375L12.5 25.85L0 33.725V48.3375L8.1375 53.225C7.63699 57.8792 7.76311 62.5794 8.5125 67.2L0 72.5625V87.175L12.5 94.675L18.675 90.925C20.3057 93.0522 22.0941 95.0536 24.025 96.9125C25.1 97.95 26.2125 98.9375 27.3625 99.8625V112.488L39.8625 119.988L52.3625 112.488V111.163C57.3237 111.971 62.3751 112.063 67.3625 111.438V112.488L79.8625 119.988L92.3625 112.488V101.45C94.7144 99.7061 96.9178 97.7703 98.95 95.6625C100.113 94.4692 101.214 93.2176 102.25 91.9125L106.9 94.7125L119.4 87.2125V72.5625L113 68.5C114.001 63.0392 114.149 57.4561 113.438 51.95L119.45 48.3375V33.725ZM102.363 34.65L106.6 31.9875L106.95 31.7625L112.363 35.175L109.137 36.875L106.9 38.05L103.287 36.3125L101.25 35.3375L102.363 34.65ZM104.45 42.4375V48.525L99.45 45.5125V40.025L104.45 42.4375ZM76.4 8.125L79.9125 5.9125L85.3375 9.3125L82.925 10.5625L79.8625 12.2L74.225 9.4875L76.4 8.125ZM87.4125 13.8625V19.6625L82.4125 22.6625V16.525L83 16.2L87.4125 13.8625ZM72.4125 14.1625L77.4125 16.575V22.6625L72.4125 19.6625V14.1625ZM39.9125 5.9125L44.025 8.525L45.275 9.3125L39.8 12.2L37.6375 11.15L34.175 9.4875L39.9125 5.9125ZM47.4125 13.8625V19.6625L42.4125 22.6625V16.525L47.4125 13.8625ZM32.4125 14.1L37.4125 16.5125V22.6L32.775 19.8125L32.4125 19.6V14.1ZM12.5 31.7625L14.525 33.0125L17.9125 35.15L12.5 38.0625L12.125 37.9L6.8125 35.4L12.5 31.7625ZM20 39.725V45.5125L15 48.525V42.3625L15.9375 41.8625L20 39.725ZM5 45.5125V40.025L10 42.4375V48.525L8.975 47.9L5 45.5125ZM10 87.3625L5 84.35V78.85L10 81.2625V87.3625ZM12.5 76.8875L10.7625 76.05L6.8125 74.1875L9.6 72.425L12.5 70.6L14.6875 71.975L17.9125 74.025L15.7125 75.175L12.5 76.8875ZM20.0625 84.3875L15.9125 86.8875L15.0625 87.4V81.2L17.725 79.7875L20.0625 78.5375V84.3875ZM37.3625 112.663L32.3625 109.663V104.163L37.3625 106.575V112.663ZM39.8 102.2L34.175 99.4875L34.725 99.1375L39.8625 95.9125L45.2875 99.3125L40 102.1L39.8 102.2ZM47.3625 109.7L46.85 110.013L42.3625 112.7V106.525L46.1125 104.563L47.3625 103.888V109.7ZM77.3625 112.7L73.5125 110.275L72.4125 109.613V104.113L74.15 104.95L77.4125 106.525L77.3625 112.7ZM79.8625 102.238L74.225 99.525L79.9125 95.95L85.3375 99.35L79.8625 102.238ZM87.3625 109.738L82.3625 112.738V106.525L87.3625 103.875V109.738ZM97.925 89.375C97.1125 90.3625 96.25 91.325 95.35 92.2625C93.815 93.8598 92.1692 95.3468 90.425 96.7125L79.8625 90.075L67.3625 97.9375V106.488C65.1871 106.778 62.9948 106.925 60.8 106.925C57.9542 106.928 55.1137 106.677 52.3125 106.175V97.8625L39.8125 90L30.35 95.95C29.35 95.15 28.3875 94.275 27.45 93.375C25.8385 91.8122 24.335 90.1417 22.95 88.375L24.95 87.125V72.5625L13.2375 65.1875C12.811 61.9978 12.7022 58.7737 12.9125 55.5625L25 48.3375V33.725L21.4 31.525C22.8704 29.3938 24.5134 27.3871 26.3125 25.525C27.0625 24.75 27.825 24.0125 28.6125 23.3L39.8625 30.0625L52.3625 22.5625V11.525C55.169 11.0329 58.0131 10.7861 60.8625 10.7875C63.0536 10.7859 65.2422 10.9363 67.4125 11.2375V22.4875L79.9125 29.9875L92.325 22.4875C92.975 23.05 93.575 23.625 94.225 24.225C96.1942 26.1335 98.0005 28.2032 99.625 30.4125L94.45 33.675V48.3375L106.95 55.8375L108.7 54.7875C108.99 58.384 108.885 62.0014 108.387 65.575L106.95 64.675L94.45 72.55V87.175L97.925 89.375ZM104.4 87.4375L100.95 85.275L99.45 84.375V78.875L103.55 80.85L104.45 81.2875L104.4 87.4375ZM106.9 76.9625L105.65 76.3375L101.25 74.175L106.938 70.6L107.325 70.85L111.775 73.65L112.35 74.0125L111.538 74.4375L106.9 76.9625ZM114.4 78.6375V84.425L109.4 87.4375V81.2L114.4 78.6375ZM114.4 45.5875L112.438 46.8375L109.45 48.525V42.3625L111 41.525L114.45 39.7125L114.4 45.5875Z" fill="url(#paint0_linear_7768_111)"/>
<path d="M75.6874 54.1625C75.4442 53.4674 75.0368 52.8414 74.4999 52.3375L66.4749 45.575L65.8499 45.0375L64.5999 44.025C64.0145 43.585 63.3335 43.2895 62.6124 43.1625C62.3895 43.1231 62.1637 43.1022 61.9374 43.1C61.6755 43.0751 61.4118 43.0751 61.1499 43.1C60.9118 43.1246 60.6771 43.1749 60.4499 43.25L48.3749 47.65C47.7033 47.9413 47.1093 48.3859 46.6404 48.9481C46.1715 49.5103 45.8409 50.1745 45.6749 50.8875L43.5124 63.6625C43.4389 64.2346 43.4728 64.8153 43.6124 65.375C43.6124 65.5375 43.6999 65.675 43.7499 65.825C43.9354 66.3464 44.215 66.8294 44.5749 67.25C44.6899 67.3923 44.8153 67.526 44.9499 67.65L46.8499 69.25L48.4874 70.6375L54.7999 75.9625C55.3855 76.4067 56.0678 76.7063 56.7912 76.8366C57.5146 76.9669 58.2585 76.9244 58.9624 76.7125L71.0249 72.3C71.6952 72.0274 72.2908 71.5989 72.7624 71.05C73.2479 70.4631 73.5865 69.7689 73.7499 69.025L75.9499 56.2875C76.0257 55.5684 75.9359 54.8415 75.6874 54.1625ZM64.3249 57.5625L64.2249 58.05H59.5999L59.2249 60.075L58.7749 62.575C58.4999 63.9625 58.4249 64.75 59.8249 64.75H62.9249L62.6624 66L62.2749 67.6875H58.5249C57.724 67.67 56.9591 67.3516 56.3823 66.7957C55.8056 66.2398 55.4593 65.4871 55.4124 64.6875C55.2826 63.9767 55.2826 63.2483 55.4124 62.5375C55.4124 62.3875 55.4124 62.2125 55.5124 62.025C55.7999 60.625 56.3374 58.15 56.3374 58.15H54.3874L54.4749 57.6625L54.7999 55.9125C55.5286 55.6164 56.2173 55.2301 56.8499 54.7625C57.8166 54.0483 58.6394 53.1576 59.2749 52.1375H60.7749L60.3374 54.4125L60.1124 55.55H64.7374L64.3249 57.5625Z" fill="#14C8FF"/>
<path d="M64.7377 55.4749L64.3252 57.5625L64.2252 58.0499H59.6002L59.2252 60.0749L58.7752 62.5749C58.5002 63.9624 58.4252 64.7499 59.8252 64.7499H62.9252L62.6627 65.9999L62.2752 67.6874H58.5252C57.7243 67.67 56.9594 67.3516 56.3827 66.7957C55.8059 66.2398 55.4596 65.4871 55.4127 64.6874C55.283 63.9766 55.283 63.2482 55.4127 62.5374C55.4127 62.3874 55.4127 62.2124 55.5127 62.0249C55.8002 60.6249 56.3377 58.1499 56.3377 58.1499H54.3877L54.4752 57.6624L54.8002 55.9124C55.529 55.6164 56.2177 55.23 56.8502 54.7624C57.8169 54.0483 58.6397 53.1576 59.2752 52.1375H60.7752L60.3377 54.4125L60.1127 55.5499L64.7377 55.4749Z" fill="white"/>
<defs>
<linearGradient id="paint0_linear_7768_111" x1="119.45" y1="-7.15181e-06" x2="-21.1533" y2="34.9934" gradientUnits="userSpaceOnUse">
<stop stop-color="#37AEFF"/>
<stop offset="1" stop-color="#5533FF"/>
</linearGradient>
</defs>
</svg>
