<svg width="483" height="90" viewBox="0 0 483 90" fill="none" xmlns="http://www.w3.org/2000/svg">
<path d="M86.9451 35.0088L81.018 68.6204C80.4014 72.1235 77.1375 75.9721 73.7726 77.1894L41.4634 88.8256C38.0985 90.0482 33.0964 89.1605 30.3534 86.8747L4.00317 64.894C1.24428 62.5976 -0.488658 57.8666 0.122655 54.3635L6.05505 20.7359C6.67168 17.2328 9.93557 13.3842 13.3004 12.1669L45.5884 0.536018C48.9533 -0.665346 53.9555 0.222387 56.7037 2.50285L83.0593 24.457C85.8075 26.7693 87.5511 31.511 86.9451 35.0088Z" fill="#14C8FF"/>
<path d="M41.07 51.3447C40.3577 55.0286 40.161 57.1017 43.8873 57.1017H52.2437L50.5002 64.6501H40.4746C34.5528 64.6501 30.7095 59.0101 32.2458 51.0736C32.8518 47.9533 34.7283 39.4959 34.7283 39.4959H29.2849L30.4278 33.6113C35.3809 31.6434 39.5868 28.1629 42.4468 23.6655H46.4602L44.69 32.6598H57.1023L55.7521 39.4321H43.3398L41.07 51.3447Z" fill="white"/>
<path d="M358.095 17.3354C353.411 17.3354 349.589 19.2969 346.4 23.3263V7.50126C346.417 7.10931 346.354 6.71801 346.216 6.35094C346.077 5.98386 345.866 5.64859 345.594 5.36532C345.323 5.08204 344.997 4.85662 344.636 4.70262C344.275 4.54863 343.887 4.46924 343.495 4.46924C343.103 4.46924 342.714 4.54863 342.354 4.70262C341.993 4.85662 341.667 5.08204 341.395 5.36532C341.124 5.64859 340.913 5.98386 340.774 6.35094C340.636 6.71801 340.573 7.10931 340.59 7.50126V48.321C340.591 49.1003 340.901 49.8471 341.452 50.3981C342.003 50.9491 342.75 51.2593 343.529 51.2607C343.912 51.2601 344.291 51.1831 344.643 51.0343C344.996 50.8855 345.315 50.6678 345.582 50.394C345.85 50.1203 346.06 49.7959 346.2 49.4399C346.341 49.084 346.408 48.7036 346.4 48.321V45.913C349.483 49.7085 353.401 51.6275 358.095 51.6275C365.733 51.6275 373.856 45.6313 373.856 34.5107V34.3884C373.856 23.3104 365.733 17.3354 358.095 17.3354ZM367.924 34.5798C367.924 41.4903 363.527 46.317 357.233 46.317C351.827 46.317 346.235 41.9049 346.235 34.516V34.3937C346.235 28.7484 350.44 22.6512 357.233 22.6512C363.426 22.6512 367.924 27.6161 367.924 34.4522V34.5798Z" fill="white"/>
<path d="M394.105 17.5745C390.444 17.5379 386.819 18.2884 383.473 19.7752C382.99 19.982 382.578 20.3257 382.288 20.7641C381.998 21.2024 381.843 21.7162 381.841 22.2418C381.866 22.93 382.157 23.5817 382.653 24.0596C383.149 24.5376 383.811 24.8044 384.499 24.804C384.865 24.7951 385.226 24.7175 385.562 24.5754C388.088 23.4217 390.834 22.827 393.611 22.8318C401.015 22.8318 402.573 27.2705 402.573 30.9968V31.4061C399.561 30.5864 396.45 30.1857 393.329 30.2154C384.595 30.2154 379.168 34.367 379.168 41.049V41.1712C379.168 48.0339 385.424 51.6273 391.601 51.6273C396.981 51.6273 400.463 49.3469 402.6 47.0611V48.507C402.595 48.8748 402.665 49.2397 402.806 49.5797C402.946 49.9197 403.154 50.2276 403.417 50.485C403.68 50.7424 403.992 50.9438 404.335 51.0771C404.678 51.2104 405.044 51.2728 405.412 51.2605C405.788 51.2651 406.161 51.1933 406.508 51.0496C406.855 50.9058 407.17 50.6931 407.433 50.4243C407.696 50.1555 407.901 49.8361 408.037 49.4855C408.173 49.135 408.237 48.7605 408.224 48.3847V30.933C408.224 26.7761 407.075 23.491 404.8 21.2477C402.366 18.8131 398.756 17.5745 394.105 17.5745ZM402.61 38.7047C402.61 43.3241 398.257 46.8059 392.478 46.8059C388.874 46.8059 384.994 44.9826 384.994 40.9586V40.8363C384.994 37.0355 388.274 34.771 393.77 34.771C396.759 34.7716 399.733 35.183 402.61 35.9937V38.7047Z" fill="white"/>
<path d="M433.447 17.335C429.104 17.335 425.617 19.0254 423.065 22.369V20.6361C423.082 20.2441 423.019 19.8528 422.881 19.4857C422.743 19.1187 422.531 18.7834 422.26 18.5001C421.988 18.2168 421.663 17.9914 421.302 17.8374C420.941 17.6834 420.553 17.604 420.16 17.604C419.768 17.604 419.38 17.6834 419.019 17.8374C418.658 17.9914 418.332 18.2168 418.061 18.5001C417.789 18.7834 417.578 19.1187 417.44 19.4857C417.301 19.8528 417.238 20.2441 417.255 20.6361V48.3206C417.25 48.7075 417.323 49.0916 417.468 49.4502C417.614 49.8087 417.83 50.1345 418.103 50.4084C418.377 50.6823 418.702 50.8988 419.06 51.0451C419.419 51.1913 419.803 51.2645 420.19 51.2602C420.574 51.2647 420.955 51.1913 421.31 51.0444C421.665 50.8974 421.987 50.68 422.256 50.4052C422.525 50.1305 422.735 49.8041 422.874 49.4458C423.013 49.0875 423.078 48.7047 423.065 48.3206V32.166C423.065 26.6003 426.786 22.7092 432.102 22.7092C437.29 22.7092 440.389 26.106 440.389 31.7992V48.3206C440.373 48.7125 440.435 49.1038 440.574 49.4709C440.712 49.838 440.924 50.1732 441.195 50.4565C441.466 50.7398 441.792 50.9652 442.153 51.1192C442.514 51.2732 442.902 51.3526 443.295 51.3526C443.687 51.3526 444.075 51.2732 444.436 51.1192C444.797 50.9652 445.123 50.7398 445.394 50.4565C445.665 50.1732 445.877 49.838 446.015 49.4709C446.154 49.1038 446.216 48.7125 446.2 48.3206V30.6244C446.189 22.5497 441.171 17.335 433.447 17.335Z" fill="white"/>
<path d="M482.266 46.5722L471.156 32.5811L481.256 22.6778C481.582 22.4037 481.845 22.0632 482.028 21.679C482.212 21.2949 482.311 20.876 482.319 20.4505C482.327 20.0924 482.263 19.7363 482.131 19.4032C482 19.0701 481.803 18.7666 481.552 18.5106C481.302 18.2546 481.003 18.0512 480.672 17.9124C480.342 17.7736 479.988 17.7021 479.629 17.7022C479.202 17.7007 478.78 17.7955 478.394 17.9796C478.009 18.1637 477.67 18.4322 477.402 18.7654L461.045 35.409V7.50126C461.062 7.10931 461 6.71801 460.861 6.35094C460.723 5.98386 460.511 5.64859 460.24 5.36532C459.969 5.08204 459.643 4.85662 459.282 4.70262C458.921 4.54863 458.533 4.46924 458.14 4.46924C457.748 4.46924 457.36 4.54863 456.999 4.70262C456.638 4.85662 456.312 5.08204 456.041 5.36532C455.769 5.64859 455.558 5.98386 455.42 6.35094C455.281 6.71801 455.219 7.10931 455.235 7.50126V48.321C455.231 48.7083 455.304 49.0924 455.45 49.451C455.597 49.8096 455.813 50.1354 456.087 50.4092C456.361 50.683 456.686 50.8994 457.045 51.0456C457.404 51.1918 457.788 51.2649 458.175 51.2607C458.559 51.2645 458.94 51.1905 459.294 51.0432C459.649 50.896 459.97 50.6784 460.238 50.4038C460.506 50.1291 460.716 49.803 460.855 49.445C460.994 49.0871 461.058 48.7047 461.045 48.321V42.4418L467.068 36.4722L477.732 49.937C477.993 50.3491 478.357 50.6868 478.787 50.9177C479.217 51.1486 479.699 51.2649 480.188 51.2553C480.555 51.2676 480.922 51.2052 481.264 51.0719C481.607 50.9386 481.919 50.7372 482.182 50.4798C482.445 50.2224 482.653 49.9145 482.794 49.5745C482.934 49.2345 483.004 48.8696 483 48.5018C482.997 47.7909 482.737 47.105 482.266 46.5722Z" fill="white"/>
<path d="M154.922 17.335C146.05 17.335 139.097 24.8568 139.097 34.4571V34.5793C139.097 44.3391 146.167 51.6961 155.539 51.6961C160.536 51.6961 164.358 50.1705 167.909 46.7577C168.318 46.4195 168.611 45.9619 168.747 45.4488C168.884 44.9356 168.856 44.3928 168.669 43.896C168.481 43.3993 168.143 42.9736 167.702 42.6785C167.261 42.3833 166.738 42.2335 166.208 42.25C165.57 42.2653 164.959 42.5129 164.491 42.9463C162.135 45.2555 158.959 46.5347 155.661 46.5026C150.053 46.5026 145.848 42.6221 145.03 36.7747H167.494C168.223 36.7747 168.923 36.4854 169.439 35.9701C169.955 35.4549 170.246 34.7558 170.248 34.0265C170.253 25.7286 164.985 17.335 154.922 17.335ZM145.035 32.2191C145.832 26.4249 149.782 22.4328 154.8 22.4328C161.009 22.4328 163.8 27.3818 164.368 32.2191H145.035Z" fill="white"/>
<path d="M180.878 4.57666C180.107 4.58647 179.372 4.90153 178.834 5.45268C178.296 6.00382 177.999 6.746 178.007 7.51628V48.3361C178.003 48.7226 178.076 49.1061 178.222 49.464C178.368 49.8219 178.584 50.1471 178.857 50.4204C179.13 50.6938 179.455 50.9098 179.813 51.0557C180.171 51.2017 180.555 51.2746 180.941 51.2704C181.325 51.2749 181.706 51.2016 182.061 51.055C182.416 50.9084 182.737 50.6914 183.006 50.4173C183.274 50.1431 183.485 49.8173 183.624 49.4597C183.764 49.102 183.829 48.7198 183.817 48.3361V7.50033C183.812 6.7239 183.5 5.98109 182.949 5.43355C182.398 4.88601 181.654 4.57804 180.878 4.57666Z" fill="white"/>
<path d="M219.174 41.8672C218.85 41.8694 218.529 41.9384 218.233 42.0702C217.937 42.2019 217.671 42.3934 217.452 42.6327C214.794 45.1471 212.009 46.3538 208.947 46.3538C202.674 46.3538 197.784 41.1443 197.784 34.489V34.3667C197.784 27.7486 202.568 22.5657 208.66 22.5657C212.466 22.5657 214.911 24.3358 217.016 26.2867C217.546 26.7235 218.211 26.9638 218.898 26.9671C219.643 26.9657 220.358 26.669 220.885 26.142C221.412 25.6149 221.708 24.9005 221.71 24.1551C221.705 23.7681 221.619 23.3865 221.455 23.0355C221.292 22.6845 221.057 22.3721 220.764 22.1192C217.533 18.9873 213.191 17.2665 208.692 17.335C199.389 17.335 191.819 25.0375 191.819 34.5102V34.6378C191.808 39.1328 193.576 43.4495 196.738 46.6448C199.899 49.8402 204.197 51.6543 208.692 51.6908C213.55 51.6908 217.494 50.0163 221.088 46.4175C221.58 45.9247 221.858 45.2585 221.864 44.5623C221.847 43.854 221.558 43.1794 221.057 42.6778C220.557 42.1763 219.883 41.8861 219.174 41.8672Z" fill="white"/>
<path d="M243.28 17.3349C241.019 17.3122 238.775 17.7407 236.681 18.5954C234.587 19.4501 232.685 20.7138 231.085 22.3126C229.485 23.9114 228.22 25.8131 227.364 27.9066C226.508 30.0001 226.078 32.2432 226.1 34.5048V34.6324C226.194 39.1298 228.051 43.4103 231.271 46.5517C234.49 49.6931 238.815 51.4441 243.314 51.4273C247.812 51.4106 252.124 49.6276 255.32 46.4623C258.517 43.297 260.342 39.0028 260.402 34.5048V34.3826C260.422 32.1322 259.991 29.9006 259.137 27.8187C258.282 25.7368 257.021 23.8465 255.426 22.2586C253.831 20.6707 251.935 19.4173 249.85 18.5718C247.764 17.7263 245.53 17.3058 243.28 17.3349ZM254.443 34.6377C254.443 41.3303 249.659 46.3749 243.28 46.3749C236.901 46.3749 232.037 41.1655 232.037 34.5102V34.3879C232.037 27.6634 236.822 22.5869 243.158 22.5869C249.494 22.5869 254.465 27.8282 254.465 34.5102L254.443 34.6377Z" fill="white"/>
<path d="M271.215 5.48584C269.301 5.48584 267.908 6.77757 267.908 8.54772V9.36104C267.908 11.1046 269.328 12.4176 271.215 12.4176C273.102 12.4176 274.585 11.1046 274.585 9.36104V8.54772C274.585 6.77757 273.192 5.48584 271.215 5.48584Z" fill="white"/>
<path d="M271.214 17.6965C270.444 17.7063 269.708 18.0212 269.169 18.5722C268.63 19.1231 268.331 19.8653 268.338 20.6361V48.3206C268.334 48.7076 268.407 49.0915 268.554 49.4498C268.7 49.8081 268.916 50.1335 269.19 50.4069C269.464 50.6803 269.79 50.8962 270.148 51.0418C270.507 51.1875 270.891 51.2599 271.278 51.2549C271.662 51.2595 272.042 51.1862 272.397 51.0395C272.751 50.8928 273.072 50.6758 273.341 50.4015C273.609 50.1273 273.819 49.8015 273.958 49.4438C274.097 49.0862 274.162 48.7041 274.149 48.3206V20.6361C274.154 20.2491 274.081 19.8651 273.935 19.5065C273.79 19.148 273.574 18.8221 273.301 18.5482C273.027 18.2743 272.702 18.0579 272.343 17.9116C271.985 17.7653 271.601 17.6922 271.214 17.6965Z" fill="white"/>
<path d="M300.302 17.335C295.959 17.335 292.472 19.0254 289.92 22.369V20.6361C289.937 20.2441 289.875 19.8528 289.736 19.4857C289.598 19.1187 289.386 18.7834 289.115 18.5001C288.844 18.2168 288.518 17.9914 288.157 17.8374C287.796 17.6834 287.408 17.604 287.015 17.604C286.623 17.604 286.235 17.6834 285.874 17.8374C285.513 17.9914 285.187 18.2168 284.916 18.5001C284.644 18.7834 284.433 19.1187 284.295 19.4857C284.156 19.8528 284.094 20.2441 284.11 20.6361V48.3206C284.106 48.7071 284.179 49.0906 284.325 49.4485C284.471 49.8064 284.687 50.1316 284.96 50.405C285.234 50.6783 285.559 50.8943 285.917 51.0402C286.275 51.1862 286.658 51.2591 287.045 51.2549C287.429 51.2594 287.809 51.1861 288.164 51.0395C288.519 50.8929 288.84 50.6759 289.109 50.4018C289.378 50.1276 289.588 49.8018 289.728 49.4442C289.867 49.0865 289.933 48.7043 289.92 48.3206V32.166C289.92 26.595 293.641 22.7092 298.957 22.7092C304.145 22.7092 307.245 26.106 307.245 31.7938V48.3206C307.228 48.7125 307.291 49.1038 307.429 49.4709C307.567 49.838 307.779 50.1732 308.05 50.4565C308.321 50.7398 308.647 50.9652 309.008 51.1192C309.369 51.2732 309.757 51.3526 310.15 51.3526C310.542 51.3526 310.93 51.2732 311.291 51.1192C311.652 50.9652 311.978 50.7398 312.249 50.4565C312.521 50.1732 312.732 49.838 312.87 49.4709C313.009 49.1038 313.071 48.7125 313.055 48.3206V30.6244C313.06 22.5444 308.058 17.335 300.302 17.335Z" fill="white"/>
<path d="M132.292 23.2673C132.641 23.2716 132.988 23.207 133.312 23.0773C133.636 22.9476 133.931 22.7553 134.181 22.5115C134.431 22.2676 134.63 21.977 134.768 21.6561C134.905 21.3352 134.978 20.9904 134.982 20.6413C134.97 19.9348 134.681 19.2612 134.179 18.7645C133.676 18.2679 132.999 17.9875 132.292 17.9835H124.558V13.1248C124.558 12.747 124.408 12.3847 124.141 12.1175C123.873 11.8503 123.511 11.7002 123.133 11.7002C122.822 11.6983 122.52 11.7992 122.272 11.9873L122.022 12.2424L118.758 15.4638L116.101 18.0738L114.139 20.0141L113.432 20.7105C113.248 20.8378 113.098 21.0078 112.994 21.2059C112.891 21.4041 112.836 21.6244 112.837 21.848C112.835 22.0348 112.87 22.2201 112.94 22.3932C113.01 22.5663 113.114 22.7238 113.245 22.8563C113.377 22.9889 113.534 23.094 113.706 23.1655C113.879 23.2369 114.064 23.2734 114.251 23.2727H118.742V41.9735C118.742 48.1239 122.129 51.51 128.279 51.51C129.947 51.5367 131.604 51.2314 133.154 50.6117C133.644 50.4428 134.07 50.1264 134.374 49.7057C134.677 49.2851 134.844 48.7808 134.849 48.2621C134.85 47.9252 134.784 47.5914 134.656 47.2799C134.527 46.9685 134.339 46.6854 134.101 46.4469C133.863 46.2084 133.58 46.0192 133.269 45.8901C132.958 45.761 132.624 45.6946 132.287 45.6946C132.065 45.7087 131.845 45.7498 131.633 45.8168C130.902 46.0275 130.145 46.1331 129.385 46.1305C126.089 46.1305 124.553 44.6102 124.553 41.3463V23.2727L132.292 23.2673Z" fill="white"/>
<path d="M419.935 70.2251L414.492 76.0122L420.014 81.8618H418.152L412.834 76.1686V81.8618H411.38V70.2251H412.834V75.887L418.121 70.2251H419.935Z" fill="white"/>
<path d="M401.151 70.2251V81.8618H399.806L393.378 72.5712H393.362V81.8618H391.939V70.2251H393.409L399.728 79.3593H399.744V70.2251H401.151Z" fill="white"/>
<path d="M383.135 81.8618H381.571L380.21 78.327H375.221L373.86 81.8618H372.327L376.894 70.2251H378.537L383.135 81.8618ZM375.69 77.0288H379.725L377.708 71.8517L375.69 77.0288Z" fill="white"/>
<path d="M356.692 81.8618V70.2251H360.227C362.714 70.2251 364.012 71.5233 364.012 73.2438C364.012 74.6358 363.246 75.4647 362.245 75.8558C363.668 76.2937 364.388 77.3103 364.388 78.6555C364.388 80.4072 363.074 81.8618 360.415 81.8618H356.692ZM358.131 80.548H360.384C362.042 80.548 362.933 79.7034 362.933 78.5303C362.933 77.2478 361.885 76.5283 360.462 76.5283H358.131V80.548ZM358.131 75.324H360.227C361.744 75.324 362.573 74.495 362.573 73.3845C362.573 72.2271 361.729 71.5389 360.337 71.5389H358.131V75.324Z" fill="white"/>
<path d="M331.736 81.8618V71.5858H328.061V70.2251H336.851V71.5858H333.191V81.8618H331.736Z" fill="white"/>
<path d="M313.231 81.8618V70.2251H319.613V71.5858H314.686V75.2927H319.253V76.5752H314.686V80.5167H319.613V81.8618H313.231Z" fill="white"/>
<path d="M300.431 69.9736C301.51 69.9736 302.511 70.3177 303.2 70.74V72.2415C302.386 71.6628 301.354 71.3344 300.447 71.3344C299.258 71.3344 298.226 71.9131 298.226 73.0705C298.226 74.0871 299.039 74.572 300.635 75.2915C302.402 76.0735 303.825 76.8243 303.825 78.7324C303.825 80.8596 302.074 82.1108 299.962 82.1108C298.601 82.1108 297.413 81.5791 296.709 81.0316V79.405C297.506 80.2183 298.726 80.7501 299.899 80.7501C301.198 80.7501 302.324 80.0619 302.324 78.8106C302.324 77.7314 301.464 77.1996 299.837 76.4645C298.132 75.6981 296.756 74.9943 296.756 73.1487C296.756 71.131 298.382 69.9736 300.431 69.9736Z" fill="white"/>
<path d="M284.519 69.9736C285.598 69.9736 286.599 70.3177 287.287 70.74V72.2415C286.474 71.6628 285.441 71.3344 284.534 71.3344C283.345 71.3344 282.313 71.9131 282.313 73.0705C282.313 74.0871 283.126 74.572 284.722 75.2915C286.489 76.0735 287.913 76.8243 287.913 78.7324C287.913 80.8596 286.161 82.1108 284.049 82.1108C282.689 82.1108 281.5 81.5791 280.796 81.0316V79.405C281.594 80.2183 282.814 80.7501 283.987 80.7501C285.285 80.7501 286.411 80.0619 286.411 78.8106C286.411 77.7314 285.551 77.1996 283.924 76.4645C282.219 75.6981 280.843 74.9943 280.843 73.1487C280.843 71.131 282.47 69.9736 284.519 69.9736Z" fill="white"/>
<path d="M272.648 81.8618H271.084L269.723 78.327H264.734L263.373 81.8618H261.84L266.408 70.2251H268.05L272.648 81.8618ZM265.203 77.0288H269.239L267.221 71.8517L265.203 77.0288Z" fill="white"/>
<path d="M237.303 81.8618V70.2251H238.758V80.5011H243.888V81.8618H237.303Z" fill="white"/>
<path d="M228.5 81.8618H226.936L225.575 78.327H220.586L219.225 81.8618H217.692L222.259 70.2251H223.901L228.5 81.8618ZM221.055 77.0288H225.09L223.072 71.8517L221.055 77.0288Z" fill="white"/>
<path d="M206.115 81.8618V71.5858H202.44V70.2251H211.23V71.5858H207.57V81.8618H206.115Z" fill="white"/>
<path d="M192.01 81.8618V70.2251H193.464V81.8618H192.01Z" fill="white"/>
<path d="M174.358 76.0583C174.358 78.8111 176.25 80.7036 178.628 80.7036C179.582 80.7036 180.223 80.5316 180.911 80.1875V75.5735H182.303V81.0947C181.208 81.7203 180.067 82.0957 178.612 82.0957C175.546 82.0957 172.872 79.7183 172.872 76.0583C172.872 72.3828 175.499 69.9897 178.643 69.9897C179.879 69.9897 181.068 70.3026 181.99 70.8343V72.3828C180.958 71.7415 179.879 71.4131 178.706 71.4131C176.282 71.4131 174.358 73.3056 174.358 76.0583Z" fill="white"/>
<path d="M161.941 81.8618V70.2251H163.395V81.8618H161.941Z" fill="white"/>
<path d="M146.262 70.2251C150.016 70.2251 152.44 72.5399 152.44 76.0434C152.44 79.5626 149.938 81.8618 146.262 81.8618H143.447V70.2251H146.262ZM144.901 80.5011H146.325C149.015 80.5011 150.954 78.8901 150.954 76.0591C150.954 73.1812 149.015 71.5858 146.34 71.5858H144.901V80.5011Z" fill="white"/>
<path d="M123.832 81.8618H122.268L120.907 78.327H115.918L114.557 81.8618H113.024L117.592 70.2251H119.234L123.832 81.8618ZM116.387 77.0288H120.422L118.405 71.8517L116.387 77.0288Z" fill="white"/>
</svg>
