<svg width="96" height="96" viewBox="0 0 96 96" fill="none" xmlns="http://www.w3.org/2000/svg">
<mask id="mask0_3573_4661" style="mask-type:alpha" maskUnits="userSpaceOnUse" x="4" y="3" width="89" height="90">
<path d="M92.0525 38.2501L86.0889 72.0985C85.4626 75.6263 82.1811 79.5021 78.7925 80.7279L46.277 92.4462C42.8884 93.6774 37.851 92.7834 35.0833 90.4815L8.52606 68.3459C5.75308 66.0333 4.00791 61.269 4.62353 57.7412L10.5923 23.882C11.2133 20.3543 14.5003 16.4785 17.8888 15.2526L50.4097 3.55043C53.7983 2.32454 58.8303 3.21855 61.5979 5.51509L88.1393 27.64C90.939 29.9525 92.6628 34.7277 92.0525 38.2501Z" fill="white"/>
</mask>
<g mask="url(#mask0_3573_4661)">
<mask id="mask1_3573_4661" style="mask-type:luminance" maskUnits="userSpaceOnUse" x="0" y="0" width="96" height="96">
<path d="M48 96C74.5097 96 96 74.5097 96 48C96 21.4903 74.5097 0 48 0C21.4903 0 0 21.4903 0 48C0 74.5097 21.4903 96 48 96Z" fill="white"/>
</mask>
<g mask="url(#mask1_3573_4661)">
<path d="M0 0H96V96H0V0Z" fill="#0052B4"/>
<path d="M28.875 56.25L31.5 61.875L37.5 60.375L34.875 66L39.5625 69.75L33.5625 71.0625L33.75 77.25L28.875 73.3125L24 77.25L24.1875 71.0625L18 69.75L22.875 66L20.25 60.375L26.25 61.875L28.875 56.25ZM70.5 51.1875H79.3125L72.1875 56.25L75 48L77.625 56.25L70.5 51.1875ZM71.8125 20.8125L73.125 23.625L76.125 22.875L74.8125 25.6875L77.0625 27.5625L74.25 28.125V31.3125L71.8125 29.25L69.375 31.3125V28.125L66.5625 27.5625L68.8125 25.6875L67.5 22.875L70.5 23.625L71.8125 20.8125ZM82.5 33.375L83.8125 36.1875L86.8125 35.4375L85.5 38.25L87.75 40.125L84.9375 40.6875V43.6875L82.5 41.8125L80.0625 43.875V40.6875L77.25 40.125L79.5 38.25L78.1875 35.4375L81.1875 36.1875L82.5 33.375ZM59.625 37.5L60.9375 40.3125L63.9375 39.5625L62.625 42.375L64.875 44.25L62.0625 44.8125V47.8125L59.625 45.9375L57.1875 48V44.8125L54.375 44.25L56.625 42.375L55.3125 39.5625L58.3125 40.3125L59.625 37.5ZM71.8125 66.75L73.125 69.5625L76.125 68.8125L74.8125 71.625L77.0625 73.5L74.25 74.0625V77.25L71.8125 75.1875L69.375 77.25V74.0625L66.5625 73.5L68.8125 71.625L67.5 68.8125L70.5 69.5625L71.8125 66.75ZM0 0V6L6 12L0 18V48H6L12 42L18 48H24V32.4375L39.5625 48H48L46.5 45L48 42.1875V39.5625L32.4375 24H48V18L42 12L48 6V0H18L12 6L6 0H0Z" fill="#EEEEEE"/>
<path d="M6 0V6H0V18H6V48H18V18H48V6H18V0H6ZM24 24L48 48V42.1875L29.8125 24H24Z" fill="#D80027"/>
</g>
</g>
</svg>
