<svg width="32" height="32" viewBox="0 0 32 32" fill="none" xmlns="http://www.w3.org/2000/svg">
<mask id="mask0_5591_21035" style="mask-type:alpha" maskUnits="userSpaceOnUse" x="1" y="1" width="30" height="30">
<path d="M30.6842 12.75L28.6963 24.0328C28.4875 25.2088 27.3937 26.5007 26.2642 26.9093L15.4257 30.8154C14.2961 31.2258 12.617 30.9278 11.6944 30.1605L2.84202 22.782C1.91769 22.0111 1.33597 20.423 1.54118 19.2471L3.53078 7.96068C3.73777 6.78476 4.83342 5.49282 5.96295 5.08419L16.8032 1.18348C17.9328 0.774847 19.6101 1.07285 20.5326 1.83836L29.3798 9.21332C30.313 9.98418 30.8876 11.5759 30.6842 12.75Z" fill="white"/>
</mask>
<g mask="url(#mask0_5591_21035)">
<mask id="mask1_5591_21035" style="mask-type:luminance" maskUnits="userSpaceOnUse" x="0" y="0" width="32" height="32">
<path d="M16 32C24.8366 32 32 24.8366 32 16C32 7.16344 24.8366 0 16 0C7.16344 0 0 7.16344 0 16C0 24.8366 7.16344 32 16 32Z" fill="white"/>
</mask>
<g mask="url(#mask1_5591_21035)">
<path d="M0 0V32H9L16 28L23 32H32V0H23L16 4L9 0H0Z" fill="#D80027"/>
<path d="M9 0H23V32H9V0Z" fill="#EEEEEE"/>
<path d="M18.8125 18.0625L21.5625 16.6875L20.1875 16V14.625L17.375 16L18.8125 13.25H17.375L16 11.125L14.625 13.1875H13.1875L14.625 16L11.8125 14.625V16L10.4375 16.6875L13.25 18.0625L12.5 19.5H15.3125V21.5625H16.6875V19.5H19.5L18.8125 18.0625Z" fill="#D80027"/>
</g>
</g>
</svg>
