<svg width="32" height="32" viewBox="0 0 32 32" fill="none" xmlns="http://www.w3.org/2000/svg">
<mask id="mask0_5591_21111" style="mask-type:alpha" maskUnits="userSpaceOnUse" x="1" y="1" width="30" height="30">
<path d="M30.6842 12.75L28.6963 24.0328C28.4875 25.2088 27.3937 26.5007 26.2642 26.9093L15.4257 30.8154C14.2961 31.2258 12.617 30.9278 11.6944 30.1605L2.84202 22.782C1.91769 22.0111 1.33597 20.423 1.54118 19.2471L3.53078 7.96068C3.73777 6.78476 4.83342 5.49282 5.96295 5.08419L16.8032 1.18348C17.9328 0.774847 19.6101 1.07285 20.5326 1.83836L29.3798 9.21332C30.313 9.98418 30.8876 11.5759 30.6842 12.75Z" fill="white"/>
</mask>
<g mask="url(#mask0_5591_21111)">
<mask id="mask1_5591_21111" style="mask-type:luminance" maskUnits="userSpaceOnUse" x="0" y="0" width="32" height="32">
<path d="M16 32C24.8366 32 32 24.8366 32 16C32 7.16344 24.8366 0 16 0C7.16344 0 0 7.16344 0 16C0 24.8366 7.16344 32 16 32Z" fill="white"/>
</mask>
<g mask="url(#mask1_5591_21111)">
<path d="M0 0L0.5 1.375L0 2.8125V4.25L2 7.625L0 11V13L2 16L0 19V21L2 24.375L0 27.75V32L1.375 31.5L2.8125 32H4.25L7.625 30L11 32H13L16 30L19 32H21L24.375 30L27.75 32H32L31.5 30.625L32 29.1875V27.75L30 24.375L32 21V19L30 16L32 13V11L30 7.625L32 4.25V0L30.625 0.5L29.1875 0H27.75L24.375 2L21 0H19L16 2L13 0H11L7.625 2L4.25 0H0Z" fill="#EEEEEE"/>
<path d="M21 0V6.75L27.75 0H21ZM32 4.25L25.25 11H32V4.25ZM0 11H6.75L0 4.25V11ZM4.25 0L11 6.75V0H4.25ZM11 32V25.25L4.25 32H11ZM0 27.75L6.75 21H0V27.75ZM32 21H25.25L32 27.75V21ZM27.75 32L21 25.25V32H27.75Z" fill="#0052B4"/>
<path d="M0 0V2.8125L8.1875 11H11L0 0ZM13 0V13H0V19H13V32H19V19H32V13H19V0H13ZM29.1875 0L21 8.1875V11L32 0H29.1875ZM11 21L0 32H2.8125L11 23.8125V21ZM21 21L32 32V29.1875L23.8125 21H21Z" fill="#D80027"/>
</g>
</g>
</svg>
