<svg width="32" height="32" viewBox="0 0 32 32" fill="none" xmlns="http://www.w3.org/2000/svg">
<mask id="mask0_5591_21127" style="mask-type:alpha" maskUnits="userSpaceOnUse" x="1" y="1" width="30" height="30">
<path d="M30.6842 12.75L28.6963 24.0328C28.4875 25.2088 27.3937 26.5007 26.2642 26.9093L15.4257 30.8154C14.2961 31.2258 12.617 30.9278 11.6944 30.1605L2.84202 22.782C1.91769 22.0111 1.33597 20.423 1.54118 19.2471L3.53078 7.96068C3.73777 6.78476 4.83342 5.49282 5.96295 5.08419L16.8032 1.18348C17.9328 0.774847 19.6101 1.07285 20.5326 1.83836L29.3798 9.21332C30.313 9.98418 30.8876 11.5759 30.6842 12.75Z" fill="white"/>
</mask>
<g mask="url(#mask0_5591_21127)">
<mask id="mask1_5591_21127" style="mask-type:luminance" maskUnits="userSpaceOnUse" x="0" y="0" width="32" height="32">
<path d="M16 32C24.8366 32 32 24.8366 32 16C32 7.16344 24.8366 0 16 0C7.16344 0 0 7.16344 0 16C0 24.8366 7.16344 32 16 32Z" fill="white"/>
</mask>
<g mask="url(#mask1_5591_21127)">
<path d="M0 0H32V32H0V0Z" fill="#D80027"/>
<path d="M17.6498 12.1062C17.2873 13.6187 16.6436 13.3312 16.3248 14.65C15.4434 14.4194 14.6874 13.8525 14.2193 13.0709C13.7511 12.2893 13.608 11.3553 13.8207 10.4694C14.0334 9.58345 14.5849 8.81621 15.3569 8.33233C16.1289 7.84845 17.0598 7.6865 17.9498 7.88124C17.3186 10.5187 17.9748 10.7562 17.6498 12.1062ZM12.8123 13.225C14.1373 14.0375 13.6623 14.5625 14.8186 15.275C14.3196 16.0254 13.549 16.5531 12.669 16.747C11.7889 16.941 10.868 16.7861 10.0998 16.315C9.33155 15.8438 8.77597 15.0932 8.54985 14.2208C8.32374 13.3485 8.44471 12.4225 8.88733 11.6375C11.1998 13.0562 11.6248 12.5 12.8123 13.225ZM12.3748 18.1812C13.5623 17.1687 13.9186 17.7812 14.9498 16.9062C15.502 17.6136 15.7597 18.5068 15.6692 19.3995C15.5786 20.2923 15.1469 21.1156 14.464 21.6977C13.7811 22.2798 12.8998 22.5757 12.004 22.5238C11.1082 22.4718 10.2671 22.0759 9.65608 21.4187C11.7186 19.6562 11.3186 19.0812 12.3811 18.1812H12.3748ZM16.9623 20.1187C16.3623 18.6812 17.0561 18.5375 16.5373 17.2875C17.3793 16.9841 18.3058 17.0166 19.1245 17.3783C19.9431 17.74 20.591 18.403 20.9336 19.2298C21.2762 20.0567 21.2873 20.9837 20.9644 21.8184C20.6416 22.6531 20.0096 23.3314 19.1998 23.7125C18.1623 21.2125 17.4936 21.4062 16.9623 20.125V20.1187ZM20.2248 16.3687C18.6686 16.4937 18.7436 15.7875 17.3936 15.8937C17.3525 14.9911 17.6639 14.1078 18.2621 13.4306C18.8603 12.7534 19.6984 12.3354 20.5992 12.2648C21.5 12.1941 22.393 12.4766 23.0894 13.0523C23.7858 13.628 24.2311 14.452 24.3311 15.35C21.6248 15.5625 21.6061 16.2562 20.2248 16.3687Z" fill="#EEEEEE"/>
</g>
</g>
</svg>
