<svg width="32" height="32" viewBox="0 0 32 32" fill="none" xmlns="http://www.w3.org/2000/svg">
<mask id="mask0_5591_21143" style="mask-type:alpha" maskUnits="userSpaceOnUse" x="1" y="1" width="30" height="30">
<path d="M30.6842 12.75L28.6963 24.0328C28.4875 25.2088 27.3937 26.5007 26.2642 26.9093L15.4257 30.8154C14.2961 31.2258 12.617 30.9278 11.6944 30.1605L2.84202 22.782C1.91769 22.0111 1.33597 20.423 1.54118 19.2471L3.53078 7.96068C3.73777 6.78476 4.83342 5.49282 5.96295 5.08419L16.8032 1.18348C17.9328 0.774847 19.6101 1.07285 20.5326 1.83836L29.3798 9.21332C30.313 9.98418 30.8876 11.5759 30.6842 12.75Z" fill="white"/>
</mask>
<g mask="url(#mask0_5591_21143)">
<mask id="mask1_5591_21143" style="mask-type:luminance" maskUnits="userSpaceOnUse" x="0" y="0" width="24" height="24">
<path d="M12 24C18.6274 24 24 18.6274 24 12C24 5.37258 18.6274 0 12 0C5.37258 0 0 5.37258 0 12C0 18.6274 5.37258 24 12 24Z" fill="white"/>
</mask>
<g mask="url(#mask1_5591_21143)">
</g>
<g clip-path="url(#clip0_5591_21143)">
<mask id="mask2_5591_21143" style="mask-type:luminance" maskUnits="userSpaceOnUse" x="0" y="0" width="32" height="32">
<path d="M16 32C24.8366 32 32 24.8366 32 16C32 7.16344 24.8366 0 16 0C7.16344 0 0 7.16344 0 16C0 24.8366 7.16344 32 16 32Z" fill="white"/>
</mask>
<g mask="url(#mask2_5591_21143)">
<path d="M16 0H32V32H0V16L16 0Z" fill="#0052B4"/>
<path d="M0 0V2L2 4L0 6V16H2L4 14L6 16H8V10.8125L13.1875 16H16L15.5 15L16 14.0625V13.1875L10.8125 8H16V6L14 4L16 2V0H6L4 2L2 0H0ZM23.875 5.75L23.1875 7.9375H20.875L22.75 9.25L22 11.4375L23.875 10.0625L25.75 11.4375L25 9.25L26.875 7.9375H24.5625L23.875 5.75ZM27.6875 10.25L27 12.4375H24.6875L26.5625 13.75L25.875 15.9375L27.6875 14.625L29.5625 15.9375L28.8125 13.75L30.6875 12.4375H28.375L27.6875 10.25ZM20 10.875L19.3125 13.0625H17L18.875 14.4375L18.1875 16.625L20 15.25L21.875 16.625L21.1875 14.4375L23 13.0625H20.75L20 10.875ZM23.6875 19L23 21.1875H20.6875L22.5625 22.5L21.875 24.6875L23.6875 23.375L25.5625 24.6875L24.875 22.5L26.6875 21.1875H24.4375L23.6875 19Z" fill="#EEEEEE"/>
<path d="M2 0V2H0V6H2V16H6V6H16V2H6V0H2ZM8 8L16 16V14.0625L9.9375 8H8ZM23.6875 20.5625L23.375 21.6875H22.1875L23.125 22.3125L22.75 23.4375L23.6875 22.75L24.625 23.4375L24.3125 22.3125L25.1875 21.6875H24.0625L23.6875 20.5625ZM20 12.5L19.6875 13.5625H18.5L19.4375 14.25L19.0625 15.3125L20 14.625L20.9375 15.3125L20.5625 14.25L21.5 13.5625H20.375L20 12.5ZM27.6875 11.8125L27.3125 12.9375H26.1875L27.125 13.625L26.75 14.6875L27.6875 14L28.625 14.6875L28.25 13.625L29.1875 12.9375H28.0625L27.6875 11.8125ZM23.875 7.3125L23.5 8.375H22.375L23.3125 9.0625L22.9375 10.125L23.875 9.5L24.8125 10.125L24.4375 9.0625L25.375 8.375H24.25L23.875 7.3125Z" fill="#D80027"/>
</g>
</g>
</g>
<defs>
<clipPath id="clip0_5591_21143">
<rect width="32" height="32" fill="white"/>
</clipPath>
</defs>
</svg>
