<svg width="32" height="32" viewBox="0 0 32 32" fill="none" xmlns="http://www.w3.org/2000/svg">
<path d="M30.6842 12.75L28.6963 24.0328C28.4875 25.2088 27.3937 26.5007 26.2642 26.9093L15.4257 30.8154C14.2961 31.2258 12.617 30.9278 11.6944 30.1605L2.84202 22.782C1.91769 22.0111 1.33597 20.423 1.54118 19.2471L3.53078 7.96068C3.73777 6.78476 4.83342 5.49282 5.96295 5.08419L16.8032 1.18348C17.9328 0.774847 19.6101 1.07285 20.5326 1.83836L29.3798 9.21332C30.313 9.98418 30.8876 11.5759 30.6842 12.75Z" fill="#0052B4"/>
<path d="M15.1977 27.0618C15.1383 27.0529 15.0875 27.024 15.0838 26.9988C15.0807 26.9729 15.0764 26.9339 15.0739 26.9116C15.0675 26.8571 14.7931 26.6168 14.6131 26.5078C14.5221 26.4533 14.4493 26.3695 14.4195 26.2858C14.3926 26.2118 14.3564 26.151 14.3391 26.151C14.3222 26.151 14.3085 26.1258 14.3085 26.0948C14.3085 26.0634 14.2712 26.0124 14.2259 25.98C14.1809 25.9487 14.1551 25.9038 14.1694 25.8808C14.1855 25.8549 14.172 25.8481 14.1344 25.8621C14.09 25.8796 14.0739 25.8597 14.0739 25.7908C14.0739 25.7311 14.0065 25.6259 13.8935 25.5071C13.7071 25.3137 13.6271 25.0758 13.7114 24.9686C13.7329 24.9417 13.7616 24.8717 13.7759 24.8129C13.79 24.7544 13.8543 24.6673 13.9182 24.6196C14.057 24.5172 14.061 24.4793 13.9526 24.2958C13.9072 24.2189 13.8806 24.1298 13.8935 24.0962C13.9061 24.0635 13.8439 23.8869 13.755 23.705C13.6351 23.4579 13.5379 23.3225 13.3742 23.1728C13.1766 22.9928 12.9785 22.7203 12.9785 22.6283C12.9785 22.6096 13.0051 22.5933 13.0372 22.5933C13.077 22.5933 13.0963 22.5525 13.0971 22.4665C13.0979 22.3965 13.124 22.3054 13.1558 22.2635C13.2579 22.1281 13.1977 21.8507 13.0894 21.9583C13.0627 21.9854 13.0183 22.007 12.9899 22.007C12.9179 22.007 12.9268 21.8923 13.0014 21.8639C13.1146 21.8203 12.9735 21.7735 12.7244 21.7725C12.5953 21.7719 12.47 21.7581 12.4459 21.7426C12.4218 21.7262 12.3556 21.6222 12.2997 21.5105C12.2102 21.3331 12.1778 21.3035 12.0496 21.2794C11.8529 21.2425 11.6115 21.243 11.2578 21.2809C10.9828 21.3107 10.9518 21.3058 10.7688 21.2077C10.6174 21.1269 10.4978 21.0981 10.2408 21.0813C9.86026 21.0557 9.82843 21.0356 9.48662 20.5995C9.37679 20.4599 9.20671 20.2717 9.10898 20.1809C8.99223 20.0725 8.94583 20.0056 8.97449 19.9853C9.0445 19.9366 8.99141 19.7206 8.87817 19.5932C8.82109 19.529 8.75202 19.4436 8.72501 19.4034C8.69776 19.3624 8.63985 19.2764 8.59627 19.2124C8.53754 19.1253 8.52462 19.065 8.54553 18.9779C8.56127 18.913 8.5756 18.7729 8.57654 18.6653C8.57795 18.5406 8.6012 18.4491 8.64079 18.4112C8.72313 18.3332 8.80394 18.1377 8.75402 18.1377C8.73311 18.1377 8.71584 18.0849 8.71584 18.0201C8.71584 17.9558 8.731 17.9031 8.74967 17.9031C8.76835 17.9031 8.7815 17.9339 8.77916 17.9713C8.76858 18.1251 8.84658 18.066 8.86091 17.9092C8.87148 17.7959 8.8629 17.7477 8.83542 17.7652C8.78327 17.797 8.78268 17.8056 8.85257 17.4733C8.90014 17.2464 8.94231 17.1586 9.07774 17.0015C9.16924 16.8952 9.27472 16.7987 9.31231 16.7868C9.35013 16.7747 9.38055 16.7392 9.38055 16.707C9.38055 16.6032 9.4993 16.4663 9.60878 16.4446C9.66962 16.4324 9.73986 16.3795 9.76993 16.3236C9.81151 16.2462 9.84358 16.2293 9.91441 16.2468C9.97091 16.2615 10.0065 16.2529 10.0065 16.2249C10.0065 16.2003 10.0283 16.1834 10.0552 16.1881C10.0821 16.1923 10.1307 16.1847 10.1628 16.1709C10.1949 16.1574 10.2675 16.1298 10.3234 16.1092C10.402 16.0806 10.431 16.037 10.4499 15.9217C10.4829 15.7138 10.7177 15.4748 10.9491 15.4135C11.1685 15.3556 11.3323 15.1529 11.3053 14.9716C11.2935 14.8905 11.266 14.8543 11.2163 14.8543C11.1771 14.8543 11.1344 14.8366 11.1211 14.8153C11.1076 14.7938 11.0628 14.7761 11.0208 14.7761C10.9307 14.7761 10.9273 14.7445 11.005 14.641C11.0418 14.5925 11.0544 14.5211 11.04 14.4448C11.0223 14.3493 11.042 14.2934 11.1369 14.1741C11.2611 14.0181 11.3351 13.8165 11.3357 13.6344C11.3359 13.5432 11.3586 13.5222 11.4962 13.4849C11.6293 13.4494 11.668 13.4523 11.7239 13.503C11.7611 13.5366 11.8176 13.5641 11.8492 13.5641C11.881 13.5641 11.924 13.5818 11.9453 13.6029C11.9662 13.6238 12.0712 13.6679 12.1779 13.7004C12.3643 13.7571 12.3752 13.7563 12.4395 13.6791C12.4765 13.6347 12.5183 13.5377 12.5318 13.464C12.5613 13.3075 12.522 13.0566 12.4681 13.0566C12.4478 13.0566 12.4309 13.0321 12.4309 13.0018C12.4309 12.9718 12.4045 12.9373 12.3721 12.9247C12.338 12.9115 12.3137 12.853 12.3137 12.7838C12.3137 12.672 12.3222 12.6654 12.4668 12.6654C12.5514 12.6654 12.63 12.6875 12.6427 12.7144C12.655 12.7413 12.6542 12.7207 12.6413 12.6694C12.6226 12.5954 12.6307 12.5805 12.6783 12.5988C12.7115 12.6117 12.7459 12.6012 12.7554 12.5753C12.7666 12.5433 12.7968 12.5504 12.8515 12.5994C12.9273 12.6665 12.939 12.6668 13.0821 12.604L13.2329 12.5375L13.0958 12.5033C13.0206 12.4847 12.8271 12.4626 12.6657 12.454C12.5042 12.446 12.3414 12.4371 12.304 12.4351C12.198 12.4287 12.2234 12.3654 12.3428 12.3388C12.4021 12.3256 12.4856 12.2874 12.5288 12.2542C12.5923 12.2049 12.5965 12.1874 12.5523 12.1599C12.4803 12.1157 12.5268 12.0013 12.6172 12.0013C12.6693 12.0013 12.688 11.9723 12.6868 11.8941C12.6857 11.7997 12.6989 11.788 12.7927 11.798C12.8879 11.8077 12.8997 11.7966 12.8959 11.7001C12.8933 11.6336 12.8844 11.6178 12.8736 11.6591C12.8638 11.697 12.8288 11.7274 12.7958 11.7274C12.7588 11.7274 12.7443 11.7053 12.7577 11.6695C12.7763 11.621 12.7674 11.6193 12.7032 11.6595C12.661 11.6862 12.6263 11.7444 12.6263 11.7896C12.6263 11.8346 12.5957 11.8986 12.5579 11.9315C12.4787 12.0006 12.1532 12.0565 12.0394 12.0204C11.923 11.9834 11.9367 11.8151 12.0606 11.7584C12.1197 11.7317 12.1518 11.6916 12.1395 11.6597C12.1088 11.58 12.2358 11.4068 12.3055 11.4331C12.3374 11.4457 12.3961 11.4268 12.4352 11.391C12.4766 11.3537 12.5456 11.3345 12.6001 11.3448C12.663 11.3569 12.7088 11.3385 12.739 11.2909C12.7668 11.2465 12.7688 11.2192 12.7444 11.2192C12.675 11.2192 12.702 11.1413 12.7736 11.1367C12.8387 11.1321 12.8387 11.1313 12.7736 11.1144C12.6815 11.0903 12.6873 11.0473 12.7975 10.9283C12.8921 10.8259 13.0179 10.7944 13.0179 10.8726C13.0179 10.9036 13.0349 10.9027 13.0747 10.8692C13.1059 10.8434 13.1513 10.834 13.175 10.8489C13.1985 10.8636 13.253 10.8443 13.2949 10.8061C13.356 10.7508 13.3813 10.7468 13.4194 10.7855C13.4578 10.8239 13.4409 10.8577 13.34 10.9486C13.2302 11.0475 13.2233 11.0634 13.291 11.0634C13.3949 11.0634 13.3949 11.1853 13.291 11.2787C13.2005 11.3607 13.2107 11.4935 13.3346 11.8365C13.4195 12.0731 13.4329 12.3383 13.3601 12.3639C13.3332 12.3736 13.3229 12.394 13.3369 12.4092C13.3804 12.4566 13.5866 12.3258 13.6976 12.1795C13.7937 12.0536 13.8217 12.0404 13.995 12.0404C14.2061 12.0404 14.2126 12.0321 14.2499 11.7318C14.2791 11.499 14.3118 11.4523 14.4876 11.392C14.6044 11.3516 14.645 11.3507 14.6683 11.3871C14.6858 11.4146 14.6987 11.3813 14.6987 11.3073C14.6995 11.1671 14.6436 11.145 14.5212 11.2379C14.4794 11.2695 14.3925 11.2958 14.3276 11.2964C14.1533 11.2982 14.1002 11.1872 14.1338 10.8924C14.1702 10.5758 14.2317 10.4666 14.4231 10.3805C14.5109 10.3409 14.5823 10.2947 14.5823 10.278C14.5823 10.2609 14.6442 10.2247 14.7199 10.1977C14.8126 10.1641 14.9032 10.0819 14.9967 9.94586C15.0735 9.83486 15.1785 9.72128 15.2307 9.69379C15.2826 9.66537 15.3182 9.63588 15.3092 9.62672C15.3003 9.6178 15.2547 9.6313 15.208 9.65621C15.1612 9.68111 15.1137 9.69238 15.1022 9.68087C15.0712 9.64963 15.3252 9.42598 15.489 9.34106C15.5681 9.30007 15.6435 9.24873 15.6573 9.22689C15.6708 9.2048 15.7335 9.18672 15.7969 9.18672C15.86 9.18672 15.9119 9.17262 15.9119 9.15571C15.9119 9.10954 16.1453 9.0393 16.3088 9.03613C16.4087 9.03414 16.4824 9.06221 16.5553 9.12987C16.6126 9.18296 16.6849 9.22595 16.7158 9.22595C16.7471 9.22595 16.7726 9.24368 16.7726 9.26518C16.7726 9.28667 16.8072 9.30418 16.85 9.30418C16.9885 9.30418 17.4287 9.50774 17.474 9.59289C17.4995 9.63964 17.5608 9.67782 17.6175 9.68122C17.7086 9.68663 17.7112 9.68181 17.6549 9.61956C17.6215 9.58232 17.5938 9.52265 17.5938 9.48683C17.5938 9.45065 17.5758 9.42117 17.5545 9.42117C17.533 9.42117 17.5153 9.39309 17.5153 9.35833C17.5153 9.30981 17.5445 9.29924 17.6426 9.31357C17.7122 9.32309 17.8003 9.34423 17.8376 9.36056C17.8877 9.3824 17.9422 9.34846 18.0487 9.23065C18.1412 9.12716 18.2381 9.06233 18.323 9.04623C18.5741 8.99948 18.4272 8.83457 18.1607 8.8644C18.0561 8.87615 17.9548 8.86065 17.8766 8.82001C17.7736 8.76691 17.7512 8.72886 17.7315 8.57134C17.7186 8.46927 17.6979 8.34159 17.6858 8.28803C17.6382 8.07319 17.6597 7.96372 17.7648 7.88737C17.8211 7.84602 17.868 7.78612 17.868 7.75405C17.868 7.7194 17.8957 7.70131 17.9362 7.70965C17.9898 7.72022 18.0013 7.75323 17.9896 7.8593C17.981 7.93388 17.9724 8.12393 17.9709 8.28227C17.9678 8.53575 17.9778 8.57851 18.0558 8.64158C18.1722 8.73567 18.513 8.79957 18.7091 8.76398L18.8657 8.73532L18.7579 8.64182C18.6988 8.5899 18.6506 8.51273 18.6506 8.46974C18.6506 8.42675 18.626 8.36426 18.5961 8.33008C18.5661 8.29625 18.5291 8.20874 18.5136 8.13592C18.4867 8.00882 18.4895 8.00483 18.585 8.02867C18.6715 8.05017 18.6859 8.03983 18.6968 7.94669L18.709 7.83945L18.7968 7.93435C18.8682 8.01094 18.8849 8.01669 18.8849 7.96301C18.8849 7.92684 18.8656 7.897 18.8415 7.897C18.816 7.897 18.8053 7.85624 18.8166 7.79916C18.8266 7.74548 18.8214 7.70131 18.8047 7.70131C18.7878 7.70131 18.7632 7.62673 18.7494 7.53522C18.6991 7.20434 18.684 7.16217 18.6089 7.14232C18.5017 7.11425 18.5114 6.99831 18.621 6.99667C18.7066 6.99526 18.7067 6.99408 18.6304 6.95133C18.5878 6.9269 18.5393 6.88767 18.5238 6.86441C18.504 6.83493 18.4949 6.83457 18.4943 6.86359C18.4937 6.88649 18.3809 6.92784 18.2436 6.95509C17.9801 7.00759 17.8955 6.9895 17.7867 6.85677C17.7354 6.79487 17.7417 6.79135 17.8647 6.81543C17.9574 6.8341 18.027 6.82318 18.0933 6.77984C18.15 6.7426 18.2258 6.72674 18.2825 6.74107C18.3384 6.75517 18.3766 6.74742 18.3766 6.72275C18.3766 6.69491 18.4353 6.68916 18.5469 6.70584C18.6825 6.72592 18.7221 6.71876 18.7413 6.66942C18.7708 6.59202 18.8872 6.59061 19.1291 6.66402C19.3094 6.71911 19.3149 6.71817 19.3149 6.63853C19.3149 6.59354 19.3455 6.53387 19.3834 6.50486C19.4456 6.45753 19.4424 6.45271 19.3466 6.45153C19.2216 6.45013 19.1934 6.41571 19.2236 6.30036C19.2416 6.23188 19.2758 6.21485 19.4073 6.21262C19.4962 6.21062 19.547 6.20052 19.5203 6.18972C19.4932 6.17879 19.4713 6.14579 19.4713 6.11572C19.4713 5.97465 19.0699 5.86282 18.9336 5.96572C18.7951 6.07073 18.5327 6.00472 18.5327 5.86482C18.5327 5.82347 18.5153 5.77931 18.4937 5.76615C18.4235 5.72281 18.4524 5.62931 18.5367 5.62931C18.5858 5.62931 18.6268 5.66056 18.6391 5.70731C18.6503 5.75006 18.6781 5.78565 18.7007 5.78565C18.7233 5.78565 18.7739 5.8149 18.8125 5.8499C18.8785 5.90922 18.8853 5.90922 18.908 5.8499C18.9214 5.8149 18.957 5.78565 18.9872 5.78565C19.052 5.78565 19.059 5.72316 18.9993 5.68581C18.9758 5.67148 18.9654 5.62708 18.9758 5.5875C18.9892 5.53593 18.9563 5.49259 18.8616 5.43668C18.7279 5.35786 18.6869 5.27928 18.7775 5.27576C18.8573 5.27259 18.487 5.09428 18.338 5.06327C18.2624 5.04777 18.0073 4.9417 17.7707 4.82753C17.5338 4.71336 17.3007 4.60846 17.2523 4.59413C17.1533 4.56512 17.1329 4.49547 17.2227 4.49547C17.2547 4.49547 17.2815 4.47773 17.2815 4.45647C17.2815 4.43498 17.308 4.41747 17.34 4.41747C17.3723 4.41747 17.3985 4.43498 17.3985 4.45647C17.3985 4.47773 17.4469 4.4957 17.5063 4.4957C17.5651 4.49594 17.6666 4.52378 17.7312 4.55796C17.8889 4.64088 18.259 4.68035 18.259 4.61422C18.259 4.58356 18.2849 4.57522 18.3276 4.5919C18.3651 4.60623 18.5984 4.66097 18.8457 4.71406C19.0929 4.76657 19.3307 4.82624 19.3737 4.8462C19.5661 4.93653 19.7609 5.0036 19.8303 5.0036C19.8719 5.0036 19.9579 5.0305 20.0209 5.06327C20.1248 5.11695 20.1362 5.11695 20.1362 5.06327C20.1362 5.03062 20.1542 5.0036 20.1757 5.0036C20.197 5.0036 20.2147 5.03026 20.2147 5.0621C20.2147 5.09416 20.2455 5.12083 20.2836 5.12083C20.3217 5.12083 20.4491 5.15759 20.5672 5.20258C20.6851 5.24733 20.8442 5.29725 20.9208 5.31323C21.0774 5.34529 21.466 5.54603 21.466 5.59513C21.466 5.63953 21.0204 5.54063 20.6645 5.41706C20.6215 5.40191 20.6523 5.43022 20.7325 5.4799C20.8127 5.52959 20.879 5.59255 20.879 5.61956C20.8793 5.64623 20.8977 5.66831 20.9195 5.66831C20.9414 5.66831 21.0343 5.73632 21.1248 5.82007C21.2156 5.90382 21.4749 6.08212 21.7008 6.21614C21.9268 6.3504 22.1666 6.51238 22.2342 6.57604C22.3116 6.64922 22.3667 6.67612 22.3832 6.64946C22.4212 6.58779 22.3728 6.52847 22.3058 6.5542C22.2515 6.57487 22.2423 6.56054 22.2329 6.44061C22.2308 6.41371 22.2022 6.37119 22.1705 6.34629C22.0531 6.25479 22.1679 6.25279 22.4303 6.34053C22.7035 6.43227 22.7844 6.48736 22.7124 6.53153C22.6886 6.54668 22.6989 6.56676 22.7377 6.58203C22.7738 6.59578 22.8199 6.59672 22.8403 6.58403C22.861 6.57111 22.9019 6.58086 22.9321 6.60553C22.9621 6.63078 23.0407 6.65227 23.107 6.65404C23.1944 6.65686 23.2245 6.67471 23.2171 6.72028C23.2108 6.76104 23.2363 6.78313 23.292 6.78395C23.3935 6.78536 23.7743 7.0951 23.7743 7.17591C23.7743 7.25532 23.72 7.24557 23.6338 7.15042C23.593 7.10544 23.5245 7.05176 23.4812 7.03108C23.3886 6.98692 23.6163 7.19741 23.9584 7.4718C24.0986 7.5842 24.2515 7.75253 24.3195 7.86987C24.4419 8.07895 24.913 8.58391 25.147 8.75658L25.2793 8.85442L25.1325 8.65368C24.9795 8.44437 24.9624 8.40478 25.0223 8.40478C25.0738 8.40478 25.7463 9.30007 25.7165 9.32931C25.7027 9.34282 25.6649 9.33166 25.6321 9.30441C25.5487 9.23499 25.5581 9.27493 25.6508 9.38182C25.7279 9.47132 25.7514 9.53816 25.7053 9.53816C25.6922 9.53816 25.5908 9.44149 25.4799 9.32332C25.3689 9.20551 25.262 9.10849 25.2426 9.10849C25.2231 9.10849 25.1724 9.07783 25.13 9.04024C25.054 8.97282 25.054 8.97317 25.1181 9.09874C25.1605 9.18108 25.1675 9.22548 25.1388 9.22548C25.1145 9.22548 25.105 9.25332 25.1175 9.28632C25.1328 9.32591 25.1253 9.33765 25.0966 9.31933C25.0065 9.26424 25.107 9.37982 25.2162 9.45723L25.3269 9.5364L25.3135 9.41999C25.2918 9.23358 25.3662 9.28527 25.4981 9.54849C25.6553 9.86223 25.6927 9.90921 25.7317 9.8459C25.7528 9.81231 25.8204 9.86164 25.9506 10.0053C26.1628 10.2387 26.2649 10.3907 26.4398 10.7308C26.5063 10.8596 26.5975 11.0036 26.643 11.05C26.7807 11.1902 26.8258 11.2541 26.8845 11.3952C26.9591 11.5727 26.9579 11.6644 26.8811 11.6349C26.8352 11.6172 26.8295 11.6275 26.8579 11.6797C26.9095 11.777 27.0583 12.5019 27.0583 12.6564C27.0583 12.7284 27.0965 12.8697 27.1433 12.9707C27.2383 13.1766 27.2893 13.5643 27.2212 13.5643C27.1981 13.5643 27.1593 13.4898 27.1357 13.3983C27.0655 13.1265 27.052 13.0885 27.0331 13.108C27.0231 13.118 27.0404 13.2628 27.0724 13.4307C27.1252 13.7094 27.1443 13.7488 27.3018 13.8944C27.5227 14.0983 27.5897 14.3366 27.6247 15.0404C27.647 15.4952 27.643 15.5582 27.5888 15.5582C27.5553 15.5582 27.5275 15.5318 27.5275 15.4997C27.5275 15.4673 27.501 15.441 27.4693 15.441C27.4373 15.441 27.4108 15.4146 27.4108 15.3827C27.4108 15.295 27.3416 15.3119 27.3116 15.4066C27.2795 15.5078 27.3259 15.9105 27.3695 15.9105C27.3872 15.9105 27.4127 15.9857 27.4265 16.0771C27.4445 16.1949 27.4764 16.2557 27.5349 16.2824C27.7085 16.3621 27.7981 17.0819 27.7079 17.6684C27.6763 17.872 27.6317 18.0449 27.6086 18.0529C27.5857 18.0601 27.5668 18.0919 27.5668 18.1217C27.5668 18.1525 27.5491 18.1774 27.5275 18.1774C27.506 18.1774 27.4885 18.1507 27.4885 18.1183C27.4885 18.0443 27.3271 17.6933 27.2849 17.6755C27.2336 17.654 27.2497 17.5831 27.3167 17.5342C27.3724 17.4934 27.3681 17.4805 27.2774 17.4214C27.1477 17.3362 27.1458 17.2023 27.2716 17.0842C27.3528 17.0079 27.3783 17.0016 27.4292 17.0434C27.4626 17.0712 27.5008 17.083 27.5147 17.0692C27.5542 17.0294 27.4057 16.5359 27.3541 16.5359C27.3272 16.5359 27.2781 16.4061 27.2393 16.233C27.1226 15.7098 27.0893 15.5847 27.0054 15.3439L26.9228 15.1093L26.8826 15.3212C26.8438 15.5228 26.7624 15.6254 26.7297 15.5134C26.7215 15.4847 26.6941 15.3863 26.6694 15.2951C26.6445 15.2036 26.6095 15.129 26.5918 15.129C26.5735 15.129 26.4916 15.0674 26.4094 14.9922C26.3274 14.9164 26.2502 14.8554 26.2385 14.8559C26.1971 14.8571 25.9625 15.4114 25.9625 15.5071C25.9625 15.5596 25.9379 15.685 25.908 15.7861C25.8432 16.0049 25.7597 16.4798 25.7637 16.608C25.7652 16.6583 25.7241 16.7872 25.6725 16.8953C25.5857 17.0769 25.5824 17.1015 25.6345 17.2249C25.6649 17.2985 25.692 17.4417 25.6941 17.5434C25.699 17.7643 25.7544 17.9705 25.8205 18.0114C25.9184 18.0717 26.0405 18.2913 26.0405 18.4069C26.0405 18.5555 25.9708 18.7133 25.8916 18.7435C25.8118 18.7742 25.7734 18.7053 25.7423 18.4782C25.7142 18.2709 25.6643 18.278 25.5927 18.5C25.5611 18.5969 25.5292 18.6274 25.457 18.6274C25.3822 18.6274 25.3394 18.583 25.2514 18.4123C25.1902 18.2945 25.1229 18.1915 25.1012 18.1846C25.0794 18.1772 25.0186 18.0806 24.9659 17.9696C24.9132 17.8587 24.8271 17.7224 24.7755 17.6671C24.7239 17.612 24.6697 17.5283 24.6545 17.4815C24.6396 17.4349 24.6095 17.3964 24.5871 17.3964C24.5649 17.3964 24.5556 17.3723 24.5671 17.3425C24.5786 17.3126 24.5455 17.2257 24.493 17.1491C24.441 17.0725 24.3987 16.9922 24.3987 16.9707C24.3987 16.9488 24.3347 16.9397 24.2507 16.9497C24.1514 16.9618 24.0531 16.942 23.9496 16.8888C23.8647 16.8456 23.7724 16.81 23.7449 16.81C23.7174 16.81 23.6944 16.785 23.6944 16.7546C23.6944 16.7239 23.6405 16.6873 23.5745 16.6729C23.5084 16.6582 23.4451 16.6214 23.4334 16.5906C23.4213 16.5599 23.3767 16.5154 23.3335 16.4929C23.272 16.4602 23.2326 16.4667 23.1523 16.5252C23.0959 16.5659 22.9875 16.6244 22.9126 16.6543C22.8372 16.685 22.7414 16.7408 22.6993 16.7802C22.6569 16.8188 22.6044 16.8438 22.582 16.8359C22.5594 16.8281 22.4619 16.8447 22.3654 16.8737C22.1464 16.9397 21.9265 16.9419 21.8647 16.8802C21.7959 16.8118 21.8026 16.9411 21.875 17.0808C21.9411 17.2087 22.0219 17.2491 22.1467 17.2178C22.2009 17.2041 22.291 17.229 22.3819 17.2827C22.5192 17.3632 22.5275 17.3786 22.5043 17.5098C22.4909 17.5872 22.4699 17.7163 22.4576 17.7971C22.4441 17.8861 22.4141 17.9436 22.3808 17.9436C22.3441 17.9436 22.326 17.9912 22.326 18.0908C22.326 18.1952 22.3039 18.2516 22.248 18.2866C22.205 18.3134 22.1694 18.3721 22.1694 18.4165C22.1694 18.4658 22.1378 18.5066 22.0894 18.5192C22.0409 18.5317 22.0005 18.5834 21.9873 18.649C21.9738 18.717 21.9337 18.766 21.8821 18.7795C21.7519 18.8127 21.5116 19.0298 21.4979 19.1267C21.4902 19.1809 21.4113 19.2623 21.29 19.3417C21.1824 19.4123 21.0526 19.5084 21.0021 19.5554C20.8851 19.6635 20.5226 19.8978 20.4721 19.8978C20.4508 19.8978 20.3861 19.9434 20.3277 19.9993C20.2633 20.0614 20.1721 20.1031 20.0941 20.1068C19.9793 20.1123 19.957 20.0947 19.8775 19.937C19.7669 19.7168 19.7384 19.6346 19.7249 19.4912C19.7175 19.4116 19.6541 19.3225 19.517 19.1977C19.4086 19.0988 19.3099 18.9821 19.2974 18.9371C19.285 18.8923 19.2176 18.8313 19.1482 18.8003C19.0498 18.757 19.0094 18.7053 18.9678 18.5689C18.8777 18.2737 18.7986 18.1381 18.7006 18.1137C18.6498 18.1005 18.5818 18.0397 18.5497 17.9776C18.5174 17.9157 18.4763 17.8648 18.4578 17.8648C18.4394 17.8648 18.4133 17.8252 18.4001 17.7771C18.3583 17.6268 18.1277 17.3887 18.0519 17.4177C18.0152 17.4317 17.9852 17.4699 17.9852 17.5027C17.9852 17.5778 18.188 17.934 18.2972 18.051C18.3428 18.0994 18.3703 18.155 18.3583 18.1745C18.3296 18.2211 18.3747 18.3339 18.4223 18.3339C18.5321 18.3339 18.6732 18.5725 18.7108 18.8226C18.7315 18.9618 18.7615 19.0133 18.8507 19.0661C18.9132 19.103 19.0027 19.2129 19.0488 19.31C19.0953 19.4069 19.1524 19.4998 19.1756 19.5154C19.2036 19.5349 19.202 19.5444 19.1692 19.5446C19.1432 19.545 19.132 19.5719 19.1443 19.604C19.1742 19.6811 19.2366 19.6792 19.2366 19.6012C19.2366 19.5601 19.2653 19.5439 19.3244 19.5525C19.3823 19.5605 19.4124 19.5917 19.4124 19.6433C19.4124 19.6914 19.4754 19.7634 19.5779 19.8323C19.8256 19.9974 19.9633 20.1391 19.9931 20.2578C20.0357 20.4311 20.1479 20.4634 20.3626 20.3662C20.4639 20.3203 20.5729 20.266 20.6049 20.2463C20.637 20.2262 20.6901 20.199 20.7219 20.1861C20.9762 20.0848 21.2166 19.9585 21.2424 19.9127C21.2595 19.8827 21.3082 19.858 21.35 19.858C21.407 19.858 21.4262 19.8849 21.4262 19.9672C21.4262 20.0275 21.4481 20.0991 21.475 20.1261C21.5142 20.1657 21.5108 20.1829 21.4569 20.2133C21.4201 20.234 21.3996 20.2752 21.411 20.305C21.4222 20.3346 21.393 20.4339 21.3459 20.5262C21.2991 20.618 21.218 20.8058 21.1666 20.9438C21.0192 21.3352 20.83 21.5938 20.317 22.1043C19.6082 22.8107 19.235 23.2588 19.3558 23.2588C19.4168 23.2588 19.3971 23.4085 19.3341 23.4223C19.283 23.4332 19.2826 23.4482 19.3307 23.5405C19.3936 23.6609 19.391 23.7332 19.3207 23.818C19.2547 23.8972 19.3015 24.0675 19.3956 24.0916C19.4626 24.1093 19.4699 24.147 19.4644 24.4569L19.4581 24.8027L19.2969 24.9587C19.2055 25.0476 19.048 25.1463 18.9338 25.1869C18.8226 25.2259 18.71 25.2844 18.6832 25.3164C18.6563 25.3484 18.5668 25.4093 18.4834 25.4517C18.3171 25.5372 18.2662 25.6171 18.3304 25.6942C18.3801 25.7545 18.3463 26.0165 18.2823 26.0673C18.2582 26.086 18.1484 26.131 18.0386 26.1665C17.8705 26.2216 17.8278 26.2561 17.7713 26.3804C17.7043 26.5296 17.6913 26.5394 17.1506 26.8249C16.8193 27.0002 16.6013 27.0423 15.9314 27.0616C15.5868 27.0712 15.2567 27.0716 15.1977 27.0618ZM18.2653 24.3957C18.2328 24.3137 18.1878 24.5371 18.2147 24.6464C18.2299 24.7066 18.2406 24.6945 18.262 24.5913C18.2774 24.5179 18.2786 24.4299 18.2653 24.3957ZM17.4367 23.8496C17.4367 23.8307 17.4003 23.8055 17.3561 23.794C17.2901 23.7768 17.2841 23.783 17.3219 23.8284C17.3736 23.8908 17.4367 23.9024 17.4367 23.8496ZM18.0005 22.9464C18.0806 22.9464 18.1915 22.799 18.1645 22.7285C18.1461 22.6803 18.1129 22.6715 18.0329 22.6912C17.9741 22.7056 17.9196 22.734 17.913 22.7537C17.9056 22.7738 17.8768 22.7899 17.8484 22.7899C17.8207 22.7899 17.7902 22.8424 17.7811 22.9061C17.767 22.9992 17.779 23.0233 17.845 23.0328C17.8895 23.0392 17.9315 23.0225 17.9385 22.9956C17.9453 22.9685 17.9736 22.9464 18.0005 22.9464ZM27.4857 17.7335C27.4484 17.6991 27.4429 17.7054 27.4627 17.7607C27.4765 17.8 27.4902 17.8619 27.4932 17.8975C27.4966 17.9334 27.5066 17.9209 27.5161 17.8703C27.5258 17.8195 27.5117 17.7579 27.4857 17.7335ZM27.4487 17.6107C27.4487 17.5359 27.4243 17.5359 27.3957 17.6107C27.3831 17.6432 27.3896 17.6696 27.4108 17.6696C27.4317 17.6696 27.4487 17.6432 27.4487 17.6107ZM21.3482 17.3228C21.3488 17.2678 21.3543 17.2669 21.3855 17.3171C21.4346 17.3945 21.4718 17.353 21.62 17.0539C21.6865 16.9191 21.7583 16.8095 21.779 16.8095C21.7996 16.8095 21.8165 16.7877 21.8157 16.7608C21.8149 16.7337 21.7702 16.7626 21.7154 16.8245C21.5907 16.9659 21.342 17.0055 21.1611 16.912C21.0943 16.8775 21.0125 16.8598 20.9795 16.8724C20.921 16.8945 20.6435 16.6447 20.6435 16.5698C20.6435 16.5512 20.6249 16.536 20.6019 16.536C20.5789 16.536 20.5715 16.5186 20.5847 16.497C20.5979 16.4755 20.5901 16.458 20.5672 16.458C20.5447 16.458 20.5254 16.4973 20.5252 16.5457C20.5246 16.6168 20.5174 16.6225 20.4868 16.575C20.4541 16.5245 20.4486 16.525 20.448 16.5817C20.4478 16.6175 20.4257 16.6565 20.3987 16.6682C20.3652 16.6826 20.3774 16.7098 20.438 16.7542C20.4862 16.7898 20.5258 16.8428 20.5258 16.8718C20.5258 16.9013 20.5504 16.9148 20.5817 16.9028C20.6147 16.8899 20.6654 16.9257 20.7082 16.992C20.7472 17.0528 20.8053 17.126 20.838 17.1546C20.8704 17.1829 20.8782 17.197 20.855 17.1853C20.8318 17.1741 20.8123 17.1874 20.8123 17.2155C20.8123 17.243 20.8375 17.2656 20.8677 17.2656C20.9049 17.2656 20.9173 17.235 20.9058 17.1737C20.8906 17.0947 20.9 17.0853 20.971 17.1068C21.0767 17.1389 21.0699 17.1309 21.1105 17.2714C21.1343 17.3551 21.1306 17.3975 21.0993 17.4111C21.0673 17.4242 21.0697 17.4409 21.1091 17.468C21.18 17.5164 21.3471 17.4149 21.3482 17.3228ZM15.364 16.7313C15.3811 16.5781 15.4007 16.5469 15.5203 16.4872C15.6978 16.3989 15.8538 16.4004 15.9451 16.4918C15.9852 16.532 16.0861 16.5776 16.1702 16.5931C16.2536 16.6088 16.3396 16.6355 16.3612 16.6524C16.3827 16.6695 16.4618 16.6931 16.5373 16.7055C16.6125 16.7176 16.7623 16.7439 16.8696 16.7642C17.0369 16.7952 17.081 16.79 17.1699 16.7267C17.2789 16.649 17.4745 16.6304 17.7125 16.6736C17.8926 16.7066 17.9166 16.6748 18.0199 16.2599C18.1216 15.8511 18.0967 15.6259 17.9471 15.6046C17.8937 15.5972 17.841 15.6164 17.8215 15.6506C17.771 15.7403 17.5619 15.7735 17.4827 15.7045C17.3789 15.6133 17.2412 15.5825 17.2412 15.6503C17.2412 15.7627 17.0359 15.7897 16.9361 15.6901C16.8758 15.6299 16.8696 15.6316 16.8499 15.7166C16.8282 15.8092 16.7329 15.8746 16.7329 15.7971C16.7329 15.7737 16.6963 15.718 16.6517 15.6736C16.6073 15.6292 16.5809 15.5663 16.593 15.5339C16.6096 15.4906 16.5958 15.482 16.5373 15.5009C16.4816 15.5187 16.4595 15.5075 16.4595 15.4619C16.4595 15.4273 16.477 15.4092 16.4985 15.4223C16.5198 15.4355 16.5375 15.4281 16.5375 15.4052C16.5375 15.3823 16.5106 15.3636 16.477 15.3636C16.4301 15.3636 16.4188 15.3244 16.4256 15.1884C16.4308 15.092 16.4228 15.0011 16.4079 14.9864C16.3927 14.9713 16.3807 14.9801 16.3807 15.0051C16.3807 15.0301 16.3543 15.0505 16.3225 15.0505C16.2904 15.0505 16.264 15.0244 16.264 14.992C16.264 14.9601 16.2815 14.9335 16.303 14.9335C16.3246 14.9335 16.342 14.9042 16.342 14.8686C16.342 14.8171 16.327 14.8219 16.2651 14.8931C16.2221 14.9418 16.133 14.9931 16.0658 15.0069L15.9439 15.0318L16.0454 15.141C16.1027 15.2029 16.1664 15.2383 16.192 15.2228C16.2166 15.2073 16.2266 15.2116 16.214 15.2317C16.2015 15.2518 16.2622 15.3453 16.3488 15.4394C16.4838 15.5854 16.4974 15.6148 16.4429 15.6453C16.4079 15.6645 16.3895 15.6972 16.4019 15.7173C16.4144 15.7374 16.4082 15.754 16.3875 15.754C16.3669 15.754 16.34 15.728 16.3279 15.6961C16.3153 15.6631 16.2797 15.6482 16.2455 15.6615C16.2029 15.6778 16.1853 15.6601 16.1853 15.601C16.1853 15.5007 16.074 15.447 16.0255 15.5238C16.0068 15.5539 15.9909 15.6267 15.9903 15.6858C15.9903 15.7449 15.9722 15.793 15.9507 15.793C15.9294 15.793 15.9117 15.7793 15.9117 15.7624C15.9117 15.7457 15.859 15.7119 15.7947 15.6878C15.7155 15.658 15.6771 15.6167 15.6771 15.5619C15.6771 15.5169 15.6519 15.4801 15.6209 15.4801C15.5395 15.4801 15.5019 15.399 15.5646 15.3591C15.6038 15.3347 15.6054 15.325 15.5698 15.3247C15.5429 15.3245 15.521 15.2897 15.521 15.2481C15.521 15.2063 15.5029 15.1612 15.4812 15.1478C15.4072 15.1019 15.3278 14.8528 15.3507 14.738C15.369 14.6479 15.3515 14.6043 15.2673 14.5263C15.2094 14.4724 15.1016 14.4085 15.0284 14.3841C14.9552 14.3603 14.8953 14.3216 14.8953 14.2989C14.8953 14.2766 14.8557 14.2195 14.8076 14.1718C14.6622 14.0308 14.5822 13.919 14.5822 13.8573C14.5822 13.7684 14.5056 13.7885 14.4674 13.8874C14.4413 13.9554 14.4548 13.9978 14.5277 14.0752C14.579 14.1303 14.6212 14.2027 14.6212 14.2361C14.6212 14.3304 14.7743 14.5031 14.8589 14.5031C14.9002 14.5031 14.9341 14.5263 14.9341 14.5542C14.9341 14.5826 15.0138 14.6612 15.1104 14.7297C15.2888 14.8556 15.3139 14.9069 15.2483 15.011C15.2173 15.0603 15.1989 15.0554 15.1293 14.9806C15.084 14.9321 15.029 14.9034 15.0069 14.9171C14.9797 14.9338 14.9805 14.9555 15.0093 14.9842C15.0325 15.0077 15.052 15.0568 15.052 15.0932C15.052 15.1855 14.8541 15.4024 14.7695 15.4024C14.7182 15.4024 14.7001 15.433 14.7001 15.5197C14.7001 15.6496 14.6264 15.6749 14.5298 15.5782C14.4974 15.5458 14.4592 15.5197 14.4449 15.5197C14.3852 15.5197 14.1916 15.354 14.1916 15.3026C14.1916 15.2332 14.3792 15.1833 14.4337 15.2378C14.4827 15.2865 14.7463 15.2519 14.7884 15.1911C14.8358 15.123 14.7833 14.9732 14.6804 14.8811C14.4685 14.6921 14.3795 14.6204 14.3549 14.6195C14.3402 14.6189 14.2769 14.5487 14.2138 14.4632C14.1507 14.3774 14.0759 14.3078 14.0477 14.3078C14.0195 14.3078 13.9964 14.29 13.9964 14.2685C13.9964 14.247 14.0151 14.2295 14.0386 14.2295C14.0953 14.2295 14.0406 14.0655 13.9651 14.0105C13.9202 13.9778 13.8756 13.9818 13.7851 14.0268C13.5545 14.1412 13.5281 14.1515 13.4753 14.1515C13.4461 14.1515 13.3661 14.1235 13.2973 14.0893C13.1445 14.013 13.0584 14.0403 13.0584 14.1653C13.0584 14.2779 13.0114 14.3195 12.8043 14.3909C12.5981 14.4617 12.3857 14.6521 12.414 14.7402C12.4372 14.8137 12.2156 15.0657 12.1587 15.0307C12.1406 15.0196 12.0996 15.0371 12.067 15.0697C11.9996 15.1371 11.8935 15.1449 11.7547 15.0918C11.6256 15.0428 11.4937 15.0823 11.4937 15.1701C11.4937 15.2571 11.5315 15.2828 11.6761 15.2937C11.7372 15.2983 11.8088 15.3232 11.8355 15.3488C11.8675 15.3804 11.9192 15.3846 11.9918 15.3623C12.4194 15.2302 12.5146 15.2258 13.2536 15.3096C13.3714 15.3231 13.5619 15.3322 13.6757 15.3299C13.8206 15.3271 13.889 15.3425 13.9037 15.381C13.9155 15.4116 13.9499 15.4269 13.9805 15.4152C14.0175 15.4008 14.0359 15.4212 14.0359 15.4774C14.0359 15.5233 14.01 15.5706 13.9788 15.5824C13.934 15.6002 13.9312 15.6223 13.9653 15.6889C14.0805 15.9128 14.082 15.9202 14.0295 15.9538C14.0005 15.9722 13.9483 15.9871 13.9131 15.9877C13.8779 15.9877 13.8383 16.0157 13.825 16.049C13.8119 16.084 13.8184 16.0995 13.8411 16.0852C13.8624 16.072 13.9392 16.1242 14.0114 16.2007C14.0843 16.2778 14.1809 16.3402 14.2283 16.3402C14.3842 16.3402 14.6618 16.4918 14.6618 16.5767C14.6618 16.6261 14.7016 16.67 14.769 16.6961C14.8284 16.7187 14.956 16.7781 15.0527 16.8277C15.2963 16.9538 15.3405 16.9406 15.364 16.7313ZM16.1341 15.9994C16.072 15.9903 16.031 15.9627 16.0396 15.9369C16.0571 15.8842 16.0629 15.8838 16.3124 15.9264C16.6573 15.9859 16.4921 16.0537 16.1341 15.9994ZM17.5147 15.9863C17.5147 15.9298 17.6171 15.8305 17.6458 15.8592C17.6583 15.8717 17.7131 15.8528 17.7679 15.817C17.8696 15.7502 17.9032 15.7802 17.8197 15.8635C17.7939 15.8894 17.7885 15.9103 17.8076 15.9103C17.8265 15.9103 17.8086 15.9363 17.7666 15.9679C17.6779 16.035 17.5147 16.0468 17.5147 15.9863ZM16.6011 15.8908C16.6303 15.8159 16.6548 15.8159 16.6548 15.8908C16.6548 15.9232 16.6376 15.9495 16.6169 15.9495C16.5959 15.9495 16.5889 15.9234 16.6011 15.8908ZM14.5033 15.7539C14.5033 15.704 14.5312 15.704 14.5621 15.7539C14.5752 15.7758 14.5675 15.7929 14.5446 15.7929C14.522 15.7929 14.5033 15.776 14.5033 15.7539ZM13.6775 15.0241C13.6749 15.0061 13.6763 14.9746 13.6809 14.9531C13.6855 14.9316 13.6886 14.8415 13.6886 14.7523C13.6886 14.627 13.703 14.5924 13.7531 14.5964C13.8036 14.6003 13.8148 14.5709 13.8056 14.4573C13.7967 14.3449 13.8116 14.3045 13.8753 14.2703C13.9459 14.2321 13.9556 14.2379 13.9533 14.3162C13.9519 14.3655 13.9366 14.441 13.9197 14.4834C13.9022 14.5263 13.903 14.6007 13.9209 14.6485C13.9455 14.7145 13.9077 14.941 13.8626 14.9967C13.8395 15.025 13.6809 15.0482 13.6775 15.0241ZM12.8035 14.7792C12.769 14.7236 12.813 14.6599 12.8855 14.6599C12.9193 14.6599 12.9394 14.6871 12.9316 14.725C12.9167 14.8036 12.8387 14.8363 12.8035 14.7792ZM13.0174 14.7012C13.0174 14.6786 13.0351 14.6599 13.0566 14.6599C13.1065 14.6599 13.1065 14.6874 13.0566 14.7184C13.0349 14.7317 13.0174 14.7239 13.0174 14.7012ZM16.2678 15.4694C16.2358 15.4376 16.2246 15.4419 16.2246 15.4858C16.2246 15.5638 16.277 15.6163 16.2963 15.5578C16.3046 15.5331 16.2917 15.4933 16.2678 15.4694ZM20.617 14.9235C20.6744 14.8813 20.6773 14.8572 20.6354 14.7474C20.6087 14.6778 20.5735 14.6207 20.5566 14.6207C20.5395 14.6207 20.5258 14.5983 20.5258 14.5711C20.5258 14.5436 20.4905 14.4559 20.4475 14.3758C20.4046 14.2957 20.3692 14.2057 20.3692 14.1756C20.3692 14.1461 20.3425 14.0998 20.3107 14.0729C20.2784 14.0463 20.252 13.9826 20.252 13.9315C20.252 13.8641 20.2301 13.8388 20.1719 13.8388C20.1283 13.8388 20.0479 13.7947 19.9946 13.741C19.9405 13.6871 19.8808 13.6432 19.8621 13.6432C19.8432 13.6432 19.7954 13.6024 19.7564 13.5528C19.6607 13.4319 19.5648 13.4003 19.5063 13.4711C19.4707 13.5135 19.4693 13.5511 19.5 13.6153C19.5229 13.6627 19.5521 13.7455 19.5645 13.7994C19.5766 13.8531 19.5998 13.9152 19.6164 13.937C19.6777 14.02 20.069 14.3075 20.1202 14.3075C20.1498 14.3075 20.1739 14.3339 20.1739 14.366C20.1739 14.3981 20.1466 14.4247 20.113 14.4247C20.0639 14.4247 20.0551 14.4675 20.0643 14.6493C20.0748 14.8558 20.084 14.8756 20.1739 14.8873C20.2278 14.8945 20.2886 14.9168 20.3086 14.936C20.3627 14.9883 20.5393 14.9808 20.617 14.9235ZM16.85 14.8162C16.85 14.7947 16.8223 14.777 16.7891 14.777C16.7557 14.777 16.7386 14.7947 16.7522 14.8162C16.7835 14.8667 16.85 14.8667 16.85 14.8162ZM17.3495 14.5664C17.5055 14.4666 17.8668 14.3975 17.8668 14.4675C17.8668 14.4898 17.8851 14.497 17.9076 14.483C17.93 14.469 17.9744 14.479 18.0054 14.5051C18.0375 14.5315 18.1757 14.5521 18.3188 14.5521C18.5311 14.5521 18.591 14.5372 18.669 14.4637C18.7862 14.3539 18.7515 14.2713 18.5425 14.1615C18.4611 14.1188 18.2979 14.0328 18.1794 13.9693C17.9488 13.8466 17.8674 13.8452 17.7039 13.961C17.5772 14.0511 17.4757 14.0559 17.4757 13.9725C17.4757 13.9381 17.4393 13.9005 17.3943 13.8888C17.3386 13.8741 17.3189 13.8448 17.3321 13.7947C17.3455 13.7434 17.33 13.7219 17.28 13.7219C17.2406 13.7219 17.1997 13.6998 17.1885 13.6731C17.1624 13.6095 17.0088 13.793 17.0076 13.8884C17.0067 13.9262 16.9711 13.9873 16.9278 14.0241C16.8849 14.0613 16.8499 14.1393 16.8499 14.1996C16.8499 14.2592 16.8338 14.3082 16.8151 14.3082C16.7491 14.3082 16.7351 14.4823 16.7932 14.5714C16.8758 14.6963 17.15 14.6941 17.3495 14.5664ZM18.0355 13.6681C18.047 13.6382 18.0378 13.5958 18.0154 13.5734C17.9633 13.5209 17.7886 13.5949 17.7886 13.6695C17.7886 13.7397 18.0086 13.7383 18.0355 13.6681ZM15.1856 12.0202C15.2779 11.95 15.4096 11.946 15.4746 12.0113C15.5082 12.0449 15.5317 12.0469 15.5509 12.0182C15.5664 11.9953 15.6074 11.9661 15.6429 11.9528C15.6839 11.9376 15.7144 11.8682 15.7273 11.7604C15.7384 11.6675 15.7789 11.4997 15.8174 11.3873C15.8759 11.2167 15.9069 11.1788 16.007 11.1534C16.112 11.1267 16.0985 11.1207 15.8917 11.1032C15.7549 11.0917 15.6506 11.0992 15.6411 11.1219C15.6136 11.1879 15.5396 11.248 15.4518 11.2756C15.3637 11.3035 15.3024 11.4262 15.3434 11.4927C15.3703 11.5355 15.2979 11.6928 15.2308 11.7374C15.2073 11.7535 15.1484 11.7664 15.1 11.7668C15.0091 11.7674 14.9822 11.8225 15.0513 11.8652C15.11 11.9016 15.0978 11.9627 15.0316 11.9627C14.9995 11.9627 14.9731 11.9452 14.9731 11.9237C14.9731 11.9022 14.9291 11.8847 14.8752 11.8847C14.8213 11.8847 14.7774 11.9022 14.7774 11.9237C14.7774 11.9452 14.8038 11.9627 14.8359 11.9627C14.8683 11.9627 14.895 11.9896 14.895 12.0214C14.8945 12.0976 15.0838 12.097 15.1856 12.0202ZM15.4422 11.5471C15.4422 11.5017 15.4689 11.4421 15.5015 11.4149C15.5939 11.3375 15.6028 11.3871 15.5187 11.515C15.4511 11.6176 15.4426 11.6213 15.4422 11.5471ZM14.7357 11.6526C14.7816 11.6235 14.783 11.6001 14.744 11.5261C14.7156 11.4716 14.705 11.465 14.7176 11.5083C14.7308 11.5525 14.7116 11.6024 14.6703 11.6345C14.5931 11.6925 14.6476 11.7082 14.7357 11.6526ZM16.1319 11.5129C16.1658 11.4248 16.0711 11.3247 16.0058 11.3792C15.9644 11.4128 15.9636 11.4377 16.0004 11.4968C16.0568 11.5873 16.1015 11.5927 16.1319 11.5129ZM17.6713 11.2224C17.6713 11.1693 17.6022 11.1347 17.5775 11.1748C17.554 11.2127 17.5879 11.2594 17.6386 11.2594C17.6567 11.2594 17.6713 11.2429 17.6713 11.2224ZM16.5122 11.0441C16.5408 10.9693 16.5207 10.9693 16.4588 11.0441C16.4305 11.0779 16.427 11.1026 16.45 11.1026C16.4719 11.1028 16.4996 11.0765 16.5122 11.0441ZM15.7651 10.8534C15.7975 10.8058 15.7878 10.3994 15.7542 10.3994C15.7424 10.3994 15.6794 10.4487 15.6137 10.5086C15.4589 10.65 15.4124 10.818 15.509 10.8906C15.5828 10.946 15.715 10.9271 15.7651 10.8534ZM16.9673 10.8892C16.9673 10.8393 16.8569 10.7507 16.7937 10.7507C16.7539 10.7507 16.7706 10.8516 16.8187 10.8993C16.8836 10.9644 16.9673 10.9584 16.9673 10.8892ZM16.0118 10.2581C16.16 10.1448 16.1876 10.0476 16.0705 10.0476C15.9939 10.0476 15.8721 10.1433 15.8721 10.2036C15.8721 10.2217 15.8615 10.2646 15.8486 10.2982C15.8148 10.3862 15.8575 10.3756 16.0118 10.2581ZM17.2216 10.1646C17.2085 10.1433 17.1677 10.1268 17.1313 10.1282C17.077 10.1307 17.0794 10.1371 17.1434 10.1646C17.248 10.2099 17.2492 10.2099 17.2216 10.1646ZM17.417 9.95373C17.417 9.88114 17.3943 9.87198 17.219 9.87198C17.0418 9.87198 17.0225 9.87997 17.036 9.94997C17.0482 10.0142 17.0838 10.0291 17.234 10.0323C17.3952 10.0355 17.417 10.0263 17.417 9.95373ZM25.0799 9.23112C25.0918 9.21244 25.0765 9.17603 25.0465 9.15113C25.0014 9.11389 24.9949 9.12012 25.0124 9.18554C25.0352 9.27411 25.0481 9.28245 25.0799 9.23112ZM18.8104 8.08259C18.772 8.04418 18.7672 8.049 18.7885 8.10444C18.8032 8.1432 18.8251 8.16469 18.837 8.1526C18.8494 8.14085 18.837 8.10902 18.8104 8.08259ZM23.3815 6.98375C23.3815 6.976 23.3508 6.94499 23.3132 6.9155C23.2513 6.86699 23.2499 6.86852 23.2987 6.93042C23.3493 6.99514 23.3815 7.01617 23.3815 6.98375ZM20.5654 5.37807C20.5654 5.34858 20.0817 5.20281 20.06 5.22607C20.0363 5.25191 20.0491 5.2579 20.3308 5.35739C20.4871 5.41283 20.5654 5.41965 20.5654 5.37807ZM19.771 25.8473C19.7624 25.8318 19.753 25.7474 19.7503 25.6597C19.7461 25.5296 19.7673 25.4796 19.8642 25.3867C19.9677 25.2881 19.9797 25.2548 19.9586 25.1297C19.9305 24.9655 20.0222 24.7441 20.1175 24.7441C20.2263 24.7441 20.5287 24.578 20.6357 24.4602C21.0667 23.9825 21.0699 23.9796 21.1269 24.041C21.2032 24.1216 21.2359 24.4169 21.1743 24.4683C21.1475 24.4904 21.114 24.497 21.0999 24.4832C21.0856 24.4689 21.0741 24.5045 21.0741 24.5618C21.0741 24.6194 21.0563 24.6662 21.0348 24.6662C21.0132 24.6662 20.9959 24.6834 20.9959 24.7046C20.9959 24.75 20.7343 25.1726 20.5069 25.4951C20.3879 25.6643 20.3087 25.7335 20.177 25.7836C19.9784 25.8599 19.794 25.8886 19.771 25.8473ZM21.8561 24.8637C21.8561 24.8408 21.8735 24.8221 21.8951 24.8221C21.9453 24.8221 21.9453 24.8498 21.8951 24.8806C21.8736 24.8939 21.8561 24.8866 21.8561 24.8637ZM12.5869 22.4405C12.5869 22.4176 12.605 22.3989 12.6261 22.3989C12.6766 22.3989 12.6766 22.4266 12.6261 22.4574C12.6047 22.4709 12.5869 22.4634 12.5869 22.4405ZM6.02823 22.0958C5.59351 21.4172 5.05355 20.192 4.79114 19.2895C4.37357 17.8511 4.217 16.2079 4.36993 14.8626C4.43359 14.3048 4.50301 14.2702 4.49232 14.8021C4.47306 15.786 4.48022 16.1433 4.52098 16.1923C4.54483 16.2207 4.58465 16.3669 4.60955 16.5169C4.63421 16.6672 4.67063 16.8201 4.69013 16.8573C4.70939 16.8946 4.72595 17.0093 4.7263 17.1114C4.72689 17.2141 4.75121 17.4029 4.78081 17.5324C4.81064 17.6615 4.84588 17.8547 4.85962 17.9625C4.9032 18.3073 5.22434 19.0866 5.43201 19.3534C5.49191 19.4314 5.62241 19.6644 5.72108 19.8718C5.82033 20.0792 5.91641 20.2489 5.93532 20.2489C5.97632 20.2489 6.00674 20.3223 6.07874 20.5931C6.1585 20.8916 6.14816 20.9784 6.01508 21.1439L5.89609 21.2919L5.99816 21.6011C6.1114 21.9453 6.21006 22.3209 6.18716 22.3209C6.17882 22.3207 6.1074 22.2196 6.02823 22.0958ZM21.8168 19.6239C21.894 19.574 21.9843 19.574 21.9539 19.6239C21.9407 19.6451 21.8911 19.6629 21.844 19.6623C21.7744 19.6621 21.7692 19.6548 21.8168 19.6239ZM19.5485 19.3663C19.5485 19.2975 19.6328 19.3096 19.6569 19.3822C19.6655 19.4076 19.6447 19.4287 19.6104 19.4287C19.5766 19.4286 19.5485 19.4001 19.5485 19.3663ZM7.67714 17.9406C7.66305 17.9177 7.66082 17.8895 7.67221 17.8781C7.70005 17.85 7.77628 17.8993 7.77628 17.9451C7.77663 17.9953 7.70897 17.9921 7.67714 17.9406ZM7.81563 17.7866C7.81563 17.7363 7.84347 17.7363 7.87436 17.7866C7.88751 17.8078 7.88011 17.8258 7.85686 17.8258C7.8343 17.8258 7.81563 17.8081 7.81563 17.7866ZM7.61031 17.5339C7.53173 17.4264 7.52538 17.3957 7.58082 17.3957C7.60208 17.3957 7.61982 17.4161 7.61982 17.4414C7.61982 17.4666 7.6493 17.5196 7.68489 17.5589C7.72048 17.5982 7.73364 17.6295 7.71414 17.6292C7.69464 17.6282 7.64789 17.5858 7.61031 17.5339ZM26.8124 16.3556C26.7969 16.3401 26.7851 16.2818 26.7862 16.2267L26.7888 16.1256L26.8262 16.2197C26.8673 16.3217 26.8588 16.4021 26.8124 16.3556ZM9.44187 16.1502C9.42495 16.123 9.42213 16.0903 9.43494 16.0774C9.46994 16.0424 9.50811 16.0941 9.48909 16.1505C9.47581 16.1901 9.46653 16.1901 9.44187 16.1502ZM9.71296 16.0823C9.76923 16.0267 9.82396 15.99 9.83512 16.0006C9.86578 16.0312 9.72189 16.1843 9.66281 16.1843C9.63286 16.1841 9.65388 16.1417 9.71296 16.0823ZM9.30174 15.9885C9.30174 15.9672 9.32922 15.9495 9.36282 15.9495C9.39641 15.9495 9.41297 15.9672 9.39958 15.9885C9.36822 16.0396 9.30174 16.0396 9.30174 15.9885ZM9.57554 15.0898C9.57554 15.0399 9.60337 15.0399 9.63427 15.0898C9.64742 15.1113 9.63967 15.1288 9.61712 15.1288C9.59421 15.1288 9.57554 15.1113 9.57554 15.0898ZM8.98882 13.6044C8.98882 13.5542 9.01666 13.5542 9.04755 13.6044C9.06071 13.6257 9.05331 13.6436 9.0304 13.6436C9.00715 13.6436 8.98882 13.6259 8.98882 13.6044ZM8.77234 13.2897C8.73675 13.2318 8.76518 13.2109 8.82767 13.2501C8.86149 13.2705 8.86549 13.2909 8.83918 13.3069C8.81709 13.3207 8.78691 13.313 8.77234 13.2897ZM4.88863 12.9396C4.88863 12.8859 4.89756 12.8638 4.90837 12.8908C4.91894 12.9177 4.91894 12.9617 4.90837 12.9887C4.89744 13.0156 4.88863 12.9938 4.88863 12.9396ZM4.91295 12.5838C4.88394 12.508 4.96193 12.1582 5.00821 12.1582C5.04004 12.1582 5.01995 12.3303 4.96169 12.5476C4.94278 12.6193 4.93021 12.6284 4.91295 12.5838ZM5.35178 11.1808C5.35178 11.1596 5.36928 11.1418 5.39078 11.1418C5.41227 11.1418 5.42977 11.1596 5.42977 11.1808C5.42977 11.2023 5.41227 11.2201 5.39078 11.2201C5.36928 11.2201 5.35178 11.2023 5.35178 11.1808ZM5.46877 10.9644C5.46877 10.9156 5.59351 10.7063 5.61125 10.7244C5.63251 10.7453 5.51857 10.986 5.48733 10.986C5.47735 10.9856 5.46877 10.9761 5.46877 10.9644ZM13.5659 10.7048C13.5653 10.668 13.5836 10.6268 13.6069 10.6127C13.6754 10.5699 13.6855 10.615 13.6246 10.6953C13.5742 10.7616 13.5671 10.7624 13.5659 10.7048ZM5.62558 10.6385C5.62558 10.617 5.64332 10.5886 5.66481 10.5754C5.68607 10.5619 5.70381 10.5685 5.70381 10.5901C5.70381 10.6117 5.68607 10.6403 5.66481 10.6536C5.64343 10.6667 5.62558 10.6601 5.62558 10.6385ZM13.2296 10.2432C13.2296 10.2002 13.2529 10.1646 13.2812 10.1646C13.3208 10.1646 13.3233 10.1832 13.2909 10.2432C13.2384 10.3409 13.2296 10.3409 13.2296 10.2432ZM8.18187 9.99884C8.18645 9.97194 8.20313 9.92801 8.22004 9.90099C8.23954 9.86975 8.22838 9.85201 8.18962 9.85201C8.15603 9.85201 8.12854 9.82652 8.12854 9.79469C8.12854 9.75769 8.15121 9.74618 8.19303 9.76262C8.2581 9.78753 8.2561 9.73796 8.18187 9.48788C8.16695 9.43855 8.18563 9.41048 8.24236 9.3958C8.28735 9.38405 8.32411 9.36255 8.32411 9.34787C8.32411 9.33354 8.35571 9.31921 8.39518 9.31663C8.51416 9.30747 8.79431 9.1718 8.78056 9.12963C8.7734 9.10814 8.72724 9.08781 8.67814 9.08547C8.57407 9.08006 8.51264 9.00031 8.5413 8.90822C8.55246 8.87239 8.54329 8.8314 8.52098 8.81766C8.49831 8.80356 8.48022 8.82482 8.48022 8.86558C8.48022 8.90575 8.45438 8.97259 8.4229 9.0144C8.33316 9.13315 8.34772 8.99866 8.44122 8.84491C8.54882 8.66907 8.53989 8.61574 8.39729 8.58708C8.20513 8.54867 8.19514 8.55666 8.31014 8.65533C8.41538 8.74589 8.41597 8.75023 8.35054 8.8509C8.31354 8.9074 8.25704 8.95356 8.22556 8.95356C8.19373 8.95356 8.16766 8.9693 8.16766 8.98821C8.16766 9.00712 8.13183 9.03214 8.0879 9.04353C8.04456 9.05504 8.01167 9.07912 8.01531 9.09721C8.03222 9.18378 7.95599 9.38393 7.90631 9.38393C7.8753 9.38393 7.85956 9.39944 7.87107 9.41776C7.88258 9.43644 7.94049 9.44384 8.00016 9.43491C8.09941 9.41917 8.10305 9.42281 8.04056 9.47367C8.00298 9.50409 7.97208 9.55143 7.97208 9.57809C7.97208 9.63917 7.78485 9.59818 7.69511 9.5176C7.66152 9.48718 7.60338 9.46228 7.56661 9.46228C7.5107 9.46228 7.50729 9.44877 7.54429 9.37935C7.56873 9.33378 7.62229 9.28785 7.66305 9.27693C7.70381 9.26635 7.73728 9.2411 7.73728 9.22066C7.73728 9.20093 7.72236 9.19318 7.70404 9.20457C7.68572 9.21573 7.65071 9.18167 7.62663 9.12857C7.60255 9.07525 7.56732 9.03226 7.54782 9.03226C7.48874 9.03226 7.30832 9.19083 7.31783 9.23441C7.32276 9.25731 7.30174 9.28515 7.27167 9.29607C7.23349 9.31017 7.22433 9.29631 7.24101 9.25249C7.25475 9.21726 7.24841 9.1886 7.22786 9.1886C7.2073 9.1886 7.19003 9.15935 7.19003 9.12352C7.19003 9.06362 7.18487 9.06362 7.11838 9.12352C7.07915 9.15935 7.02806 9.1886 7.00539 9.1886C6.98248 9.1886 6.87747 9.266 6.77223 9.36032C6.61507 9.50139 6.56092 9.52841 6.47059 9.51149C6.38308 9.49481 6.34091 9.51349 6.26445 9.60358L6.16813 9.71658L6.23696 9.59043C6.27478 9.5216 6.45661 9.26295 6.64044 9.01628C8.37662 6.6881 10.9087 5.08559 13.7446 4.52037C14.8503 4.29954 16.1787 4.20804 16.8368 4.30647C17.0266 4.3349 17.1417 4.36438 17.0921 4.37272C17.0421 4.38071 16.9917 4.41231 16.98 4.44296C16.9674 4.47562 16.9048 4.49829 16.8282 4.49829C16.6852 4.49829 16.6126 4.55995 16.7222 4.58861C16.7795 4.60377 16.7776 4.60729 16.711 4.61093C16.6671 4.61375 16.6101 4.63642 16.5845 4.66203C16.5527 4.69362 16.2906 4.7116 15.7457 4.71876C14.8017 4.73168 14.7363 4.73885 14.4619 4.86018C14.3449 4.91175 14.1583 4.96484 14.0469 4.978C13.9353 4.99115 13.812 5.01934 13.7727 5.04084C13.7337 5.0621 13.6494 5.09076 13.5861 5.1045C13.5006 5.12259 13.4852 5.13774 13.5258 5.16276C13.5557 5.18108 13.5943 5.18825 13.6114 5.17768C13.628 5.16734 13.7037 5.17568 13.7791 5.19635C13.8614 5.21926 13.9247 5.21985 13.9382 5.1987C13.9506 5.17897 13.9382 5.16288 13.9113 5.16288C13.8803 5.16288 13.8758 5.14937 13.8988 5.12705C13.9656 5.06257 14.2091 5.06597 14.3034 5.13199C14.3886 5.19166 14.3898 5.19765 14.3215 5.23265C14.2487 5.27024 13.9791 5.33472 13.7159 5.37666C13.6092 5.39416 13.5671 5.42258 13.5504 5.48989C13.5291 5.57422 13.508 5.58045 13.2432 5.58045C12.9384 5.58045 12.5785 5.66361 12.6 5.72927C12.6178 5.78295 12.8151 5.80327 12.8736 5.75734C13.033 5.63119 13.4314 5.60617 13.3857 5.72551C13.3622 5.78683 13.4732 5.84286 13.5079 5.78718C13.5204 5.76651 13.5646 5.74959 13.6068 5.74959C13.6501 5.74959 13.6828 5.72269 13.6828 5.68675C13.6828 5.64517 13.704 5.63166 13.7444 5.64752C13.7786 5.66044 13.8325 5.67136 13.8646 5.67136C13.9153 5.67136 13.9153 5.67876 13.8628 5.73103C13.7676 5.82629 13.8224 5.89195 13.9822 5.87328C14.08 5.86177 14.1149 5.87046 14.0963 5.90076C14.0778 5.93107 14.1256 5.94493 14.2489 5.94493C14.3723 5.94493 14.4353 5.96325 14.4511 6.00319C14.4634 6.03526 14.4981 6.06192 14.5279 6.06192C14.5766 6.06192 14.599 6.10984 14.5727 6.158C14.5672 6.16775 14.5976 6.20099 14.6397 6.23165C14.7057 6.27981 14.71 6.30189 14.6704 6.38881C14.6449 6.4439 14.5809 6.5004 14.5285 6.51355L14.4329 6.53752L14.5172 6.62209C14.564 6.6686 14.6402 6.70983 14.6869 6.71418C14.7337 6.71817 14.8266 6.74941 14.8934 6.78383C14.9889 6.83316 15.0118 6.86781 15.0015 6.94581C14.9943 7.00031 14.9631 7.06104 14.9321 7.0803C14.8897 7.10755 14.8881 7.11613 14.9269 7.11648C14.955 7.11671 14.9671 7.13515 14.9538 7.15665C14.9407 7.17791 14.9572 7.19565 14.9906 7.19565C15.0244 7.19565 15.0517 7.22207 15.0517 7.25414C15.0517 7.28597 15.0276 7.31264 14.9977 7.31264C14.916 7.31264 14.5822 7.46804 14.5822 7.50621C14.5822 7.52489 14.5426 7.53229 14.4941 7.52371C14.4456 7.51479 14.4281 7.51737 14.4548 7.53029C14.4907 7.54744 14.4924 7.57328 14.4614 7.63178C14.4382 7.67477 14.4089 7.70002 14.3966 7.68769C14.3842 7.67559 14.3544 7.69262 14.3303 7.72586C14.3059 7.75887 14.2546 7.7907 14.2156 7.79646C14.1326 7.80855 14.0727 7.89172 14.0988 7.95902C14.1146 8.00037 14.0337 8.03936 13.8969 8.05687C13.8756 8.05968 13.8332 8.08235 13.804 8.10702C13.7739 8.13145 13.7254 8.15201 13.6964 8.15236C13.6359 8.15295 13.3302 8.43708 13.3302 8.493C13.3302 8.51273 13.2926 8.51766 13.2468 8.50333C13.1937 8.48618 13.1728 8.49159 13.1894 8.51766C13.2098 8.5509 12.9035 8.63125 12.8221 8.61374C12.4837 8.54233 12.3481 8.53751 12.0103 8.58367C11.872 8.60294 11.7872 8.59718 11.7498 8.56617C11.7069 8.53058 11.6627 8.53352 11.554 8.57874C11.4769 8.61081 11.4136 8.65333 11.4136 8.67247C11.4136 8.69139 11.3588 8.70924 11.2916 8.71124C11.2248 8.71323 11.0507 8.77748 10.9048 8.85372C10.5915 9.01863 10.5328 9.02744 10.5722 8.90528C10.5877 8.85677 10.604 8.76127 10.6092 8.6928C10.6203 8.53364 10.7508 8.36414 11.1113 8.04207C11.4486 7.74007 11.922 7.49353 11.922 7.61968C11.922 7.638 11.9664 7.64493 12.0209 7.6346C12.113 7.61686 12.1147 7.61193 12.0502 7.56177C11.9839 7.51044 11.9845 7.50504 12.0591 7.44654C12.1021 7.41271 12.1853 7.3918 12.2441 7.40038C12.3227 7.41154 12.3577 7.3958 12.3743 7.34329C12.3878 7.3003 12.532 7.20821 12.7264 7.11707C13.1046 6.94099 13.2566 6.81226 13.2256 6.69374C13.2087 6.63066 13.2382 6.59707 13.3641 6.53258C13.4518 6.48783 13.537 6.454 13.5537 6.45776C13.5706 6.46152 13.6145 6.45118 13.6515 6.43486C13.6951 6.41594 13.7693 6.43662 13.8608 6.49276C13.9752 6.56336 14.0094 6.57017 14.0355 6.52777C14.1075 6.41136 13.7975 6.33196 13.1442 6.30013C13.028 6.29414 13.033 6.2118 13.1577 6.0638C13.2331 5.97406 13.2437 5.94387 13.1991 5.94387C13.1664 5.94387 13.1282 5.9622 13.1139 5.98487C13.097 6.01212 13.0542 6.00354 12.9878 5.96043C12.8992 5.90253 12.8556 5.89994 12.627 5.94093C12.4842 5.96642 12.3151 6.02151 12.2522 6.06309C12.1888 6.10491 12.1056 6.13886 12.0666 6.13933C12.0276 6.13933 12.0067 6.15706 12.0199 6.17856C12.0603 6.24363 12.1965 6.22213 12.325 6.13099C12.4584 6.03608 12.9135 5.98099 12.9838 6.05123C13.0548 6.12229 12.832 6.38587 12.6024 6.50263C12.4846 6.56253 12.3778 6.63736 12.3658 6.66872C12.3538 6.70008 12.3193 6.7258 12.2892 6.7258C12.2594 6.7258 12.2341 6.74765 12.2335 6.77455C12.2324 6.82788 11.9206 6.99937 11.8249 6.99937C11.7925 6.99937 11.7173 7.05563 11.6583 7.12435C11.4091 7.41365 11.3856 7.42916 11.2139 7.42258L11.0495 7.41624L11.1729 7.30641C11.2405 7.24557 11.2962 7.18648 11.2962 7.1745C11.2962 7.13351 11.1271 7.24392 11.0043 7.36549C10.9363 7.43256 10.8145 7.50774 10.7336 7.53182C10.6317 7.56224 10.5993 7.56283 10.6283 7.53417C10.7012 7.46158 10.6739 7.41424 10.5989 7.48201C10.4793 7.59008 10.4652 7.55484 10.5604 7.38511C10.61 7.29619 10.7242 7.16346 10.8137 7.0897C10.9034 7.01605 10.9949 6.90387 11.017 6.84045C11.0405 6.7742 11.1008 6.70877 11.1598 6.68646C11.2917 6.6363 11.2961 6.63689 11.2961 6.70736C11.2961 6.78912 11.4129 6.82811 11.4558 6.76069C11.4805 6.72193 11.4905 6.72028 11.4911 6.75529C11.4913 6.78195 11.5108 6.80403 11.535 6.80403C11.5597 6.80403 11.5694 6.76938 11.5577 6.72369C11.5425 6.66578 11.5605 6.63419 11.6233 6.61046C11.6707 6.59237 11.7332 6.54938 11.7622 6.51496C11.7908 6.48078 11.8559 6.45212 11.907 6.45212C11.9583 6.45212 11.9997 6.43638 11.9997 6.41712C11.9997 6.39703 11.9392 6.3968 11.8531 6.41653C11.7727 6.4358 11.6329 6.44096 11.5433 6.42804C11.4029 6.40854 11.3547 6.42264 11.1984 6.53047C11.0983 6.59895 11.0048 6.64346 10.9902 6.62878C10.9753 6.6141 10.9954 6.57921 11.0342 6.55044C11.0821 6.51543 11.0907 6.48994 11.0611 6.47162C10.9914 6.42863 11.1379 6.28979 11.224 6.3174C11.3295 6.35099 11.3857 6.30189 11.3186 6.23506C11.2876 6.20405 11.2458 6.17879 11.2255 6.17879C11.2048 6.17879 11.1664 6.15236 11.1398 6.1203C11.0784 6.0463 10.8768 6.04547 10.7486 6.11853C10.6947 6.14919 10.5909 6.2017 10.5178 6.23553C10.4444 6.26912 10.3105 6.36285 10.2196 6.4432C10.1284 6.52319 9.98042 6.64828 9.8901 6.72075C9.79977 6.79323 9.70709 6.89342 9.68454 6.94299C9.66199 6.99256 9.58928 7.05563 9.52338 7.08324C9.45737 7.11049 9.34989 7.17955 9.28423 7.2364C9.21822 7.29349 9.11415 7.36632 9.05225 7.39873C8.96216 7.4449 8.95217 7.46158 9.00327 7.48072C9.03827 7.49447 9.06717 7.48812 9.06717 7.46721C9.06717 7.44689 9.08549 7.42939 9.10851 7.42939C9.13154 7.42939 9.21458 7.38546 9.2941 7.33131C9.37386 7.2774 9.44469 7.25132 9.45185 7.27282C9.48685 7.37747 9.86649 7.25391 10.0159 7.0884C10.0535 7.04682 10.124 7.01617 10.1722 7.0204C10.2207 7.02474 10.2956 7.00924 10.3383 6.98598C10.4295 6.93665 10.6764 6.84491 10.7205 6.84409C10.7372 6.84385 10.7239 6.88485 10.6911 6.935C10.6584 6.98492 10.6405 7.03531 10.6523 7.04718C10.6638 7.05869 10.6109 7.12259 10.5353 7.18942C10.4591 7.2559 10.3968 7.32849 10.3968 7.35034C10.3968 7.37184 10.3312 7.41741 10.2508 7.45124C10.096 7.51573 9.92768 7.65339 9.92768 7.71588C9.92768 7.73679 10.0063 7.7443 10.1123 7.7322C10.2697 7.71447 10.287 7.7187 10.2285 7.76169C10.1611 7.81102 9.85086 8.08975 9.57295 8.35134C9.49578 8.42358 9.4098 8.55325 9.38114 8.639C9.35271 8.72533 9.31665 8.78759 9.30115 8.77807C9.28506 8.76832 9.25099 8.81131 9.22515 8.8738C9.15573 9.04189 8.93291 9.23429 8.87442 9.17603C8.83918 9.14138 8.83424 9.1456 8.85257 9.19435C8.87066 9.24051 8.84423 9.26953 8.75731 9.2996C8.69129 9.3225 8.63773 9.36866 8.63773 9.40202C8.63773 9.43561 8.61647 9.46251 8.59075 9.46251C8.5561 9.46251 8.55516 9.47402 8.58793 9.50668C8.64361 9.56235 8.6086 9.65209 8.48727 9.76474C8.43453 9.81348 8.40551 9.85366 8.42243 9.85366C8.43934 9.85366 8.40575 9.89759 8.34784 9.9515C8.23202 10.0567 8.17036 10.0751 8.18187 9.99884ZM7.75455 8.34734C7.77322 8.269 7.76923 8.24327 7.74304 8.269C7.72178 8.29026 7.69147 8.36073 7.67655 8.42499C7.65788 8.50357 7.66222 8.52941 7.68807 8.50357C7.70956 8.48207 7.73963 8.41183 7.75455 8.34734ZM7.65024 8.26677C7.65541 8.20909 7.64249 8.17703 7.61959 8.19077C7.57425 8.2192 7.56685 8.36684 7.6116 8.36684C7.6284 8.36649 7.6459 8.32174 7.65024 8.26677ZM8.06969 7.89794C8.15286 7.8062 8.08461 7.79093 7.99429 7.88103C7.92522 7.94986 7.91747 7.97594 7.96586 7.97594C7.9843 7.97594 8.0307 7.9407 8.06969 7.89794ZM8.30462 7.5458C8.33527 7.49623 8.28371 7.49623 8.20677 7.5458C8.15603 7.57821 8.1572 7.58397 8.21417 7.58456C8.2507 7.58479 8.29111 7.56753 8.30462 7.5458ZM8.68519 7.30289C8.75261 7.24005 8.78785 7.17697 8.77093 7.15007C8.75202 7.11965 8.75919 7.11425 8.79243 7.13492C8.82602 7.15524 8.83659 7.14784 8.82449 7.11143C8.80124 7.04201 8.74509 7.05293 8.69541 7.13692C8.67415 7.17333 8.60825 7.2525 8.54882 7.31275C8.48973 7.37325 8.44122 7.44384 8.44122 7.46956C8.44134 7.52031 8.4801 7.49411 8.68519 7.30289ZM12.1372 6.45153C12.1237 6.43004 12.0954 6.41254 12.0736 6.41254C12.0523 6.41254 12.0455 6.43004 12.0586 6.45153C12.0718 6.47303 12.1005 6.49077 12.1221 6.49077C12.1437 6.49077 12.1505 6.47303 12.1372 6.45153ZM13.7537 5.98322C13.81 5.98381 13.8108 5.98898 13.7601 6.02163C13.709 6.05464 13.7096 6.0598 13.7655 6.06004C13.7999 6.06063 13.8494 6.03596 13.8751 6.0053C13.9112 5.96137 13.9055 5.9454 13.8458 5.92613C13.7429 5.89348 13.6422 5.93847 13.6459 6.01587C13.6479 6.05687 13.6562 6.06204 13.6686 6.03138C13.6798 6.00413 13.7179 5.98287 13.7537 5.98322ZM12.597 5.63072C12.63 5.63072 12.667 5.60429 12.6793 5.57223C12.7097 5.49365 12.671 5.49858 12.5164 5.59231C12.4402 5.63883 12.3988 5.68898 12.4149 5.71529C12.4342 5.74595 12.4571 5.73996 12.4895 5.69521C12.5158 5.65973 12.564 5.63072 12.597 5.63072ZM13.0365 5.27916C13.05 5.25767 13.0434 5.23993 13.0216 5.23993C13.0001 5.23993 12.9717 5.25767 12.9582 5.27916C12.9447 5.30042 12.9518 5.31816 12.9733 5.31816C12.9948 5.31816 13.0233 5.30042 13.0365 5.27916ZM13.3692 4.96625C13.3692 4.94475 13.3427 4.92702 13.3107 4.92702C13.2786 4.92702 13.2522 4.94475 13.2522 4.96625C13.2522 4.98751 13.2786 5.00525 13.3107 5.00525C13.3427 5.00525 13.3692 4.98751 13.3692 4.96625ZM12.4309 9.55777C12.4309 9.52477 12.4042 9.48777 12.3721 9.47543C12.2962 9.44619 12.2962 9.38334 12.3721 9.38334C12.4042 9.38334 12.4309 9.35668 12.4309 9.32485C12.4309 9.29243 12.4122 9.26612 12.3891 9.26612C12.3664 9.26612 12.3584 9.24944 12.371 9.22888C12.3835 9.20833 12.4229 9.20246 12.4581 9.21596C12.5083 9.23523 12.516 9.22489 12.4949 9.16863C12.4642 9.08922 12.5239 9.03331 12.6405 9.03237C12.6945 9.03179 12.708 9.05187 12.6931 9.10978C12.6773 9.17004 12.6919 9.18836 12.7569 9.1886C12.8031 9.1886 12.9087 9.20692 12.9901 9.22994C13.1269 9.26812 13.1381 9.28151 13.1272 9.39544C13.1114 9.55742 12.9899 9.61709 12.675 9.61803C12.4814 9.61768 12.4309 9.60511 12.4309 9.55777ZM17.8147 9.23969C17.7608 9.18601 17.7915 9.10954 17.8668 9.10954C17.919 9.10954 17.9452 9.13562 17.9452 9.18789C17.9453 9.26295 17.8686 9.29337 17.8147 9.23969ZM15.6819 8.14249C15.6575 8.09657 15.6378 8.03185 15.6378 7.99802C15.6378 7.96478 15.62 7.93694 15.5985 7.93694C15.5526 7.93694 15.5472 7.78236 15.5914 7.71294C15.6091 7.6851 15.6745 7.6716 15.7471 7.68087C15.816 7.6898 15.8725 7.68111 15.8725 7.66255C15.8725 7.62614 16.1355 7.63965 16.1739 7.67806C16.2123 7.71588 16.0979 7.82465 16.0422 7.80303C15.9702 7.77555 15.9759 7.85753 16.0522 7.94128C16.125 8.02186 16.0972 8.09093 15.9949 8.08294C15.9461 8.07918 15.9286 8.05487 15.9409 8.00718C15.9725 7.88725 15.8962 7.9306 15.8093 8.08177C15.7296 8.22025 15.7251 8.2226 15.6819 8.14249ZM10.4255 7.61886C10.4519 7.59219 10.4832 7.58045 10.4951 7.59243C10.5071 7.60441 10.486 7.62626 10.447 7.64094C10.3917 7.66255 10.3874 7.65797 10.4255 7.61886ZM18.5311 7.56447C18.4592 7.47814 18.5001 7.46815 18.5807 7.55237C18.6182 7.59196 18.6337 7.62402 18.6148 7.62402C18.5957 7.62402 18.558 7.59736 18.5311 7.56447ZM16.7841 7.56013C16.7518 7.54697 16.7572 7.52089 16.8036 7.47414C16.8499 7.4274 16.8831 7.41906 16.9142 7.44725C16.9389 7.46933 16.9498 7.50292 16.9383 7.52183C16.9266 7.54074 16.9417 7.54791 16.9715 7.53757C17.006 7.52583 17.0215 7.47473 17.0137 7.39592C17.0016 7.27658 17.0045 7.27399 17.108 7.31334C17.1852 7.34282 17.2228 7.34177 17.2426 7.309C17.2624 7.27658 17.2779 7.27599 17.2971 7.30723C17.3121 7.33108 17.3043 7.35058 17.2801 7.35058C17.2559 7.35058 17.2472 7.36831 17.2606 7.38981C17.2741 7.41107 17.2618 7.42904 17.2337 7.42939C17.1965 7.42998 17.1985 7.44032 17.241 7.4678C17.2888 7.49881 17.2836 7.50598 17.2146 7.50656C17.1683 7.5068 17.1213 7.48507 17.1104 7.45805C17.0978 7.42763 17.0895 7.43315 17.0875 7.47356C17.0832 7.56753 16.9182 7.61463 16.7841 7.56013ZM9.63121 7.15982C9.64296 7.14091 9.69229 7.11542 9.74104 7.10309C9.82655 7.08183 9.82702 7.08335 9.75396 7.1375C9.66962 7.20023 9.59821 7.21338 9.63121 7.15982ZM10.6314 6.7641C10.7082 6.71453 10.7601 6.71453 10.7292 6.7641C10.7161 6.78536 10.6756 6.80309 10.6391 6.80286C10.5818 6.80215 10.581 6.79699 10.6314 6.7641ZM10.827 6.56876C10.827 6.5475 10.8536 6.52953 10.8857 6.52953C10.9178 6.52953 10.9442 6.54762 10.9442 6.56876C10.9442 6.5899 10.9178 6.60799 10.8857 6.60799C10.8534 6.60811 10.827 6.59002 10.827 6.56876ZM14.3185 5.88056C14.3316 5.86764 14.3652 5.86623 14.3936 5.87739C14.4243 5.88972 14.4155 5.89924 14.3698 5.90088C14.3285 5.90288 14.3055 5.89348 14.3185 5.88056ZM14.0563 5.82723C14.0147 5.81255 13.9972 5.79164 14.0173 5.78072C14.0692 5.75206 14.4079 5.73914 14.3804 5.76662C14.3324 5.81455 14.1285 5.85272 14.0563 5.82723ZM14.3175 5.644C14.2341 5.6104 14.2636 5.5465 14.3568 5.55966C14.4049 5.56659 14.4402 5.59008 14.4348 5.61122C14.4231 5.6588 14.383 5.66972 14.3175 5.644ZM13.7604 5.6178C13.7604 5.60547 13.8002 5.55214 13.8493 5.49999C13.9136 5.43116 13.9944 5.39792 14.138 5.38265C14.2482 5.3709 14.3841 5.34964 14.4403 5.33566C14.5163 5.3164 14.5423 5.32509 14.5423 5.36749C14.5423 5.44549 14.4397 5.52747 14.3849 5.49365C14.3611 5.47873 14.259 5.47932 14.1587 5.49506C14.0131 5.51773 13.9916 5.52971 14.0541 5.55496C14.1249 5.58362 14.1231 5.58656 14.0346 5.58961C13.9807 5.59137 13.8973 5.60335 13.8487 5.61627C13.7999 5.62931 13.7604 5.6299 13.7604 5.6178ZM17.5045 4.90118C17.5309 4.8906 17.584 4.89002 17.6218 4.89977C17.6599 4.90975 17.6381 4.91844 17.5736 4.91926C17.509 4.92009 17.4778 4.9121 17.5045 4.90118Z" fill="#338AF3"/>
<path d="M20.6743 20.3863V11.8499H23.3749C25.4346 11.8499 26.7162 12.8454 26.7162 14.6305C26.7162 15.6489 26.1784 16.8046 24.5535 17.228L27.1281 20.3863H24.8853L22.6196 17.3882H22.5395V20.3863H20.6743ZM22.5395 15.9464H23.2947C24.3017 15.9464 24.8395 15.5002 24.8395 14.7449C24.8395 13.9668 24.256 13.5549 23.3291 13.5549H22.5395V15.9464Z" fill="white"/>
<path d="M14.6317 11.8499C17.4123 11.8499 19.2775 13.5549 19.2775 16.1181C19.2775 18.6927 17.378 20.3863 14.6317 20.3863H12.1143V11.8499H14.6317ZM13.9795 18.6927H14.7118C16.3024 18.6927 17.3895 17.7659 17.3895 16.1295C17.3895 14.4703 16.3024 13.5549 14.7118 13.5549H13.9795V18.6927Z" fill="white"/>
<path d="M8.02094 11.6667C8.8906 11.6667 9.66872 11.9185 10.2409 12.2503V13.9668C9.68016 13.5663 8.83339 13.3145 8.12392 13.3145C7.36869 13.3145 6.84231 13.612 6.84231 14.1499C6.84231 14.6534 7.31147 14.8822 8.20402 15.2484C9.41698 15.729 10.7444 16.2668 10.7444 17.8917C10.7444 19.4937 9.49708 20.5694 7.60899 20.5694C6.5448 20.5694 5.59503 20.2261 5.02289 19.8027V17.9947C5.61792 18.5325 6.5448 18.933 7.4259 18.933C8.27268 18.933 8.83338 18.544 8.83338 17.9604C8.83338 17.3882 8.23835 17.1136 7.31147 16.736C6.25872 16.3011 5 15.7404 5 14.2185C5 12.7309 6.17862 11.6667 8.02094 11.6667Z" fill="white"/>
</svg>
