<svg width="32" height="32" viewBox="0 0 32 32" fill="none" xmlns="http://www.w3.org/2000/svg">
<mask id="mask0_5591_21191" style="mask-type:alpha" maskUnits="userSpaceOnUse" x="1" y="1" width="30" height="30">
<path d="M30.6842 12.75L28.6963 24.0328C28.4875 25.2088 27.3937 26.5007 26.2642 26.9093L15.4257 30.8154C14.2961 31.2258 12.617 30.9278 11.6944 30.1605L2.84202 22.782C1.91769 22.0111 1.33597 20.423 1.54118 19.2471L3.53078 7.96068C3.73777 6.78476 4.83342 5.49282 5.96295 5.08419L16.8032 1.18348C17.9328 0.774847 19.6101 1.07285 20.5326 1.83836L29.3798 9.21332C30.313 9.98418 30.8876 11.5759 30.6842 12.75Z" fill="white"/>
</mask>
<g mask="url(#mask0_5591_21191)">
<mask id="mask1_5591_21191" style="mask-type:luminance" maskUnits="userSpaceOnUse" x="0" y="0" width="32" height="32">
<path d="M16 32C24.8366 32 32 24.8366 32 16C32 7.16344 24.8366 0 16 0C7.16344 0 0 7.16344 0 16C0 24.8366 7.16344 32 16 32Z" fill="white"/>
</mask>
<g mask="url(#mask1_5591_21191)">
<path d="M0 16L16.1063 12.8125L32 16V32H0V16Z" fill="#EEEEEE"/>
<path d="M0 0H32V16H0V0Z" fill="#D80027"/>
<path d="M9.73747 8.34998C9.73846 7.24022 10.1181 6.164 10.8135 5.2992C11.509 4.43439 12.4787 3.83276 13.5625 3.59373C13.2196 3.51887 12.8697 3.48115 12.5187 3.48123C11.8299 3.4739 11.1472 3.61264 10.5159 3.88833C9.88457 4.16402 9.31883 4.57039 8.85598 5.08065C8.39313 5.59091 8.04369 6.19348 7.83068 6.84863C7.61767 7.50378 7.54594 8.19664 7.62021 8.88153C7.69448 9.56642 7.91307 10.2278 8.26156 10.8221C8.61006 11.4163 9.08055 11.93 9.64202 12.3291C10.2035 12.7283 10.8432 13.004 11.5189 13.1379C12.1947 13.2719 12.8912 13.2611 13.5625 13.1062C12.4787 12.8672 11.509 12.2656 10.8135 11.4008C10.1181 10.536 9.73846 9.45975 9.73747 8.34998ZM16 3.82498L16.3437 4.88748H17.4687L16.5562 5.54373L16.9062 6.60623L16 5.94998L15.0937 6.60623L15.4437 5.54373L14.5375 4.88748H15.6562L16 3.82498Z" fill="#EEEEEE"/>
<path d="M13.2877 5.9126L13.6377 6.9751H14.7502L13.8502 7.63135L14.1939 8.69385L13.2877 8.0376L12.3877 8.69385L12.7314 7.63135L11.8252 6.9751H12.9439L13.2877 5.9126ZM18.7127 5.9126L19.0564 6.9751H20.1752L19.2689 7.63135L19.6127 8.69385L18.7127 8.0376L17.8064 8.69385L18.1502 7.63135L17.2502 6.9751H18.3627L18.7127 5.9126ZM17.6689 9.04385L18.0127 10.1063H19.1314L18.2252 10.7626L18.5689 11.8251L17.6689 11.1688L16.7627 11.8251L17.1064 10.7626L16.2064 10.1063H17.3252L17.6689 9.04385ZM14.3314 9.04385L14.6752 10.1063H15.8002L14.8939 10.7626L15.2377 11.8251L14.3314 11.1688L13.4314 11.8251L13.7752 10.7626L12.8689 10.1063H13.9877L14.3314 9.04385Z" fill="#EEEEEE"/>
</g>
</g>
</svg>
