<svg width="240" height="78" viewBox="0 0 240 78" fill="none" xmlns="http://www.w3.org/2000/svg">
<ellipse cx="36.4207" cy="39.2416" rx="22.4481" ry="22.3637" fill="white"/>
<path d="M103.088 49.4703C102.268 49.4703 101.738 49.904 100.195 49.904C98.99 49.904 97.0617 49.8558 97.0617 47.0124V32.458H102.509C103.57 32.458 104.389 31.6388 104.389 30.5785C104.389 29.5183 103.57 28.699 102.509 28.699H97.0617V24.8435C97.0617 24.3134 96.6761 23.8796 96.1458 23.8796C95.7602 23.8796 95.4709 24.1688 95.3263 24.3134L88.7703 30.7231C88.481 30.9641 88.3364 31.2532 88.3364 31.5424C88.3364 32.0725 88.7221 32.458 89.2523 32.458H92.675V47.398C92.675 53.374 97.4474 53.7595 99.7131 53.7595C101.256 53.7595 102.557 53.4221 103.714 52.892C104.389 52.5547 104.823 52.0245 104.823 51.2053C104.823 50.1932 103.955 49.4703 103.088 49.4703ZM128.534 47.9763C129.546 47.9763 130.462 48.7474 130.462 49.8558C130.462 50.6269 129.883 51.2534 129.208 51.639C127.087 52.8438 124.966 53.7595 120.772 53.7595C112.915 53.7595 108.287 49.0847 108.287 40.9883C108.287 34.4822 111.806 28.217 119.808 28.217C127.232 28.217 131.281 33.952 131.281 40.3618C131.281 41.5666 130.414 42.5305 129.064 42.5305H112.722C113.204 46.8679 115.952 49.6631 121.158 49.6631C124.05 49.6631 125.882 49.0847 127.666 48.1691C127.955 48.0245 128.196 47.9763 128.534 47.9763ZM119.808 31.9279C116.723 31.9279 113.011 33.952 112.722 38.9641H126.943C126.653 33.952 122.893 31.9279 119.808 31.9279ZM139.903 17.8555C138.698 17.8555 137.734 18.8193 137.734 20.0724V51.3498C137.734 52.5547 138.698 53.5185 139.903 53.5185C141.157 53.5185 142.121 52.5547 142.121 51.3498V20.0724C142.121 18.8193 141.157 17.8555 139.903 17.8555ZM168.531 47.8317C168.145 47.8317 167.904 47.8799 167.47 48.1209C165.783 48.9884 164.433 49.6631 161.927 49.6631C156.335 49.6631 153.057 46.145 153.057 40.9883C153.057 35.8316 156.335 32.3135 161.927 32.3135C164.433 32.3135 165.783 32.9882 167.47 33.8557C167.904 34.0966 168.145 34.1448 168.531 34.1448C169.543 34.1448 170.363 33.1328 170.363 32.2171C170.363 31.4942 169.977 30.9159 169.399 30.5303C167.76 29.4701 165.349 28.217 161.541 28.217C154.696 28.217 148.67 32.94 148.67 40.9883C148.67 49.0366 154.696 53.7595 161.541 53.7595C165.349 53.7595 167.76 52.5065 169.399 51.4462C169.977 51.0607 170.363 50.4824 170.363 49.7595C170.363 48.8438 169.543 47.8317 168.531 47.8317ZM186.891 28.217C194.314 28.217 199.231 33.3737 199.231 40.9883C199.231 48.6028 194.314 53.7595 186.891 53.7595C179.419 53.7595 174.55 48.6028 174.55 40.9883C174.55 33.3737 179.419 28.217 186.891 28.217ZM186.891 49.7595C190.554 49.7595 194.845 47.3498 194.845 40.9401C194.845 34.5786 190.554 32.2171 186.891 32.2171C183.179 32.2171 178.937 34.5786 178.937 40.9401C178.937 47.3498 183.179 49.7595 186.891 49.7595ZM207.853 28.458C206.648 28.458 205.684 29.4219 205.684 30.6749V51.3498C205.684 52.5547 206.648 53.5185 207.853 53.5185C209.107 53.5185 210.071 52.5547 210.071 51.3498V30.6749C210.071 29.4219 209.107 28.458 207.853 28.458ZM210.505 21.0362C210.505 19.6868 209.396 18.5784 208.046 18.5784H207.757C206.407 18.5784 205.298 19.6868 205.298 21.0362V21.229C205.298 22.5784 206.407 23.6869 207.757 23.6869H208.046C209.396 23.6869 210.505 22.5784 210.505 21.229V21.0362ZM231.371 28.217C227.081 28.217 224.429 30.4339 222.405 32.6508V30.6749C222.405 29.4219 221.392 28.458 220.187 28.458C218.982 28.458 218.018 29.4219 218.018 30.6749V51.3498C218.018 52.5547 218.982 53.5185 220.187 53.5185C221.392 53.5185 222.405 52.5547 222.405 51.3498V36.8918C224.333 34.4822 226.84 32.2653 230.311 32.2653C234.071 32.2653 235.613 34.4822 235.613 38.1449V51.3498C235.613 52.5547 236.577 53.5185 237.783 53.5185C238.988 53.5185 240 52.5547 240 51.3498V37.6629C240 32.5062 236.867 28.217 231.371 28.217Z" fill="#4A4A4A"/>
<path d="M103.088 49.4703C102.268 49.4703 101.738 49.904 100.195 49.904C98.99 49.904 97.0617 49.8558 97.0617 47.0124V32.458H102.509C103.57 32.458 104.389 31.6388 104.389 30.5785C104.389 29.5183 103.57 28.699 102.509 28.699H97.0617V24.8435C97.0617 24.3134 96.6761 23.8796 96.1458 23.8796C95.7602 23.8796 95.4709 24.1688 95.3263 24.3134L88.7703 30.7231C88.481 30.9641 88.3364 31.2532 88.3364 31.5424C88.3364 32.0725 88.7221 32.458 89.2523 32.458H92.675V47.398C92.675 53.374 97.4474 53.7595 99.7131 53.7595C101.256 53.7595 102.557 53.4221 103.714 52.892C104.389 52.5547 104.823 52.0245 104.823 51.2053C104.823 50.1932 103.955 49.4703 103.088 49.4703ZM128.534 47.9763C129.546 47.9763 130.462 48.7474 130.462 49.8558C130.462 50.6269 129.883 51.2534 129.208 51.639C127.087 52.8438 124.966 53.7595 120.772 53.7595C112.915 53.7595 108.287 49.0847 108.287 40.9883C108.287 34.4822 111.806 28.217 119.808 28.217C127.232 28.217 131.281 33.952 131.281 40.3618C131.281 41.5666 130.414 42.5305 129.064 42.5305H112.722C113.204 46.8679 115.952 49.6631 121.158 49.6631C124.05 49.6631 125.882 49.0847 127.666 48.1691C127.955 48.0245 128.196 47.9763 128.534 47.9763ZM119.808 31.9279C116.723 31.9279 113.011 33.952 112.722 38.9641H126.943C126.653 33.952 122.893 31.9279 119.808 31.9279ZM139.903 17.8555C138.698 17.8555 137.734 18.8193 137.734 20.0724V51.3498C137.734 52.5547 138.698 53.5185 139.903 53.5185C141.157 53.5185 142.121 52.5547 142.121 51.3498V20.0724C142.121 18.8193 141.157 17.8555 139.903 17.8555ZM168.531 47.8317C168.145 47.8317 167.904 47.8799 167.47 48.1209C165.783 48.9884 164.433 49.6631 161.927 49.6631C156.335 49.6631 153.057 46.145 153.057 40.9883C153.057 35.8316 156.335 32.3135 161.927 32.3135C164.433 32.3135 165.783 32.9882 167.47 33.8557C167.904 34.0966 168.145 34.1448 168.531 34.1448C169.543 34.1448 170.363 33.1328 170.363 32.2171C170.363 31.4942 169.977 30.9159 169.399 30.5303C167.76 29.4701 165.349 28.217 161.541 28.217C154.696 28.217 148.67 32.94 148.67 40.9883C148.67 49.0366 154.696 53.7595 161.541 53.7595C165.349 53.7595 167.76 52.5065 169.399 51.4462C169.977 51.0607 170.363 50.4824 170.363 49.7595C170.363 48.8438 169.543 47.8317 168.531 47.8317ZM186.891 28.217C194.314 28.217 199.231 33.3737 199.231 40.9883C199.231 48.6028 194.314 53.7595 186.891 53.7595C179.419 53.7595 174.55 48.6028 174.55 40.9883C174.55 33.3737 179.419 28.217 186.891 28.217ZM186.891 49.7595C190.554 49.7595 194.845 47.3498 194.845 40.9401C194.845 34.5786 190.554 32.2171 186.891 32.2171C183.179 32.2171 178.937 34.5786 178.937 40.9401C178.937 47.3498 183.179 49.7595 186.891 49.7595ZM207.853 28.458C206.648 28.458 205.684 29.4219 205.684 30.6749V51.3498C205.684 52.5547 206.648 53.5185 207.853 53.5185C209.107 53.5185 210.071 52.5547 210.071 51.3498V30.6749C210.071 29.4219 209.107 28.458 207.853 28.458ZM210.505 21.0362C210.505 19.6868 209.396 18.5784 208.046 18.5784H207.757C206.407 18.5784 205.298 19.6868 205.298 21.0362V21.229C205.298 22.5784 206.407 23.6869 207.757 23.6869H208.046C209.396 23.6869 210.505 22.5784 210.505 21.229V21.0362ZM231.371 28.217C227.081 28.217 224.429 30.4339 222.405 32.6508V30.6749C222.405 29.4219 221.392 28.458 220.187 28.458C218.982 28.458 218.018 29.4219 218.018 30.6749V51.3498C218.018 52.5547 218.982 53.5185 220.187 53.5185C221.392 53.5185 222.405 52.5547 222.405 51.3498V36.8918C224.333 34.4822 226.84 32.2653 230.311 32.2653C234.071 32.2653 235.613 34.4822 235.613 38.1449V51.3498C235.613 52.5547 236.577 53.5185 237.783 53.5185C238.988 53.5185 240 52.5547 240 51.3498V37.6629C240 32.5062 236.867 28.217 231.371 28.217Z" fill="white"/>
<path d="M66.1817 23.6665C68.2577 25.3944 69.5674 28.9698 69.1098 31.6056L64.6416 56.9458C64.1758 59.5872 61.7166 62.491 59.1817 63.4058L34.8431 72.1818C32.3082 73.0966 28.5381 72.4319 26.4689 70.7052L6.59975 54.1342C4.52368 52.4064 3.2128 48.8378 3.67856 46.1963L8.14671 20.8562C8.61247 18.2147 11.0717 15.3109 13.6066 14.3961L37.944 5.62696C40.4789 4.71215 44.249 5.37692 46.3182 7.10356L66.1817 23.6665ZM45.4774 35.0436L46.4689 29.895L37.1756 29.9097L38.499 23.1193L35.4891 23.1193C35.4891 23.1193 32.6757 28.1512 26.4725 30.6146L25.6174 35.0549L29.6814 35.0631C29.6814 35.0631 28.3057 41.4446 27.8523 43.7986C26.6984 49.7908 29.5859 54.0427 34.0253 54.0426C36.2525 54.0427 38.7537 54.0427 41.5288 54.0427L42.8446 48.3512C42.5246 48.3512 40.4325 48.3512 36.5681 48.3512C33.7786 48.3512 33.9253 46.788 34.4611 44.0059L36.1875 35.0405L45.4774 35.0436Z" fill="#14C8FF"/>
</svg>
